solid shell.stl
facet normal 0.000000 84.785652 -4.443446
  outer loop
    vertex 0.000000 51.500000 0.000000
    vertex 15.750000 51.500000 0.000000
    vertex 0.000000 51.217876 -5.383216
  endloop
endfacet
facet normal 0.000000 84.785652 -4.443446
  outer loop
    vertex 15.750000 51.500000 0.000000
    vertex 15.750000 51.217876 -5.383216
    vertex 0.000000 51.217876 -5.383216
  endloop
endfacet
facet normal 0.000000 84.785652 -4.443446
  outer loop
    vertex 15.750000 51.500000 0.000000
    vertex 31.500000 51.500000 0.000000
    vertex 15.750000 51.217876 -5.383216
  endloop
endfacet
facet normal 0.000000 84.785652 -4.443446
  outer loop
    vertex 31.500000 51.500000 0.000000
    vertex 31.500000 51.217876 -5.383216
    vertex 15.750000 51.217876 -5.383216
  endloop
endfacet
facet normal 0.000000 84.785652 -4.443446
  outer loop
    vertex 31.500000 51.500000 0.000000
    vertex 47.250000 51.500000 0.000000
    vertex 31.500000 51.217876 -5.383216
  endloop
endfacet
facet normal 0.000000 84.785652 -4.443446
  outer loop
    vertex 47.250000 51.500000 0.000000
    vertex 47.250000 51.217876 -5.383216
    vertex 31.500000 51.217876 -5.383216
  endloop
endfacet
facet normal 0.000000 84.785652 -4.443446
  outer loop
    vertex 47.250000 51.500000 0.000000
    vertex 63.000000 51.500000 0.000000
    vertex 47.250000 51.217876 -5.383216
  endloop
endfacet
facet normal 0.000000 84.785652 -4.443446
  outer loop
    vertex 63.000000 51.500000 0.000000
    vertex 63.000000 51.217876 -5.383216
    vertex 47.250000 51.217876 -5.383216
  endloop
endfacet
facet normal -0.000000 84.785652 4.443446
  outer loop
    vertex 0.000000 51.217876 5.383216
    vertex 15.750000 51.217876 5.383216
    vertex 0.000000 51.500000 0.000000
  endloop
endfacet
facet normal 0.000000 84.785652 4.443446
  outer loop
    vertex 15.750000 51.217876 5.383216
    vertex 15.750000 51.500000 0.000000
    vertex 0.000000 51.500000 0.000000
  endloop
endfacet
facet normal -0.000000 84.785652 4.443446
  outer loop
    vertex 15.750000 51.217876 5.383216
    vertex 31.500000 51.217876 5.383216
    vertex 15.750000 51.500000 0.000000
  endloop
endfacet
facet normal 0.000000 84.785652 4.443446
  outer loop
    vertex 31.500000 51.217876 5.383216
    vertex 31.500000 51.500000 0.000000
    vertex 15.750000 51.500000 0.000000
  endloop
endfacet
facet normal -0.000000 84.785652 4.443446
  outer loop
    vertex 31.500000 51.217876 5.383216
    vertex 47.250000 51.217876 5.383216
    vertex 31.500000 51.500000 0.000000
  endloop
endfacet
facet normal 0.000000 84.785652 4.443446
  outer loop
    vertex 47.250000 51.217876 5.383216
    vertex 47.250000 51.500000 0.000000
    vertex 31.500000 51.500000 0.000000
  endloop
endfacet
facet normal -0.000000 84.785652 4.443446
  outer loop
    vertex 47.250000 51.217876 5.383216
    vertex 63.000000 51.217876 5.383216
    vertex 47.250000 51.500000 0.000000
  endloop
endfacet
facet normal 0.000000 84.785652 4.443446
  outer loop
    vertex 63.000000 51.217876 5.383216
    vertex 63.000000 51.500000 0.000000
    vertex 47.250000 51.500000 0.000000
  endloop
endfacet
facet normal -0.000000 83.856712 13.281552
  outer loop
    vertex 0.000000 50.374603 10.707452
    vertex 15.750000 50.374603 10.707452
    vertex 0.000000 51.217876 5.383216
  endloop
endfacet
facet normal 0.000000 83.856712 13.281552
  outer loop
    vertex 15.750000 50.374603 10.707452
    vertex 15.750000 51.217876 5.383216
    vertex 0.000000 51.217876 5.383216
  endloop
endfacet
facet normal -0.000000 83.856712 13.281552
  outer loop
    vertex 15.750000 50.374603 10.707452
    vertex 31.500000 50.374603 10.707452
    vertex 15.750000 51.217876 5.383216
  endloop
endfacet
facet normal 0.000000 83.856712 13.281552
  outer loop
    vertex 31.500000 50.374603 10.707452
    vertex 31.500000 51.217876 5.383216
    vertex 15.750000 51.217876 5.383216
  endloop
endfacet
facet normal -0.000000 83.856712 13.281552
  outer loop
    vertex 31.500000 50.374603 10.707452
    vertex 47.250000 50.374603 10.707452
    vertex 31.500000 51.217876 5.383216
  endloop
endfacet
facet normal 0.000000 83.856712 13.281552
  outer loop
    vertex 47.250000 50.374603 10.707452
    vertex 47.250000 51.217876 5.383216
    vertex 31.500000 51.217876 5.383216
  endloop
endfacet
facet normal -0.000000 83.856712 13.281552
  outer loop
    vertex 47.250000 50.374603 10.707452
    vertex 63.000000 50.374603 10.707452
    vertex 47.250000 51.217876 5.383216
  endloop
endfacet
facet normal 0.000000 83.856712 13.281552
  outer loop
    vertex 63.000000 50.374603 10.707452
    vertex 63.000000 51.217876 5.383216
    vertex 47.250000 51.217876 5.383216
  endloop
endfacet
facet normal -0.000000 82.009048 21.974262
  outer loop
    vertex 0.000000 48.979412 15.914375
    vertex 15.750000 48.979412 15.914375
    vertex 0.000000 50.374603 10.707452
  endloop
endfacet
facet normal 0.000000 82.009048 21.974262
  outer loop
    vertex 15.750000 48.979412 15.914375
    vertex 15.750000 50.374603 10.707452
    vertex 0.000000 50.374603 10.707452
  endloop
endfacet
facet normal -0.000000 82.009048 21.974262
  outer loop
    vertex 15.750000 48.979412 15.914375
    vertex 31.500000 48.979412 15.914375
    vertex 15.750000 50.374603 10.707452
  endloop
endfacet
facet normal 0.000000 82.009048 21.974262
  outer loop
    vertex 31.500000 48.979412 15.914375
    vertex 31.500000 50.374603 10.707452
    vertex 15.750000 50.374603 10.707452
  endloop
endfacet
facet normal -0.000000 82.009048 21.974262
  outer loop
    vertex 31.500000 48.979412 15.914375
    vertex 47.250000 48.979412 15.914375
    vertex 31.500000 50.374603 10.707452
  endloop
endfacet
facet normal 0.000000 82.009048 21.974262
  outer loop
    vertex 47.250000 48.979412 15.914375
    vertex 47.250000 50.374603 10.707452
    vertex 31.500000 50.374603 10.707452
  endloop
endfacet
facet normal -0.000000 82.009048 21.974262
  outer loop
    vertex 47.250000 48.979412 15.914375
    vertex 63.000000 48.979412 15.914375
    vertex 47.250000 50.374603 10.707452
  endloop
endfacet
facet normal 0.000000 82.009048 21.974262
  outer loop
    vertex 63.000000 48.979412 15.914375
    vertex 63.000000 50.374603 10.707452
    vertex 47.250000 50.374603 10.707452
  endloop
endfacet
facet normal -0.000000 79.262856 30.426163
  outer loop
    vertex 0.000000 47.047592 20.946938
    vertex 15.750000 47.047592 20.946938
    vertex 0.000000 48.979412 15.914375
  endloop
endfacet
facet normal 0.000000 79.262856 30.426163
  outer loop
    vertex 15.750000 47.047592 20.946938
    vertex 15.750000 48.979412 15.914375
    vertex 0.000000 48.979412 15.914375
  endloop
endfacet
facet normal -0.000000 79.262856 30.426163
  outer loop
    vertex 15.750000 47.047592 20.946938
    vertex 31.500000 47.047592 20.946938
    vertex 15.750000 48.979412 15.914375
  endloop
endfacet
facet normal 0.000000 79.262856 30.426163
  outer loop
    vertex 31.500000 47.047592 20.946938
    vertex 31.500000 48.979412 15.914375
    vertex 15.750000 48.979412 15.914375
  endloop
endfacet
facet normal -0.000000 79.262856 30.426163
  outer loop
    vertex 31.500000 47.047592 20.946938
    vertex 47.250000 47.047592 20.946938
    vertex 31.500000 48.979412 15.914375
  endloop
endfacet
facet normal 0.000000 79.262856 30.426163
  outer loop
    vertex 47.250000 47.047592 20.946938
    vertex 47.250000 48.979412 15.914375
    vertex 31.500000 48.979412 15.914375
  endloop
endfacet
facet normal -0.000000 79.262856 30.426163
  outer loop
    vertex 47.250000 47.047592 20.946938
    vertex 63.000000 47.047592 20.946938
    vertex 47.250000 48.979412 15.914375
  endloop
endfacet
facet normal 0.000000 79.262856 30.426163
  outer loop
    vertex 63.000000 47.047592 20.946938
    vertex 63.000000 48.979412 15.914375
    vertex 47.250000 48.979412 15.914375
  endloop
endfacet
facet normal -0.000000 75.648232 38.544735
  outer loop
    vertex 0.000000 44.600307 25.750000
    vertex 15.750000 44.600307 25.750000
    vertex 0.000000 47.047592 20.946938
  endloop
endfacet
facet normal 0.000000 75.648232 38.544735
  outer loop
    vertex 15.750000 44.600307 25.750000
    vertex 15.750000 47.047592 20.946938
    vertex 0.000000 47.047592 20.946938
  endloop
endfacet
facet normal -0.000000 75.648232 38.544735
  outer loop
    vertex 15.750000 44.600307 25.750000
    vertex 31.500000 44.600307 25.750000
    vertex 15.750000 47.047592 20.946938
  endloop
endfacet
facet normal 0.000000 75.648232 38.544735
  outer loop
    vertex 31.500000 44.600307 25.750000
    vertex 31.500000 47.047592 20.946938
    vertex 15.750000 47.047592 20.946938
  endloop
endfacet
facet normal -0.000000 75.648232 38.544735
  outer loop
    vertex 31.500000 44.600307 25.750000
    vertex 47.250000 44.600307 25.750000
    vertex 31.500000 47.047592 20.946938
  endloop
endfacet
facet normal 0.000000 75.648232 38.544735
  outer loop
    vertex 47.250000 44.600307 25.750000
    vertex 47.250000 47.047592 20.946938
    vertex 31.500000 47.047592 20.946938
  endloop
endfacet
facet normal -0.000000 75.648232 38.544735
  outer loop
    vertex 47.250000 44.600307 25.750000
    vertex 63.000000 44.600307 25.750000
    vertex 47.250000 47.047592 20.946938
  endloop
endfacet
facet normal 0.000000 75.648232 38.544735
  outer loop
    vertex 63.000000 44.600307 25.750000
    vertex 63.000000 47.047592 20.946938
    vertex 47.250000 47.047592 20.946938
  endloop
endfacet
facet normal -0.000000 71.204819 46.240932
  outer loop
    vertex 0.000000 41.664375 30.270941
    vertex 15.750000 41.664375 30.270941
    vertex 0.000000 44.600307 25.750000
  endloop
endfacet
facet normal 0.000000 71.204819 46.240932
  outer loop
    vertex 15.750000 41.664375 30.270941
    vertex 15.750000 44.600307 25.750000
    vertex 0.000000 44.600307 25.750000
  endloop
endfacet
facet normal -0.000000 71.204819 46.240932
  outer loop
    vertex 15.750000 41.664375 30.270941
    vertex 31.500000 41.664375 30.270941
    vertex 15.750000 44.600307 25.750000
  endloop
endfacet
facet normal 0.000000 71.204819 46.240932
  outer loop
    vertex 31.500000 41.664375 30.270941
    vertex 31.500000 44.600307 25.750000
    vertex 15.750000 44.600307 25.750000
  endloop
endfacet
facet normal -0.000000 71.204819 46.240932
  outer loop
    vertex 31.500000 41.664375 30.270941
    vertex 47.250000 41.664375 30.270941
    vertex 31.500000 44.600307 25.750000
  endloop
endfacet
facet normal 0.000000 71.204819 46.240932
  outer loop
    vertex 47.250000 41.664375 30.270941
    vertex 47.250000 44.600307 25.750000
    vertex 31.500000 44.600307 25.750000
  endloop
endfacet
facet normal -0.000000 71.204819 46.240932
  outer loop
    vertex 47.250000 41.664375 30.270941
    vertex 63.000000 41.664375 30.270941
    vertex 47.250000 44.600307 25.750000
  endloop
endfacet
facet normal 0.000000 71.204819 46.240932
  outer loop
    vertex 63.000000 41.664375 30.270941
    vertex 63.000000 44.600307 25.750000
    vertex 47.250000 44.600307 25.750000
  endloop
endfacet
facet normal -0.000000 65.981270 53.430580
  outer loop
    vertex 0.000000 38.271957 34.460228
    vertex 15.750000 38.271957 34.460228
    vertex 0.000000 41.664375 30.270941
  endloop
endfacet
facet normal 0.000000 65.981270 53.430580
  outer loop
    vertex 15.750000 38.271957 34.460228
    vertex 15.750000 41.664375 30.270941
    vertex 0.000000 41.664375 30.270941
  endloop
endfacet
facet normal -0.000000 65.981270 53.430580
  outer loop
    vertex 15.750000 38.271957 34.460228
    vertex 31.500000 38.271957 34.460228
    vertex 15.750000 41.664375 30.270941
  endloop
endfacet
facet normal 0.000000 65.981270 53.430580
  outer loop
    vertex 31.500000 38.271957 34.460228
    vertex 31.500000 41.664375 30.270941
    vertex 15.750000 41.664375 30.270941
  endloop
endfacet
facet normal -0.000000 65.981270 53.430580
  outer loop
    vertex 31.500000 38.271957 34.460228
    vertex 47.250000 38.271957 34.460228
    vertex 31.500000 41.664375 30.270941
  endloop
endfacet
facet normal 0.000000 65.981270 53.430580
  outer loop
    vertex 47.250000 38.271957 34.460228
    vertex 47.250000 41.664375 30.270941
    vertex 31.500000 41.664375 30.270941
  endloop
endfacet
facet normal -0.000000 65.981270 53.430580
  outer loop
    vertex 47.250000 38.271957 34.460228
    vertex 63.000000 38.271957 34.460228
    vertex 47.250000 41.664375 30.270941
  endloop
endfacet
facet normal 0.000000 65.981270 53.430580
  outer loop
    vertex 63.000000 38.271957 34.460228
    vertex 63.000000 41.664375 30.270941
    vertex 47.250000 41.664375 30.270941
  endloop
endfacet
facet normal -0.000000 60.034737 60.034737
  outer loop
    vertex 0.000000 34.460228 38.271957
    vertex 15.750000 34.460228 38.271957
    vertex 0.000000 38.271957 34.460228
  endloop
endfacet
facet normal 0.000000 60.034737 60.034737
  outer loop
    vertex 15.750000 34.460228 38.271957
    vertex 15.750000 38.271957 34.460228
    vertex 0.000000 38.271957 34.460228
  endloop
endfacet
facet normal -0.000000 60.034737 60.034737
  outer loop
    vertex 15.750000 34.460228 38.271957
    vertex 31.500000 34.460228 38.271957
    vertex 15.750000 38.271957 34.460228
  endloop
endfacet
facet normal 0.000000 60.034737 60.034737
  outer loop
    vertex 31.500000 34.460228 38.271957
    vertex 31.500000 38.271957 34.460228
    vertex 15.750000 38.271957 34.460228
  endloop
endfacet
facet normal -0.000000 60.034737 60.034737
  outer loop
    vertex 31.500000 34.460228 38.271957
    vertex 47.250000 34.460228 38.271957
    vertex 31.500000 38.271957 34.460228
  endloop
endfacet
facet normal 0.000000 60.034737 60.034737
  outer loop
    vertex 47.250000 34.460228 38.271957
    vertex 47.250000 38.271957 34.460228
    vertex 31.500000 38.271957 34.460228
  endloop
endfacet
facet normal -0.000000 60.034737 60.034737
  outer loop
    vertex 47.250000 34.460228 38.271957
    vertex 63.000000 34.460228 38.271957
    vertex 47.250000 38.271957 34.460228
  endloop
endfacet
facet normal 0.000000 60.034737 60.034737
  outer loop
    vertex 63.000000 34.460228 38.271957
    vertex 63.000000 38.271957 34.460228
    vertex 47.250000 38.271957 34.460228
  endloop
endfacet
facet normal -0.000000 53.430580 65.981270
  outer loop
    vertex 0.000000 30.270941 41.664375
    vertex 15.750000 30.270941 41.664375
    vertex 0.000000 34.460228 38.271957
  endloop
endfacet
facet normal 0.000000 53.430580 65.981270
  outer loop
    vertex 15.750000 30.270941 41.664375
    vertex 15.750000 34.460228 38.271957
    vertex 0.000000 34.460228 38.271957
  endloop
endfacet
facet normal -0.000000 53.430580 65.981270
  outer loop
    vertex 15.750000 30.270941 41.664375
    vertex 31.500000 30.270941 41.664375
    vertex 15.750000 34.460228 38.271957
  endloop
endfacet
facet normal 0.000000 53.430580 65.981270
  outer loop
    vertex 31.500000 30.270941 41.664375
    vertex 31.500000 34.460228 38.271957
    vertex 15.750000 34.460228 38.271957
  endloop
endfacet
facet normal -0.000000 53.430580 65.981270
  outer loop
    vertex 31.500000 30.270941 41.664375
    vertex 47.250000 30.270941 41.664375
    vertex 31.500000 34.460228 38.271957
  endloop
endfacet
facet normal 0.000000 53.430580 65.981270
  outer loop
    vertex 47.250000 30.270941 41.664375
    vertex 47.250000 34.460228 38.271957
    vertex 31.500000 34.460228 38.271957
  endloop
endfacet
facet normal -0.000000 53.430580 65.981270
  outer loop
    vertex 47.250000 30.270941 41.664375
    vertex 63.000000 30.270941 41.664375
    vertex 47.250000 34.460228 38.271957
  endloop
endfacet
facet normal 0.000000 53.430580 65.981270
  outer loop
    vertex 63.000000 30.270941 41.664375
    vertex 63.000000 34.460228 38.271957
    vertex 47.250000 34.460228 38.271957
  endloop
endfacet
facet normal -0.000000 46.240932 71.204819
  outer loop
    vertex 0.000000 25.750000 44.600307
    vertex 15.750000 25.750000 44.600307
    vertex 0.000000 30.270941 41.664375
  endloop
endfacet
facet normal 0.000000 46.240932 71.204819
  outer loop
    vertex 15.750000 25.750000 44.600307
    vertex 15.750000 30.270941 41.664375
    vertex 0.000000 30.270941 41.664375
  endloop
endfacet
facet normal -0.000000 46.240932 71.204819
  outer loop
    vertex 15.750000 25.750000 44.600307
    vertex 31.500000 25.750000 44.600307
    vertex 15.750000 30.270941 41.664375
  endloop
endfacet
facet normal 0.000000 46.240932 71.204819
  outer loop
    vertex 31.500000 25.750000 44.600307
    vertex 31.500000 30.270941 41.664375
    vertex 15.750000 30.270941 41.664375
  endloop
endfacet
facet normal -0.000000 46.240932 71.204819
  outer loop
    vertex 31.500000 25.750000 44.600307
    vertex 47.250000 25.750000 44.600307
    vertex 31.500000 30.270941 41.664375
  endloop
endfacet
facet normal 0.000000 46.240932 71.204819
  outer loop
    vertex 47.250000 25.750000 44.600307
    vertex 47.250000 30.270941 41.664375
    vertex 31.500000 30.270941 41.664375
  endloop
endfacet
facet normal -0.000000 46.240932 71.204819
  outer loop
    vertex 47.250000 25.750000 44.600307
    vertex 63.000000 25.750000 44.600307
    vertex 47.250000 30.270941 41.664375
  endloop
endfacet
facet normal 0.000000 46.240932 71.204819
  outer loop
    vertex 63.000000 25.750000 44.600307
    vertex 63.000000 30.270941 41.664375
    vertex 47.250000 30.270941 41.664375
  endloop
endfacet
facet normal -0.000000 38.544735 75.648232
  outer loop
    vertex 0.000000 20.946938 47.047592
    vertex 15.750000 20.946938 47.047592
    vertex 0.000000 25.750000 44.600307
  endloop
endfacet
facet normal 0.000000 38.544735 75.648232
  outer loop
    vertex 15.750000 20.946938 47.047592
    vertex 15.750000 25.750000 44.600307
    vertex 0.000000 25.750000 44.600307
  endloop
endfacet
facet normal -0.000000 38.544735 75.648232
  outer loop
    vertex 15.750000 20.946938 47.047592
    vertex 31.500000 20.946938 47.047592
    vertex 15.750000 25.750000 44.600307
  endloop
endfacet
facet normal 0.000000 38.544735 75.648232
  outer loop
    vertex 31.500000 20.946938 47.047592
    vertex 31.500000 25.750000 44.600307
    vertex 15.750000 25.750000 44.600307
  endloop
endfacet
facet normal -0.000000 38.544735 75.648232
  outer loop
    vertex 31.500000 20.946938 47.047592
    vertex 47.250000 20.946938 47.047592
    vertex 31.500000 25.750000 44.600307
  endloop
endfacet
facet normal 0.000000 38.544735 75.648232
  outer loop
    vertex 47.250000 20.946938 47.047592
    vertex 47.250000 25.750000 44.600307
    vertex 31.500000 25.750000 44.600307
  endloop
endfacet
facet normal -0.000000 38.544735 75.648232
  outer loop
    vertex 47.250000 20.946938 47.047592
    vertex 63.000000 20.946938 47.047592
    vertex 47.250000 25.750000 44.600307
  endloop
endfacet
facet normal 0.000000 38.544735 75.648232
  outer loop
    vertex 63.000000 20.946938 47.047592
    vertex 63.000000 25.750000 44.600307
    vertex 47.250000 25.750000 44.600307
  endloop
endfacet
facet normal -0.000000 30.426163 79.262856
  outer loop
    vertex 0.000000 15.914375 48.979412
    vertex 15.750000 15.914375 48.979412
    vertex 0.000000 20.946938 47.047592
  endloop
endfacet
facet normal 0.000000 30.426163 79.262856
  outer loop
    vertex 15.750000 15.914375 48.979412
    vertex 15.750000 20.946938 47.047592
    vertex 0.000000 20.946938 47.047592
  endloop
endfacet
facet normal -0.000000 30.426163 79.262856
  outer loop
    vertex 15.750000 15.914375 48.979412
    vertex 31.500000 15.914375 48.979412
    vertex 15.750000 20.946938 47.047592
  endloop
endfacet
facet normal 0.000000 30.426163 79.262856
  outer loop
    vertex 31.500000 15.914375 48.979412
    vertex 31.500000 20.946938 47.047592
    vertex 15.750000 20.946938 47.047592
  endloop
endfacet
facet normal -0.000000 30.426163 79.262856
  outer loop
    vertex 31.500000 15.914375 48.979412
    vertex 47.250000 15.914375 48.979412
    vertex 31.500000 20.946938 47.047592
  endloop
endfacet
facet normal 0.000000 30.426163 79.262856
  outer loop
    vertex 47.250000 15.914375 48.979412
    vertex 47.250000 20.946938 47.047592
    vertex 31.500000 20.946938 47.047592
  endloop
endfacet
facet normal -0.000000 30.426163 79.262856
  outer loop
    vertex 47.250000 15.914375 48.979412
    vertex 63.000000 15.914375 48.979412
    vertex 47.250000 20.946938 47.047592
  endloop
endfacet
facet normal 0.000000 30.426163 79.262856
  outer loop
    vertex 63.000000 15.914375 48.979412
    vertex 63.000000 20.946938 47.047592
    vertex 47.250000 20.946938 47.047592
  endloop
endfacet
facet normal -0.000000 21.974262 82.009048
  outer loop
    vertex 0.000000 10.707452 50.374603
    vertex 15.750000 10.707452 50.374603
    vertex 0.000000 15.914375 48.979412
  endloop
endfacet
facet normal 0.000000 21.974262 82.009048
  outer loop
    vertex 15.750000 10.707452 50.374603
    vertex 15.750000 15.914375 48.979412
    vertex 0.000000 15.914375 48.979412
  endloop
endfacet
facet normal -0.000000 21.974262 82.009048
  outer loop
    vertex 15.750000 10.707452 50.374603
    vertex 31.500000 10.707452 50.374603
    vertex 15.750000 15.914375 48.979412
  endloop
endfacet
facet normal 0.000000 21.974262 82.009048
  outer loop
    vertex 31.500000 10.707452 50.374603
    vertex 31.500000 15.914375 48.979412
    vertex 15.750000 15.914375 48.979412
  endloop
endfacet
facet normal -0.000000 21.974262 82.009048
  outer loop
    vertex 31.500000 10.707452 50.374603
    vertex 47.250000 10.707452 50.374603
    vertex 31.500000 15.914375 48.979412
  endloop
endfacet
facet normal 0.000000 21.974262 82.009048
  outer loop
    vertex 47.250000 10.707452 50.374603
    vertex 47.250000 15.914375 48.979412
    vertex 31.500000 15.914375 48.979412
  endloop
endfacet
facet normal -0.000000 21.974262 82.009048
  outer loop
    vertex 47.250000 10.707452 50.374603
    vertex 63.000000 10.707452 50.374603
    vertex 47.250000 15.914375 48.979412
  endloop
endfacet
facet normal 0.000000 21.974262 82.009048
  outer loop
    vertex 63.000000 10.707452 50.374603
    vertex 63.000000 15.914375 48.979412
    vertex 47.250000 15.914375 48.979412
  endloop
endfacet
facet normal -0.000000 13.281552 83.856712
  outer loop
    vertex 0.000000 5.383216 51.217876
    vertex 15.750000 5.383216 51.217876
    vertex 0.000000 10.707452 50.374603
  endloop
endfacet
facet normal 0.000000 13.281552 83.856712
  outer loop
    vertex 15.750000 5.383216 51.217876
    vertex 15.750000 10.707452 50.374603
    vertex 0.000000 10.707452 50.374603
  endloop
endfacet
facet normal -0.000000 13.281552 83.856712
  outer loop
    vertex 15.750000 5.383216 51.217876
    vertex 31.500000 5.383216 51.217876
    vertex 15.750000 10.707452 50.374603
  endloop
endfacet
facet normal 0.000000 13.281552 83.856712
  outer loop
    vertex 31.500000 5.383216 51.217876
    vertex 31.500000 10.707452 50.374603
    vertex 15.750000 10.707452 50.374603
  endloop
endfacet
facet normal -0.000000 13.281552 83.856712
  outer loop
    vertex 31.500000 5.383216 51.217876
    vertex 47.250000 5.383216 51.217876
    vertex 31.500000 10.707452 50.374603
  endloop
endfacet
facet normal 0.000000 13.281552 83.856712
  outer loop
    vertex 47.250000 5.383216 51.217876
    vertex 47.250000 10.707452 50.374603
    vertex 31.500000 10.707452 50.374603
  endloop
endfacet
facet normal -0.000000 13.281552 83.856712
  outer loop
    vertex 47.250000 5.383216 51.217876
    vertex 63.000000 5.383216 51.217876
    vertex 47.250000 10.707452 50.374603
  endloop
endfacet
facet normal 0.000000 13.281552 83.856712
  outer loop
    vertex 63.000000 5.383216 51.217876
    vertex 63.000000 10.707452 50.374603
    vertex 47.250000 10.707452 50.374603
  endloop
endfacet
facet normal -0.000000 4.443446 84.785652
  outer loop
    vertex 0.000000 0.000000 51.500000
    vertex 15.750000 0.000000 51.500000
    vertex 0.000000 5.383216 51.217876
  endloop
endfacet
facet normal 0.000000 4.443446 84.785652
  outer loop
    vertex 15.750000 0.000000 51.500000
    vertex 15.750000 5.383216 51.217876
    vertex 0.000000 5.383216 51.217876
  endloop
endfacet
facet normal -0.000000 4.443446 84.785652
  outer loop
    vertex 15.750000 0.000000 51.500000
    vertex 31.500000 0.000000 51.500000
    vertex 15.750000 5.383216 51.217876
  endloop
endfacet
facet normal 0.000000 4.443446 84.785652
  outer loop
    vertex 31.500000 0.000000 51.500000
    vertex 31.500000 5.383216 51.217876
    vertex 15.750000 5.383216 51.217876
  endloop
endfacet
facet normal -0.000000 4.443446 84.785652
  outer loop
    vertex 31.500000 0.000000 51.500000
    vertex 47.250000 0.000000 51.500000
    vertex 31.500000 5.383216 51.217876
  endloop
endfacet
facet normal 0.000000 4.443446 84.785652
  outer loop
    vertex 47.250000 0.000000 51.500000
    vertex 47.250000 5.383216 51.217876
    vertex 31.500000 5.383216 51.217876
  endloop
endfacet
facet normal -0.000000 4.443446 84.785652
  outer loop
    vertex 47.250000 0.000000 51.500000
    vertex 63.000000 0.000000 51.500000
    vertex 47.250000 5.383216 51.217876
  endloop
endfacet
facet normal 0.000000 4.443446 84.785652
  outer loop
    vertex 63.000000 0.000000 51.500000
    vertex 63.000000 5.383216 51.217876
    vertex 47.250000 5.383216 51.217876
  endloop
endfacet
facet normal 0.000000 -4.443446 84.785652
  outer loop
    vertex 0.000000 -5.383216 51.217876
    vertex 15.750000 -5.383216 51.217876
    vertex 0.000000 0.000000 51.500000
  endloop
endfacet
facet normal 0.000000 -4.443446 84.785652
  outer loop
    vertex 15.750000 -5.383216 51.217876
    vertex 15.750000 0.000000 51.500000
    vertex 0.000000 0.000000 51.500000
  endloop
endfacet
facet normal 0.000000 -4.443446 84.785652
  outer loop
    vertex 15.750000 -5.383216 51.217876
    vertex 31.500000 -5.383216 51.217876
    vertex 15.750000 0.000000 51.500000
  endloop
endfacet
facet normal 0.000000 -4.443446 84.785652
  outer loop
    vertex 31.500000 -5.383216 51.217876
    vertex 31.500000 0.000000 51.500000
    vertex 15.750000 0.000000 51.500000
  endloop
endfacet
facet normal 0.000000 -4.443446 84.785652
  outer loop
    vertex 31.500000 -5.383216 51.217876
    vertex 47.250000 -5.383216 51.217876
    vertex 31.500000 0.000000 51.500000
  endloop
endfacet
facet normal 0.000000 -4.443446 84.785652
  outer loop
    vertex 47.250000 -5.383216 51.217876
    vertex 47.250000 0.000000 51.500000
    vertex 31.500000 0.000000 51.500000
  endloop
endfacet
facet normal 0.000000 -4.443446 84.785652
  outer loop
    vertex 47.250000 -5.383216 51.217876
    vertex 63.000000 -5.383216 51.217876
    vertex 47.250000 0.000000 51.500000
  endloop
endfacet
facet normal 0.000000 -4.443446 84.785652
  outer loop
    vertex 63.000000 -5.383216 51.217876
    vertex 63.000000 0.000000 51.500000
    vertex 47.250000 0.000000 51.500000
  endloop
endfacet
facet normal 0.000000 -13.281552 83.856712
  outer loop
    vertex 0.000000 -10.707452 50.374603
    vertex 15.750000 -10.707452 50.374603
    vertex 0.000000 -5.383216 51.217876
  endloop
endfacet
facet normal 0.000000 -13.281552 83.856712
  outer loop
    vertex 15.750000 -10.707452 50.374603
    vertex 15.750000 -5.383216 51.217876
    vertex 0.000000 -5.383216 51.217876
  endloop
endfacet
facet normal 0.000000 -13.281552 83.856712
  outer loop
    vertex 15.750000 -10.707452 50.374603
    vertex 31.500000 -10.707452 50.374603
    vertex 15.750000 -5.383216 51.217876
  endloop
endfacet
facet normal 0.000000 -13.281552 83.856712
  outer loop
    vertex 31.500000 -10.707452 50.374603
    vertex 31.500000 -5.383216 51.217876
    vertex 15.750000 -5.383216 51.217876
  endloop
endfacet
facet normal 0.000000 -13.281552 83.856712
  outer loop
    vertex 31.500000 -10.707452 50.374603
    vertex 47.250000 -10.707452 50.374603
    vertex 31.500000 -5.383216 51.217876
  endloop
endfacet
facet normal 0.000000 -13.281552 83.856712
  outer loop
    vertex 47.250000 -10.707452 50.374603
    vertex 47.250000 -5.383216 51.217876
    vertex 31.500000 -5.383216 51.217876
  endloop
endfacet
facet normal 0.000000 -13.281552 83.856712
  outer loop
    vertex 47.250000 -10.707452 50.374603
    vertex 63.000000 -10.707452 50.374603
    vertex 47.250000 -5.383216 51.217876
  endloop
endfacet
facet normal 0.000000 -13.281552 83.856712
  outer loop
    vertex 63.000000 -10.707452 50.374603
    vertex 63.000000 -5.383216 51.217876
    vertex 47.250000 -5.383216 51.217876
  endloop
endfacet
facet normal 0.000000 -21.974262 82.009048
  outer loop
    vertex 0.000000 -15.914375 48.979412
    vertex 15.750000 -15.914375 48.979412
    vertex 0.000000 -10.707452 50.374603
  endloop
endfacet
facet normal 0.000000 -21.974262 82.009048
  outer loop
    vertex 15.750000 -15.914375 48.979412
    vertex 15.750000 -10.707452 50.374603
    vertex 0.000000 -10.707452 50.374603
  endloop
endfacet
facet normal 0.000000 -21.974262 82.009048
  outer loop
    vertex 15.750000 -15.914375 48.979412
    vertex 31.500000 -15.914375 48.979412
    vertex 15.750000 -10.707452 50.374603
  endloop
endfacet
facet normal 0.000000 -21.974262 82.009048
  outer loop
    vertex 31.500000 -15.914375 48.979412
    vertex 31.500000 -10.707452 50.374603
    vertex 15.750000 -10.707452 50.374603
  endloop
endfacet
facet normal 0.000000 -21.974262 82.009048
  outer loop
    vertex 31.500000 -15.914375 48.979412
    vertex 47.250000 -15.914375 48.979412
    vertex 31.500000 -10.707452 50.374603
  endloop
endfacet
facet normal 0.000000 -21.974262 82.009048
  outer loop
    vertex 47.250000 -15.914375 48.979412
    vertex 47.250000 -10.707452 50.374603
    vertex 31.500000 -10.707452 50.374603
  endloop
endfacet
facet normal 0.000000 -21.974262 82.009048
  outer loop
    vertex 47.250000 -15.914375 48.979412
    vertex 63.000000 -15.914375 48.979412
    vertex 47.250000 -10.707452 50.374603
  endloop
endfacet
facet normal 0.000000 -21.974262 82.009048
  outer loop
    vertex 63.000000 -15.914375 48.979412
    vertex 63.000000 -10.707452 50.374603
    vertex 47.250000 -10.707452 50.374603
  endloop
endfacet
facet normal 0.000000 -30.426163 79.262856
  outer loop
    vertex 0.000000 -20.946938 47.047592
    vertex 15.750000 -20.946938 47.047592
    vertex 0.000000 -15.914375 48.979412
  endloop
endfacet
facet normal 0.000000 -30.426163 79.262856
  outer loop
    vertex 15.750000 -20.946938 47.047592
    vertex 15.750000 -15.914375 48.979412
    vertex 0.000000 -15.914375 48.979412
  endloop
endfacet
facet normal 0.000000 -30.426163 79.262856
  outer loop
    vertex 15.750000 -20.946938 47.047592
    vertex 31.500000 -20.946938 47.047592
    vertex 15.750000 -15.914375 48.979412
  endloop
endfacet
facet normal 0.000000 -30.426163 79.262856
  outer loop
    vertex 31.500000 -20.946938 47.047592
    vertex 31.500000 -15.914375 48.979412
    vertex 15.750000 -15.914375 48.979412
  endloop
endfacet
facet normal 0.000000 -30.426163 79.262856
  outer loop
    vertex 31.500000 -20.946938 47.047592
    vertex 47.250000 -20.946938 47.047592
    vertex 31.500000 -15.914375 48.979412
  endloop
endfacet
facet normal 0.000000 -30.426163 79.262856
  outer loop
    vertex 47.250000 -20.946938 47.047592
    vertex 47.250000 -15.914375 48.979412
    vertex 31.500000 -15.914375 48.979412
  endloop
endfacet
facet normal 0.000000 -30.426163 79.262856
  outer loop
    vertex 47.250000 -20.946938 47.047592
    vertex 63.000000 -20.946938 47.047592
    vertex 47.250000 -15.914375 48.979412
  endloop
endfacet
facet normal 0.000000 -30.426163 79.262856
  outer loop
    vertex 63.000000 -20.946938 47.047592
    vertex 63.000000 -15.914375 48.979412
    vertex 47.250000 -15.914375 48.979412
  endloop
endfacet
facet normal 0.000000 -38.544735 75.648232
  outer loop
    vertex 0.000000 -25.750000 44.600307
    vertex 15.750000 -25.750000 44.600307
    vertex 0.000000 -20.946938 47.047592
  endloop
endfacet
facet normal 0.000000 -38.544735 75.648232
  outer loop
    vertex 15.750000 -25.750000 44.600307
    vertex 15.750000 -20.946938 47.047592
    vertex 0.000000 -20.946938 47.047592
  endloop
endfacet
facet normal 0.000000 -38.544735 75.648232
  outer loop
    vertex 15.750000 -25.750000 44.600307
    vertex 31.500000 -25.750000 44.600307
    vertex 15.750000 -20.946938 47.047592
  endloop
endfacet
facet normal 0.000000 -38.544735 75.648232
  outer loop
    vertex 31.500000 -25.750000 44.600307
    vertex 31.500000 -20.946938 47.047592
    vertex 15.750000 -20.946938 47.047592
  endloop
endfacet
facet normal 0.000000 -38.544735 75.648232
  outer loop
    vertex 31.500000 -25.750000 44.600307
    vertex 47.250000 -25.750000 44.600307
    vertex 31.500000 -20.946938 47.047592
  endloop
endfacet
facet normal 0.000000 -38.544735 75.648232
  outer loop
    vertex 47.250000 -25.750000 44.600307
    vertex 47.250000 -20.946938 47.047592
    vertex 31.500000 -20.946938 47.047592
  endloop
endfacet
facet normal 0.000000 -38.544735 75.648232
  outer loop
    vertex 47.250000 -25.750000 44.600307
    vertex 63.000000 -25.750000 44.600307
    vertex 47.250000 -20.946938 47.047592
  endloop
endfacet
facet normal 0.000000 -38.544735 75.648232
  outer loop
    vertex 63.000000 -25.750000 44.600307
    vertex 63.000000 -20.946938 47.047592
    vertex 47.250000 -20.946938 47.047592
  endloop
endfacet
facet normal 0.000000 -46.240932 71.204819
  outer loop
    vertex 0.000000 -30.270941 41.664375
    vertex 15.750000 -30.270941 41.664375
    vertex 0.000000 -25.750000 44.600307
  endloop
endfacet
facet normal 0.000000 -46.240932 71.204819
  outer loop
    vertex 15.750000 -30.270941 41.664375
    vertex 15.750000 -25.750000 44.600307
    vertex 0.000000 -25.750000 44.600307
  endloop
endfacet
facet normal 0.000000 -46.240932 71.204819
  outer loop
    vertex 15.750000 -30.270941 41.664375
    vertex 31.500000 -30.270941 41.664375
    vertex 15.750000 -25.750000 44.600307
  endloop
endfacet
facet normal 0.000000 -46.240932 71.204819
  outer loop
    vertex 31.500000 -30.270941 41.664375
    vertex 31.500000 -25.750000 44.600307
    vertex 15.750000 -25.750000 44.600307
  endloop
endfacet
facet normal 0.000000 -46.240932 71.204819
  outer loop
    vertex 31.500000 -30.270941 41.664375
    vertex 47.250000 -30.270941 41.664375
    vertex 31.500000 -25.750000 44.600307
  endloop
endfacet
facet normal 0.000000 -46.240932 71.204819
  outer loop
    vertex 47.250000 -30.270941 41.664375
    vertex 47.250000 -25.750000 44.600307
    vertex 31.500000 -25.750000 44.600307
  endloop
endfacet
facet normal 0.000000 -46.240932 71.204819
  outer loop
    vertex 47.250000 -30.270941 41.664375
    vertex 63.000000 -30.270941 41.664375
    vertex 47.250000 -25.750000 44.600307
  endloop
endfacet
facet normal 0.000000 -46.240932 71.204819
  outer loop
    vertex 63.000000 -30.270941 41.664375
    vertex 63.000000 -25.750000 44.600307
    vertex 47.250000 -25.750000 44.600307
  endloop
endfacet
facet normal 0.000000 -53.430580 65.981270
  outer loop
    vertex 0.000000 -34.460228 38.271957
    vertex 15.750000 -34.460228 38.271957
    vertex 0.000000 -30.270941 41.664375
  endloop
endfacet
facet normal 0.000000 -53.430580 65.981270
  outer loop
    vertex 15.750000 -34.460228 38.271957
    vertex 15.750000 -30.270941 41.664375
    vertex 0.000000 -30.270941 41.664375
  endloop
endfacet
facet normal 0.000000 -53.430580 65.981270
  outer loop
    vertex 15.750000 -34.460228 38.271957
    vertex 31.500000 -34.460228 38.271957
    vertex 15.750000 -30.270941 41.664375
  endloop
endfacet
facet normal 0.000000 -53.430580 65.981270
  outer loop
    vertex 31.500000 -34.460228 38.271957
    vertex 31.500000 -30.270941 41.664375
    vertex 15.750000 -30.270941 41.664375
  endloop
endfacet
facet normal 0.000000 -53.430580 65.981270
  outer loop
    vertex 31.500000 -34.460228 38.271957
    vertex 47.250000 -34.460228 38.271957
    vertex 31.500000 -30.270941 41.664375
  endloop
endfacet
facet normal 0.000000 -53.430580 65.981270
  outer loop
    vertex 47.250000 -34.460228 38.271957
    vertex 47.250000 -30.270941 41.664375
    vertex 31.500000 -30.270941 41.664375
  endloop
endfacet
facet normal 0.000000 -53.430580 65.981270
  outer loop
    vertex 47.250000 -34.460228 38.271957
    vertex 63.000000 -34.460228 38.271957
    vertex 47.250000 -30.270941 41.664375
  endloop
endfacet
facet normal 0.000000 -53.430580 65.981270
  outer loop
    vertex 63.000000 -34.460228 38.271957
    vertex 63.000000 -30.270941 41.664375
    vertex 47.250000 -30.270941 41.664375
  endloop
endfacet
facet normal 0.000000 -60.034737 60.034737
  outer loop
    vertex 0.000000 -38.271957 34.460228
    vertex 15.750000 -38.271957 34.460228
    vertex 0.000000 -34.460228 38.271957
  endloop
endfacet
facet normal 0.000000 -60.034737 60.034737
  outer loop
    vertex 15.750000 -38.271957 34.460228
    vertex 15.750000 -34.460228 38.271957
    vertex 0.000000 -34.460228 38.271957
  endloop
endfacet
facet normal 0.000000 -60.034737 60.034737
  outer loop
    vertex 15.750000 -38.271957 34.460228
    vertex 31.500000 -38.271957 34.460228
    vertex 15.750000 -34.460228 38.271957
  endloop
endfacet
facet normal 0.000000 -60.034737 60.034737
  outer loop
    vertex 31.500000 -38.271957 34.460228
    vertex 31.500000 -34.460228 38.271957
    vertex 15.750000 -34.460228 38.271957
  endloop
endfacet
facet normal 0.000000 -60.034737 60.034737
  outer loop
    vertex 31.500000 -38.271957 34.460228
    vertex 47.250000 -38.271957 34.460228
    vertex 31.500000 -34.460228 38.271957
  endloop
endfacet
facet normal 0.000000 -60.034737 60.034737
  outer loop
    vertex 47.250000 -38.271957 34.460228
    vertex 47.250000 -34.460228 38.271957
    vertex 31.500000 -34.460228 38.271957
  endloop
endfacet
facet normal 0.000000 -60.034737 60.034737
  outer loop
    vertex 47.250000 -38.271957 34.460228
    vertex 63.000000 -38.271957 34.460228
    vertex 47.250000 -34.460228 38.271957
  endloop
endfacet
facet normal 0.000000 -60.034737 60.034737
  outer loop
    vertex 63.000000 -38.271957 34.460228
    vertex 63.000000 -34.460228 38.271957
    vertex 47.250000 -34.460228 38.271957
  endloop
endfacet
facet normal 0.000000 -65.981270 53.430580
  outer loop
    vertex 0.000000 -41.664375 30.270941
    vertex 15.750000 -41.664375 30.270941
    vertex 0.000000 -38.271957 34.460228
  endloop
endfacet
facet normal 0.000000 -65.981270 53.430580
  outer loop
    vertex 15.750000 -41.664375 30.270941
    vertex 15.750000 -38.271957 34.460228
    vertex 0.000000 -38.271957 34.460228
  endloop
endfacet
facet normal 0.000000 -65.981270 53.430580
  outer loop
    vertex 15.750000 -41.664375 30.270941
    vertex 31.500000 -41.664375 30.270941
    vertex 15.750000 -38.271957 34.460228
  endloop
endfacet
facet normal 0.000000 -65.981270 53.430580
  outer loop
    vertex 31.500000 -41.664375 30.270941
    vertex 31.500000 -38.271957 34.460228
    vertex 15.750000 -38.271957 34.460228
  endloop
endfacet
facet normal 0.000000 -65.981270 53.430580
  outer loop
    vertex 31.500000 -41.664375 30.270941
    vertex 47.250000 -41.664375 30.270941
    vertex 31.500000 -38.271957 34.460228
  endloop
endfacet
facet normal 0.000000 -65.981270 53.430580
  outer loop
    vertex 47.250000 -41.664375 30.270941
    vertex 47.250000 -38.271957 34.460228
    vertex 31.500000 -38.271957 34.460228
  endloop
endfacet
facet normal 0.000000 -65.981270 53.430580
  outer loop
    vertex 47.250000 -41.664375 30.270941
    vertex 63.000000 -41.664375 30.270941
    vertex 47.250000 -38.271957 34.460228
  endloop
endfacet
facet normal 0.000000 -65.981270 53.430580
  outer loop
    vertex 63.000000 -41.664375 30.270941
    vertex 63.000000 -38.271957 34.460228
    vertex 47.250000 -38.271957 34.460228
  endloop
endfacet
facet normal 0.000000 -71.204819 46.240932
  outer loop
    vertex 0.000000 -44.600307 25.750000
    vertex 15.750000 -44.600307 25.750000
    vertex 0.000000 -41.664375 30.270941
  endloop
endfacet
facet normal 0.000000 -71.204819 46.240932
  outer loop
    vertex 15.750000 -44.600307 25.750000
    vertex 15.750000 -41.664375 30.270941
    vertex 0.000000 -41.664375 30.270941
  endloop
endfacet
facet normal 0.000000 -71.204819 46.240932
  outer loop
    vertex 15.750000 -44.600307 25.750000
    vertex 31.500000 -44.600307 25.750000
    vertex 15.750000 -41.664375 30.270941
  endloop
endfacet
facet normal 0.000000 -71.204819 46.240932
  outer loop
    vertex 31.500000 -44.600307 25.750000
    vertex 31.500000 -41.664375 30.270941
    vertex 15.750000 -41.664375 30.270941
  endloop
endfacet
facet normal 0.000000 -71.204819 46.240932
  outer loop
    vertex 31.500000 -44.600307 25.750000
    vertex 47.250000 -44.600307 25.750000
    vertex 31.500000 -41.664375 30.270941
  endloop
endfacet
facet normal 0.000000 -71.204819 46.240932
  outer loop
    vertex 47.250000 -44.600307 25.750000
    vertex 47.250000 -41.664375 30.270941
    vertex 31.500000 -41.664375 30.270941
  endloop
endfacet
facet normal 0.000000 -71.204819 46.240932
  outer loop
    vertex 47.250000 -44.600307 25.750000
    vertex 63.000000 -44.600307 25.750000
    vertex 47.250000 -41.664375 30.270941
  endloop
endfacet
facet normal 0.000000 -71.204819 46.240932
  outer loop
    vertex 63.000000 -44.600307 25.750000
    vertex 63.000000 -41.664375 30.270941
    vertex 47.250000 -41.664375 30.270941
  endloop
endfacet
facet normal 0.000000 -75.648232 38.544735
  outer loop
    vertex 0.000000 -47.047592 20.946938
    vertex 15.750000 -47.047592 20.946938
    vertex 0.000000 -44.600307 25.750000
  endloop
endfacet
facet normal 0.000000 -75.648232 38.544735
  outer loop
    vertex 15.750000 -47.047592 20.946938
    vertex 15.750000 -44.600307 25.750000
    vertex 0.000000 -44.600307 25.750000
  endloop
endfacet
facet normal 0.000000 -75.648232 38.544735
  outer loop
    vertex 15.750000 -47.047592 20.946938
    vertex 31.500000 -47.047592 20.946938
    vertex 15.750000 -44.600307 25.750000
  endloop
endfacet
facet normal 0.000000 -75.648232 38.544735
  outer loop
    vertex 31.500000 -47.047592 20.946938
    vertex 31.500000 -44.600307 25.750000
    vertex 15.750000 -44.600307 25.750000
  endloop
endfacet
facet normal 0.000000 -75.648232 38.544735
  outer loop
    vertex 31.500000 -47.047592 20.946938
    vertex 47.250000 -47.047592 20.946938
    vertex 31.500000 -44.600307 25.750000
  endloop
endfacet
facet normal 0.000000 -75.648232 38.544735
  outer loop
    vertex 47.250000 -47.047592 20.946938
    vertex 47.250000 -44.600307 25.750000
    vertex 31.500000 -44.600307 25.750000
  endloop
endfacet
facet normal 0.000000 -75.648232 38.544735
  outer loop
    vertex 47.250000 -47.047592 20.946938
    vertex 63.000000 -47.047592 20.946938
    vertex 47.250000 -44.600307 25.750000
  endloop
endfacet
facet normal 0.000000 -75.648232 38.544735
  outer loop
    vertex 63.000000 -47.047592 20.946938
    vertex 63.000000 -44.600307 25.750000
    vertex 47.250000 -44.600307 25.750000
  endloop
endfacet
facet normal 0.000000 -79.262856 30.426163
  outer loop
    vertex 0.000000 -48.979412 15.914375
    vertex 15.750000 -48.979412 15.914375
    vertex 0.000000 -47.047592 20.946938
  endloop
endfacet
facet normal 0.000000 -79.262856 30.426163
  outer loop
    vertex 15.750000 -48.979412 15.914375
    vertex 15.750000 -47.047592 20.946938
    vertex 0.000000 -47.047592 20.946938
  endloop
endfacet
facet normal 0.000000 -79.262856 30.426163
  outer loop
    vertex 15.750000 -48.979412 15.914375
    vertex 31.500000 -48.979412 15.914375
    vertex 15.750000 -47.047592 20.946938
  endloop
endfacet
facet normal 0.000000 -79.262856 30.426163
  outer loop
    vertex 31.500000 -48.979412 15.914375
    vertex 31.500000 -47.047592 20.946938
    vertex 15.750000 -47.047592 20.946938
  endloop
endfacet
facet normal 0.000000 -79.262856 30.426163
  outer loop
    vertex 31.500000 -48.979412 15.914375
    vertex 47.250000 -48.979412 15.914375
    vertex 31.500000 -47.047592 20.946938
  endloop
endfacet
facet normal 0.000000 -79.262856 30.426163
  outer loop
    vertex 47.250000 -48.979412 15.914375
    vertex 47.250000 -47.047592 20.946938
    vertex 31.500000 -47.047592 20.946938
  endloop
endfacet
facet normal 0.000000 -79.262856 30.426163
  outer loop
    vertex 47.250000 -48.979412 15.914375
    vertex 63.000000 -48.979412 15.914375
    vertex 47.250000 -47.047592 20.946938
  endloop
endfacet
facet normal 0.000000 -79.262856 30.426163
  outer loop
    vertex 63.000000 -48.979412 15.914375
    vertex 63.000000 -47.047592 20.946938
    vertex 47.250000 -47.047592 20.946938
  endloop
endfacet
facet normal 0.000000 -82.009048 21.974262
  outer loop
    vertex 0.000000 -50.374603 10.707452
    vertex 15.750000 -50.374603 10.707452
    vertex 0.000000 -48.979412 15.914375
  endloop
endfacet
facet normal 0.000000 -82.009048 21.974262
  outer loop
    vertex 15.750000 -50.374603 10.707452
    vertex 15.750000 -48.979412 15.914375
    vertex 0.000000 -48.979412 15.914375
  endloop
endfacet
facet normal 0.000000 -82.009048 21.974262
  outer loop
    vertex 15.750000 -50.374603 10.707452
    vertex 31.500000 -50.374603 10.707452
    vertex 15.750000 -48.979412 15.914375
  endloop
endfacet
facet normal 0.000000 -82.009048 21.974262
  outer loop
    vertex 31.500000 -50.374603 10.707452
    vertex 31.500000 -48.979412 15.914375
    vertex 15.750000 -48.979412 15.914375
  endloop
endfacet
facet normal 0.000000 -82.009048 21.974262
  outer loop
    vertex 31.500000 -50.374603 10.707452
    vertex 47.250000 -50.374603 10.707452
    vertex 31.500000 -48.979412 15.914375
  endloop
endfacet
facet normal 0.000000 -82.009048 21.974262
  outer loop
    vertex 47.250000 -50.374603 10.707452
    vertex 47.250000 -48.979412 15.914375
    vertex 31.500000 -48.979412 15.914375
  endloop
endfacet
facet normal 0.000000 -82.009048 21.974262
  outer loop
    vertex 47.250000 -50.374603 10.707452
    vertex 63.000000 -50.374603 10.707452
    vertex 47.250000 -48.979412 15.914375
  endloop
endfacet
facet normal 0.000000 -82.009048 21.974262
  outer loop
    vertex 63.000000 -50.374603 10.707452
    vertex 63.000000 -48.979412 15.914375
    vertex 47.250000 -48.979412 15.914375
  endloop
endfacet
facet normal 0.000000 -83.856712 13.281552
  outer loop
    vertex 0.000000 -51.217876 5.383216
    vertex 15.750000 -51.217876 5.383216
    vertex 0.000000 -50.374603 10.707452
  endloop
endfacet
facet normal 0.000000 -83.856712 13.281552
  outer loop
    vertex 15.750000 -51.217876 5.383216
    vertex 15.750000 -50.374603 10.707452
    vertex 0.000000 -50.374603 10.707452
  endloop
endfacet
facet normal 0.000000 -83.856712 13.281552
  outer loop
    vertex 15.750000 -51.217876 5.383216
    vertex 31.500000 -51.217876 5.383216
    vertex 15.750000 -50.374603 10.707452
  endloop
endfacet
facet normal 0.000000 -83.856712 13.281552
  outer loop
    vertex 31.500000 -51.217876 5.383216
    vertex 31.500000 -50.374603 10.707452
    vertex 15.750000 -50.374603 10.707452
  endloop
endfacet
facet normal 0.000000 -83.856712 13.281552
  outer loop
    vertex 31.500000 -51.217876 5.383216
    vertex 47.250000 -51.217876 5.383216
    vertex 31.500000 -50.374603 10.707452
  endloop
endfacet
facet normal 0.000000 -83.856712 13.281552
  outer loop
    vertex 47.250000 -51.217876 5.383216
    vertex 47.250000 -50.374603 10.707452
    vertex 31.500000 -50.374603 10.707452
  endloop
endfacet
facet normal 0.000000 -83.856712 13.281552
  outer loop
    vertex 47.250000 -51.217876 5.383216
    vertex 63.000000 -51.217876 5.383216
    vertex 47.250000 -50.374603 10.707452
  endloop
endfacet
facet normal 0.000000 -83.856712 13.281552
  outer loop
    vertex 63.000000 -51.217876 5.383216
    vertex 63.000000 -50.374603 10.707452
    vertex 47.250000 -50.374603 10.707452
  endloop
endfacet
facet normal 0.000000 -84.785652 4.443446
  outer loop
    vertex 0.000000 -51.500000 0.000000
    vertex 15.750000 -51.500000 0.000000
    vertex 0.000000 -51.217876 5.383216
  endloop
endfacet
facet normal 0.000000 -84.785652 4.443446
  outer loop
    vertex 15.750000 -51.500000 0.000000
    vertex 15.750000 -51.217876 5.383216
    vertex 0.000000 -51.217876 5.383216
  endloop
endfacet
facet normal 0.000000 -84.785652 4.443446
  outer loop
    vertex 15.750000 -51.500000 0.000000
    vertex 31.500000 -51.500000 0.000000
    vertex 15.750000 -51.217876 5.383216
  endloop
endfacet
facet normal 0.000000 -84.785652 4.443446
  outer loop
    vertex 31.500000 -51.500000 0.000000
    vertex 31.500000 -51.217876 5.383216
    vertex 15.750000 -51.217876 5.383216
  endloop
endfacet
facet normal 0.000000 -84.785652 4.443446
  outer loop
    vertex 31.500000 -51.500000 0.000000
    vertex 47.250000 -51.500000 0.000000
    vertex 31.500000 -51.217876 5.383216
  endloop
endfacet
facet normal 0.000000 -84.785652 4.443446
  outer loop
    vertex 47.250000 -51.500000 0.000000
    vertex 47.250000 -51.217876 5.383216
    vertex 31.500000 -51.217876 5.383216
  endloop
endfacet
facet normal 0.000000 -84.785652 4.443446
  outer loop
    vertex 47.250000 -51.500000 0.000000
    vertex 63.000000 -51.500000 0.000000
    vertex 47.250000 -51.217876 5.383216
  endloop
endfacet
facet normal 0.000000 -84.785652 4.443446
  outer loop
    vertex 63.000000 -51.500000 0.000000
    vertex 63.000000 -51.217876 5.383216
    vertex 47.250000 -51.217876 5.383216
  endloop
endfacet
facet normal 0.000000 -84.785652 -4.443446
  outer loop
    vertex 0.000000 -51.217876 -5.383216
    vertex 15.750000 -51.217876 -5.383216
    vertex 0.000000 -51.500000 0.000000
  endloop
endfacet
facet normal 0.000000 -84.785652 -4.443446
  outer loop
    vertex 15.750000 -51.217876 -5.383216
    vertex 15.750000 -51.500000 0.000000
    vertex 0.000000 -51.500000 0.000000
  endloop
endfacet
facet normal 0.000000 -84.785652 -4.443446
  outer loop
    vertex 15.750000 -51.217876 -5.383216
    vertex 31.500000 -51.217876 -5.383216
    vertex 15.750000 -51.500000 0.000000
  endloop
endfacet
facet normal 0.000000 -84.785652 -4.443446
  outer loop
    vertex 31.500000 -51.217876 -5.383216
    vertex 31.500000 -51.500000 0.000000
    vertex 15.750000 -51.500000 0.000000
  endloop
endfacet
facet normal 0.000000 -84.785652 -4.443446
  outer loop
    vertex 31.500000 -51.217876 -5.383216
    vertex 47.250000 -51.217876 -5.383216
    vertex 31.500000 -51.500000 0.000000
  endloop
endfacet
facet normal 0.000000 -84.785652 -4.443446
  outer loop
    vertex 47.250000 -51.217876 -5.383216
    vertex 47.250000 -51.500000 0.000000
    vertex 31.500000 -51.500000 0.000000
  endloop
endfacet
facet normal 0.000000 -84.785652 -4.443446
  outer loop
    vertex 47.250000 -51.217876 -5.383216
    vertex 63.000000 -51.217876 -5.383216
    vertex 47.250000 -51.500000 0.000000
  endloop
endfacet
facet normal 0.000000 -84.785652 -4.443446
  outer loop
    vertex 63.000000 -51.217876 -5.383216
    vertex 63.000000 -51.500000 0.000000
    vertex 47.250000 -51.500000 0.000000
  endloop
endfacet
facet normal 0.000000 -83.856712 -13.281552
  outer loop
    vertex 0.000000 -50.374603 -10.707452
    vertex 15.750000 -50.374603 -10.707452
    vertex 0.000000 -51.217876 -5.383216
  endloop
endfacet
facet normal 0.000000 -83.856712 -13.281552
  outer loop
    vertex 15.750000 -50.374603 -10.707452
    vertex 15.750000 -51.217876 -5.383216
    vertex 0.000000 -51.217876 -5.383216
  endloop
endfacet
facet normal 0.000000 -83.856712 -13.281552
  outer loop
    vertex 15.750000 -50.374603 -10.707452
    vertex 31.500000 -50.374603 -10.707452
    vertex 15.750000 -51.217876 -5.383216
  endloop
endfacet
facet normal 0.000000 -83.856712 -13.281552
  outer loop
    vertex 31.500000 -50.374603 -10.707452
    vertex 31.500000 -51.217876 -5.383216
    vertex 15.750000 -51.217876 -5.383216
  endloop
endfacet
facet normal 0.000000 -83.856712 -13.281552
  outer loop
    vertex 31.500000 -50.374603 -10.707452
    vertex 47.250000 -50.374603 -10.707452
    vertex 31.500000 -51.217876 -5.383216
  endloop
endfacet
facet normal 0.000000 -83.856712 -13.281552
  outer loop
    vertex 47.250000 -50.374603 -10.707452
    vertex 47.250000 -51.217876 -5.383216
    vertex 31.500000 -51.217876 -5.383216
  endloop
endfacet
facet normal 0.000000 -83.856712 -13.281552
  outer loop
    vertex 47.250000 -50.374603 -10.707452
    vertex 63.000000 -50.374603 -10.707452
    vertex 47.250000 -51.217876 -5.383216
  endloop
endfacet
facet normal 0.000000 -83.856712 -13.281552
  outer loop
    vertex 63.000000 -50.374603 -10.707452
    vertex 63.000000 -51.217876 -5.383216
    vertex 47.250000 -51.217876 -5.383216
  endloop
endfacet
facet normal 0.000000 -82.009048 -21.974262
  outer loop
    vertex 0.000000 -48.979412 -15.914375
    vertex 15.750000 -48.979412 -15.914375
    vertex 0.000000 -50.374603 -10.707452
  endloop
endfacet
facet normal 0.000000 -82.009048 -21.974262
  outer loop
    vertex 15.750000 -48.979412 -15.914375
    vertex 15.750000 -50.374603 -10.707452
    vertex 0.000000 -50.374603 -10.707452
  endloop
endfacet
facet normal 0.000000 -82.009048 -21.974262
  outer loop
    vertex 15.750000 -48.979412 -15.914375
    vertex 31.500000 -48.979412 -15.914375
    vertex 15.750000 -50.374603 -10.707452
  endloop
endfacet
facet normal 0.000000 -82.009048 -21.974262
  outer loop
    vertex 31.500000 -48.979412 -15.914375
    vertex 31.500000 -50.374603 -10.707452
    vertex 15.750000 -50.374603 -10.707452
  endloop
endfacet
facet normal 0.000000 -82.009048 -21.974262
  outer loop
    vertex 31.500000 -48.979412 -15.914375
    vertex 47.250000 -48.979412 -15.914375
    vertex 31.500000 -50.374603 -10.707452
  endloop
endfacet
facet normal 0.000000 -82.009048 -21.974262
  outer loop
    vertex 47.250000 -48.979412 -15.914375
    vertex 47.250000 -50.374603 -10.707452
    vertex 31.500000 -50.374603 -10.707452
  endloop
endfacet
facet normal 0.000000 -82.009048 -21.974262
  outer loop
    vertex 47.250000 -48.979412 -15.914375
    vertex 63.000000 -48.979412 -15.914375
    vertex 47.250000 -50.374603 -10.707452
  endloop
endfacet
facet normal 0.000000 -82.009048 -21.974262
  outer loop
    vertex 63.000000 -48.979412 -15.914375
    vertex 63.000000 -50.374603 -10.707452
    vertex 47.250000 -50.374603 -10.707452
  endloop
endfacet
facet normal 0.000000 -79.262856 -30.426163
  outer loop
    vertex 0.000000 -47.047592 -20.946938
    vertex 15.750000 -47.047592 -20.946938
    vertex 0.000000 -48.979412 -15.914375
  endloop
endfacet
facet normal 0.000000 -79.262856 -30.426163
  outer loop
    vertex 15.750000 -47.047592 -20.946938
    vertex 15.750000 -48.979412 -15.914375
    vertex 0.000000 -48.979412 -15.914375
  endloop
endfacet
facet normal 0.000000 -79.262856 -30.426163
  outer loop
    vertex 15.750000 -47.047592 -20.946938
    vertex 31.500000 -47.047592 -20.946938
    vertex 15.750000 -48.979412 -15.914375
  endloop
endfacet
facet normal 0.000000 -79.262856 -30.426163
  outer loop
    vertex 31.500000 -47.047592 -20.946938
    vertex 31.500000 -48.979412 -15.914375
    vertex 15.750000 -48.979412 -15.914375
  endloop
endfacet
facet normal 0.000000 -79.262856 -30.426163
  outer loop
    vertex 31.500000 -47.047592 -20.946938
    vertex 47.250000 -47.047592 -20.946938
    vertex 31.500000 -48.979412 -15.914375
  endloop
endfacet
facet normal 0.000000 -79.262856 -30.426163
  outer loop
    vertex 47.250000 -47.047592 -20.946938
    vertex 47.250000 -48.979412 -15.914375
    vertex 31.500000 -48.979412 -15.914375
  endloop
endfacet
facet normal 0.000000 -79.262856 -30.426163
  outer loop
    vertex 47.250000 -47.047592 -20.946938
    vertex 63.000000 -47.047592 -20.946938
    vertex 47.250000 -48.979412 -15.914375
  endloop
endfacet
facet normal 0.000000 -79.262856 -30.426163
  outer loop
    vertex 63.000000 -47.047592 -20.946938
    vertex 63.000000 -48.979412 -15.914375
    vertex 47.250000 -48.979412 -15.914375
  endloop
endfacet
facet normal 0.000000 -75.648232 -38.544735
  outer loop
    vertex 0.000000 -44.600307 -25.750000
    vertex 15.750000 -44.600307 -25.750000
    vertex 0.000000 -47.047592 -20.946938
  endloop
endfacet
facet normal 0.000000 -75.648232 -38.544735
  outer loop
    vertex 15.750000 -44.600307 -25.750000
    vertex 15.750000 -47.047592 -20.946938
    vertex 0.000000 -47.047592 -20.946938
  endloop
endfacet
facet normal 0.000000 -75.648232 -38.544735
  outer loop
    vertex 15.750000 -44.600307 -25.750000
    vertex 31.500000 -44.600307 -25.750000
    vertex 15.750000 -47.047592 -20.946938
  endloop
endfacet
facet normal 0.000000 -75.648232 -38.544735
  outer loop
    vertex 31.500000 -44.600307 -25.750000
    vertex 31.500000 -47.047592 -20.946938
    vertex 15.750000 -47.047592 -20.946938
  endloop
endfacet
facet normal 0.000000 -75.648232 -38.544735
  outer loop
    vertex 31.500000 -44.600307 -25.750000
    vertex 47.250000 -44.600307 -25.750000
    vertex 31.500000 -47.047592 -20.946938
  endloop
endfacet
facet normal 0.000000 -75.648232 -38.544735
  outer loop
    vertex 47.250000 -44.600307 -25.750000
    vertex 47.250000 -47.047592 -20.946938
    vertex 31.500000 -47.047592 -20.946938
  endloop
endfacet
facet normal 0.000000 -75.648232 -38.544735
  outer loop
    vertex 47.250000 -44.600307 -25.750000
    vertex 63.000000 -44.600307 -25.750000
    vertex 47.250000 -47.047592 -20.946938
  endloop
endfacet
facet normal 0.000000 -75.648232 -38.544735
  outer loop
    vertex 63.000000 -44.600307 -25.750000
    vertex 63.000000 -47.047592 -20.946938
    vertex 47.250000 -47.047592 -20.946938
  endloop
endfacet
facet normal 0.000000 -71.204819 -46.240932
  outer loop
    vertex 0.000000 -41.664375 -30.270941
    vertex 15.750000 -41.664375 -30.270941
    vertex 0.000000 -44.600307 -25.750000
  endloop
endfacet
facet normal 0.000000 -71.204819 -46.240932
  outer loop
    vertex 15.750000 -41.664375 -30.270941
    vertex 15.750000 -44.600307 -25.750000
    vertex 0.000000 -44.600307 -25.750000
  endloop
endfacet
facet normal 0.000000 -71.204819 -46.240932
  outer loop
    vertex 15.750000 -41.664375 -30.270941
    vertex 31.500000 -41.664375 -30.270941
    vertex 15.750000 -44.600307 -25.750000
  endloop
endfacet
facet normal 0.000000 -71.204819 -46.240932
  outer loop
    vertex 31.500000 -41.664375 -30.270941
    vertex 31.500000 -44.600307 -25.750000
    vertex 15.750000 -44.600307 -25.750000
  endloop
endfacet
facet normal 0.000000 -71.204819 -46.240932
  outer loop
    vertex 31.500000 -41.664375 -30.270941
    vertex 47.250000 -41.664375 -30.270941
    vertex 31.500000 -44.600307 -25.750000
  endloop
endfacet
facet normal 0.000000 -71.204819 -46.240932
  outer loop
    vertex 47.250000 -41.664375 -30.270941
    vertex 47.250000 -44.600307 -25.750000
    vertex 31.500000 -44.600307 -25.750000
  endloop
endfacet
facet normal 0.000000 -71.204819 -46.240932
  outer loop
    vertex 47.250000 -41.664375 -30.270941
    vertex 63.000000 -41.664375 -30.270941
    vertex 47.250000 -44.600307 -25.750000
  endloop
endfacet
facet normal 0.000000 -71.204819 -46.240932
  outer loop
    vertex 63.000000 -41.664375 -30.270941
    vertex 63.000000 -44.600307 -25.750000
    vertex 47.250000 -44.600307 -25.750000
  endloop
endfacet
facet normal 0.000000 -65.981270 -53.430580
  outer loop
    vertex 0.000000 -38.271957 -34.460228
    vertex 15.750000 -38.271957 -34.460228
    vertex 0.000000 -41.664375 -30.270941
  endloop
endfacet
facet normal 0.000000 -65.981270 -53.430580
  outer loop
    vertex 15.750000 -38.271957 -34.460228
    vertex 15.750000 -41.664375 -30.270941
    vertex 0.000000 -41.664375 -30.270941
  endloop
endfacet
facet normal 0.000000 -65.981270 -53.430580
  outer loop
    vertex 15.750000 -38.271957 -34.460228
    vertex 31.500000 -38.271957 -34.460228
    vertex 15.750000 -41.664375 -30.270941
  endloop
endfacet
facet normal 0.000000 -65.981270 -53.430580
  outer loop
    vertex 31.500000 -38.271957 -34.460228
    vertex 31.500000 -41.664375 -30.270941
    vertex 15.750000 -41.664375 -30.270941
  endloop
endfacet
facet normal 0.000000 -65.981270 -53.430580
  outer loop
    vertex 31.500000 -38.271957 -34.460228
    vertex 47.250000 -38.271957 -34.460228
    vertex 31.500000 -41.664375 -30.270941
  endloop
endfacet
facet normal 0.000000 -65.981270 -53.430580
  outer loop
    vertex 47.250000 -38.271957 -34.460228
    vertex 47.250000 -41.664375 -30.270941
    vertex 31.500000 -41.664375 -30.270941
  endloop
endfacet
facet normal 0.000000 -65.981270 -53.430580
  outer loop
    vertex 47.250000 -38.271957 -34.460228
    vertex 63.000000 -38.271957 -34.460228
    vertex 47.250000 -41.664375 -30.270941
  endloop
endfacet
facet normal 0.000000 -65.981270 -53.430580
  outer loop
    vertex 63.000000 -38.271957 -34.460228
    vertex 63.000000 -41.664375 -30.270941
    vertex 47.250000 -41.664375 -30.270941
  endloop
endfacet
facet normal 0.000000 -60.034737 -60.034737
  outer loop
    vertex 0.000000 -34.460228 -38.271957
    vertex 15.750000 -34.460228 -38.271957
    vertex 0.000000 -38.271957 -34.460228
  endloop
endfacet
facet normal 0.000000 -60.034737 -60.034737
  outer loop
    vertex 15.750000 -34.460228 -38.271957
    vertex 15.750000 -38.271957 -34.460228
    vertex 0.000000 -38.271957 -34.460228
  endloop
endfacet
facet normal 0.000000 -60.034737 -60.034737
  outer loop
    vertex 15.750000 -34.460228 -38.271957
    vertex 31.500000 -34.460228 -38.271957
    vertex 15.750000 -38.271957 -34.460228
  endloop
endfacet
facet normal 0.000000 -60.034737 -60.034737
  outer loop
    vertex 31.500000 -34.460228 -38.271957
    vertex 31.500000 -38.271957 -34.460228
    vertex 15.750000 -38.271957 -34.460228
  endloop
endfacet
facet normal 0.000000 -60.034737 -60.034737
  outer loop
    vertex 31.500000 -34.460228 -38.271957
    vertex 47.250000 -34.460228 -38.271957
    vertex 31.500000 -38.271957 -34.460228
  endloop
endfacet
facet normal 0.000000 -60.034737 -60.034737
  outer loop
    vertex 47.250000 -34.460228 -38.271957
    vertex 47.250000 -38.271957 -34.460228
    vertex 31.500000 -38.271957 -34.460228
  endloop
endfacet
facet normal 0.000000 -60.034737 -60.034737
  outer loop
    vertex 47.250000 -34.460228 -38.271957
    vertex 63.000000 -34.460228 -38.271957
    vertex 47.250000 -38.271957 -34.460228
  endloop
endfacet
facet normal 0.000000 -60.034737 -60.034737
  outer loop
    vertex 63.000000 -34.460228 -38.271957
    vertex 63.000000 -38.271957 -34.460228
    vertex 47.250000 -38.271957 -34.460228
  endloop
endfacet
facet normal 0.000000 -53.430580 -65.981270
  outer loop
    vertex 0.000000 -30.270941 -41.664375
    vertex 15.750000 -30.270941 -41.664375
    vertex 0.000000 -34.460228 -38.271957
  endloop
endfacet
facet normal 0.000000 -53.430580 -65.981270
  outer loop
    vertex 15.750000 -30.270941 -41.664375
    vertex 15.750000 -34.460228 -38.271957
    vertex 0.000000 -34.460228 -38.271957
  endloop
endfacet
facet normal 0.000000 -53.430580 -65.981270
  outer loop
    vertex 15.750000 -30.270941 -41.664375
    vertex 31.500000 -30.270941 -41.664375
    vertex 15.750000 -34.460228 -38.271957
  endloop
endfacet
facet normal 0.000000 -53.430580 -65.981270
  outer loop
    vertex 31.500000 -30.270941 -41.664375
    vertex 31.500000 -34.460228 -38.271957
    vertex 15.750000 -34.460228 -38.271957
  endloop
endfacet
facet normal 0.000000 -53.430580 -65.981270
  outer loop
    vertex 31.500000 -30.270941 -41.664375
    vertex 47.250000 -30.270941 -41.664375
    vertex 31.500000 -34.460228 -38.271957
  endloop
endfacet
facet normal 0.000000 -53.430580 -65.981270
  outer loop
    vertex 47.250000 -30.270941 -41.664375
    vertex 47.250000 -34.460228 -38.271957
    vertex 31.500000 -34.460228 -38.271957
  endloop
endfacet
facet normal 0.000000 -53.430580 -65.981270
  outer loop
    vertex 47.250000 -30.270941 -41.664375
    vertex 63.000000 -30.270941 -41.664375
    vertex 47.250000 -34.460228 -38.271957
  endloop
endfacet
facet normal 0.000000 -53.430580 -65.981270
  outer loop
    vertex 63.000000 -30.270941 -41.664375
    vertex 63.000000 -34.460228 -38.271957
    vertex 47.250000 -34.460228 -38.271957
  endloop
endfacet
facet normal 0.000000 -46.240932 -71.204819
  outer loop
    vertex 0.000000 -25.750000 -44.600307
    vertex 15.750000 -25.750000 -44.600307
    vertex 0.000000 -30.270941 -41.664375
  endloop
endfacet
facet normal 0.000000 -46.240932 -71.204819
  outer loop
    vertex 15.750000 -25.750000 -44.600307
    vertex 15.750000 -30.270941 -41.664375
    vertex 0.000000 -30.270941 -41.664375
  endloop
endfacet
facet normal 0.000000 -46.240932 -71.204819
  outer loop
    vertex 15.750000 -25.750000 -44.600307
    vertex 31.500000 -25.750000 -44.600307
    vertex 15.750000 -30.270941 -41.664375
  endloop
endfacet
facet normal 0.000000 -46.240932 -71.204819
  outer loop
    vertex 31.500000 -25.750000 -44.600307
    vertex 31.500000 -30.270941 -41.664375
    vertex 15.750000 -30.270941 -41.664375
  endloop
endfacet
facet normal 0.000000 -46.240932 -71.204819
  outer loop
    vertex 31.500000 -25.750000 -44.600307
    vertex 47.250000 -25.750000 -44.600307
    vertex 31.500000 -30.270941 -41.664375
  endloop
endfacet
facet normal 0.000000 -46.240932 -71.204819
  outer loop
    vertex 47.250000 -25.750000 -44.600307
    vertex 47.250000 -30.270941 -41.664375
    vertex 31.500000 -30.270941 -41.664375
  endloop
endfacet
facet normal 0.000000 -46.240932 -71.204819
  outer loop
    vertex 47.250000 -25.750000 -44.600307
    vertex 63.000000 -25.750000 -44.600307
    vertex 47.250000 -30.270941 -41.664375
  endloop
endfacet
facet normal 0.000000 -46.240932 -71.204819
  outer loop
    vertex 63.000000 -25.750000 -44.600307
    vertex 63.000000 -30.270941 -41.664375
    vertex 47.250000 -30.270941 -41.664375
  endloop
endfacet
facet normal 0.000000 -38.544735 -75.648232
  outer loop
    vertex 0.000000 -20.946938 -47.047592
    vertex 15.750000 -20.946938 -47.047592
    vertex 0.000000 -25.750000 -44.600307
  endloop
endfacet
facet normal 0.000000 -38.544735 -75.648232
  outer loop
    vertex 15.750000 -20.946938 -47.047592
    vertex 15.750000 -25.750000 -44.600307
    vertex 0.000000 -25.750000 -44.600307
  endloop
endfacet
facet normal 0.000000 -38.544735 -75.648232
  outer loop
    vertex 15.750000 -20.946938 -47.047592
    vertex 31.500000 -20.946938 -47.047592
    vertex 15.750000 -25.750000 -44.600307
  endloop
endfacet
facet normal 0.000000 -38.544735 -75.648232
  outer loop
    vertex 31.500000 -20.946938 -47.047592
    vertex 31.500000 -25.750000 -44.600307
    vertex 15.750000 -25.750000 -44.600307
  endloop
endfacet
facet normal 0.000000 -38.544735 -75.648232
  outer loop
    vertex 31.500000 -20.946938 -47.047592
    vertex 47.250000 -20.946938 -47.047592
    vertex 31.500000 -25.750000 -44.600307
  endloop
endfacet
facet normal 0.000000 -38.544735 -75.648232
  outer loop
    vertex 47.250000 -20.946938 -47.047592
    vertex 47.250000 -25.750000 -44.600307
    vertex 31.500000 -25.750000 -44.600307
  endloop
endfacet
facet normal 0.000000 -38.544735 -75.648232
  outer loop
    vertex 47.250000 -20.946938 -47.047592
    vertex 63.000000 -20.946938 -47.047592
    vertex 47.250000 -25.750000 -44.600307
  endloop
endfacet
facet normal 0.000000 -38.544735 -75.648232
  outer loop
    vertex 63.000000 -20.946938 -47.047592
    vertex 63.000000 -25.750000 -44.600307
    vertex 47.250000 -25.750000 -44.600307
  endloop
endfacet
facet normal 0.000000 -30.426163 -79.262856
  outer loop
    vertex 0.000000 -15.914375 -48.979412
    vertex 15.750000 -15.914375 -48.979412
    vertex 0.000000 -20.946938 -47.047592
  endloop
endfacet
facet normal 0.000000 -30.426163 -79.262856
  outer loop
    vertex 15.750000 -15.914375 -48.979412
    vertex 15.750000 -20.946938 -47.047592
    vertex 0.000000 -20.946938 -47.047592
  endloop
endfacet
facet normal 0.000000 -30.426163 -79.262856
  outer loop
    vertex 15.750000 -15.914375 -48.979412
    vertex 31.500000 -15.914375 -48.979412
    vertex 15.750000 -20.946938 -47.047592
  endloop
endfacet
facet normal 0.000000 -30.426163 -79.262856
  outer loop
    vertex 31.500000 -15.914375 -48.979412
    vertex 31.500000 -20.946938 -47.047592
    vertex 15.750000 -20.946938 -47.047592
  endloop
endfacet
facet normal 0.000000 -30.426163 -79.262856
  outer loop
    vertex 31.500000 -15.914375 -48.979412
    vertex 47.250000 -15.914375 -48.979412
    vertex 31.500000 -20.946938 -47.047592
  endloop
endfacet
facet normal 0.000000 -30.426163 -79.262856
  outer loop
    vertex 47.250000 -15.914375 -48.979412
    vertex 47.250000 -20.946938 -47.047592
    vertex 31.500000 -20.946938 -47.047592
  endloop
endfacet
facet normal 0.000000 -30.426163 -79.262856
  outer loop
    vertex 47.250000 -15.914375 -48.979412
    vertex 63.000000 -15.914375 -48.979412
    vertex 47.250000 -20.946938 -47.047592
  endloop
endfacet
facet normal 0.000000 -30.426163 -79.262856
  outer loop
    vertex 63.000000 -15.914375 -48.979412
    vertex 63.000000 -20.946938 -47.047592
    vertex 47.250000 -20.946938 -47.047592
  endloop
endfacet
facet normal 0.000000 -21.974262 -82.009048
  outer loop
    vertex 0.000000 -10.707452 -50.374603
    vertex 15.750000 -10.707452 -50.374603
    vertex 0.000000 -15.914375 -48.979412
  endloop
endfacet
facet normal 0.000000 -21.974262 -82.009048
  outer loop
    vertex 15.750000 -10.707452 -50.374603
    vertex 15.750000 -15.914375 -48.979412
    vertex 0.000000 -15.914375 -48.979412
  endloop
endfacet
facet normal 0.000000 -21.974262 -82.009048
  outer loop
    vertex 15.750000 -10.707452 -50.374603
    vertex 31.500000 -10.707452 -50.374603
    vertex 15.750000 -15.914375 -48.979412
  endloop
endfacet
facet normal 0.000000 -21.974262 -82.009048
  outer loop
    vertex 31.500000 -10.707452 -50.374603
    vertex 31.500000 -15.914375 -48.979412
    vertex 15.750000 -15.914375 -48.979412
  endloop
endfacet
facet normal 0.000000 -21.974262 -82.009048
  outer loop
    vertex 31.500000 -10.707452 -50.374603
    vertex 47.250000 -10.707452 -50.374603
    vertex 31.500000 -15.914375 -48.979412
  endloop
endfacet
facet normal 0.000000 -21.974262 -82.009048
  outer loop
    vertex 47.250000 -10.707452 -50.374603
    vertex 47.250000 -15.914375 -48.979412
    vertex 31.500000 -15.914375 -48.979412
  endloop
endfacet
facet normal 0.000000 -21.974262 -82.009048
  outer loop
    vertex 47.250000 -10.707452 -50.374603
    vertex 63.000000 -10.707452 -50.374603
    vertex 47.250000 -15.914375 -48.979412
  endloop
endfacet
facet normal 0.000000 -21.974262 -82.009048
  outer loop
    vertex 63.000000 -10.707452 -50.374603
    vertex 63.000000 -15.914375 -48.979412
    vertex 47.250000 -15.914375 -48.979412
  endloop
endfacet
facet normal 0.000000 -13.281552 -83.856712
  outer loop
    vertex 0.000000 -5.383216 -51.217876
    vertex 15.750000 -5.383216 -51.217876
    vertex 0.000000 -10.707452 -50.374603
  endloop
endfacet
facet normal 0.000000 -13.281552 -83.856712
  outer loop
    vertex 15.750000 -5.383216 -51.217876
    vertex 15.750000 -10.707452 -50.374603
    vertex 0.000000 -10.707452 -50.374603
  endloop
endfacet
facet normal 0.000000 -13.281552 -83.856712
  outer loop
    vertex 15.750000 -5.383216 -51.217876
    vertex 31.500000 -5.383216 -51.217876
    vertex 15.750000 -10.707452 -50.374603
  endloop
endfacet
facet normal 0.000000 -13.281552 -83.856712
  outer loop
    vertex 31.500000 -5.383216 -51.217876
    vertex 31.500000 -10.707452 -50.374603
    vertex 15.750000 -10.707452 -50.374603
  endloop
endfacet
facet normal 0.000000 -13.281552 -83.856712
  outer loop
    vertex 31.500000 -5.383216 -51.217876
    vertex 47.250000 -5.383216 -51.217876
    vertex 31.500000 -10.707452 -50.374603
  endloop
endfacet
facet normal 0.000000 -13.281552 -83.856712
  outer loop
    vertex 47.250000 -5.383216 -51.217876
    vertex 47.250000 -10.707452 -50.374603
    vertex 31.500000 -10.707452 -50.374603
  endloop
endfacet
facet normal 0.000000 -13.281552 -83.856712
  outer loop
    vertex 47.250000 -5.383216 -51.217876
    vertex 63.000000 -5.383216 -51.217876
    vertex 47.250000 -10.707452 -50.374603
  endloop
endfacet
facet normal 0.000000 -13.281552 -83.856712
  outer loop
    vertex 63.000000 -5.383216 -51.217876
    vertex 63.000000 -10.707452 -50.374603
    vertex 47.250000 -10.707452 -50.374603
  endloop
endfacet
facet normal 0.000000 -4.443446 -84.785652
  outer loop
    vertex 0.000000 -0.000000 -51.500000
    vertex 15.750000 -0.000000 -51.500000
    vertex 0.000000 -5.383216 -51.217876
  endloop
endfacet
facet normal 0.000000 -4.443446 -84.785652
  outer loop
    vertex 15.750000 -0.000000 -51.500000
    vertex 15.750000 -5.383216 -51.217876
    vertex 0.000000 -5.383216 -51.217876
  endloop
endfacet
facet normal 0.000000 -4.443446 -84.785652
  outer loop
    vertex 15.750000 -0.000000 -51.500000
    vertex 31.500000 -0.000000 -51.500000
    vertex 15.750000 -5.383216 -51.217876
  endloop
endfacet
facet normal 0.000000 -4.443446 -84.785652
  outer loop
    vertex 31.500000 -0.000000 -51.500000
    vertex 31.500000 -5.383216 -51.217876
    vertex 15.750000 -5.383216 -51.217876
  endloop
endfacet
facet normal 0.000000 -4.443446 -84.785652
  outer loop
    vertex 31.500000 -0.000000 -51.500000
    vertex 47.250000 -0.000000 -51.500000
    vertex 31.500000 -5.383216 -51.217876
  endloop
endfacet
facet normal 0.000000 -4.443446 -84.785652
  outer loop
    vertex 47.250000 -0.000000 -51.500000
    vertex 47.250000 -5.383216 -51.217876
    vertex 31.500000 -5.383216 -51.217876
  endloop
endfacet
facet normal 0.000000 -4.443446 -84.785652
  outer loop
    vertex 47.250000 -0.000000 -51.500000
    vertex 63.000000 -0.000000 -51.500000
    vertex 47.250000 -5.383216 -51.217876
  endloop
endfacet
facet normal 0.000000 -4.443446 -84.785652
  outer loop
    vertex 63.000000 -0.000000 -51.500000
    vertex 63.000000 -5.383216 -51.217876
    vertex 47.250000 -5.383216 -51.217876
  endloop
endfacet
facet normal 0.000000 4.443446 -84.785652
  outer loop
    vertex 0.000000 5.383216 -51.217876
    vertex 15.750000 5.383216 -51.217876
    vertex 0.000000 -0.000000 -51.500000
  endloop
endfacet
facet normal 0.000000 4.443446 -84.785652
  outer loop
    vertex 15.750000 5.383216 -51.217876
    vertex 15.750000 -0.000000 -51.500000
    vertex 0.000000 -0.000000 -51.500000
  endloop
endfacet
facet normal 0.000000 4.443446 -84.785652
  outer loop
    vertex 15.750000 5.383216 -51.217876
    vertex 31.500000 5.383216 -51.217876
    vertex 15.750000 -0.000000 -51.500000
  endloop
endfacet
facet normal 0.000000 4.443446 -84.785652
  outer loop
    vertex 31.500000 5.383216 -51.217876
    vertex 31.500000 -0.000000 -51.500000
    vertex 15.750000 -0.000000 -51.500000
  endloop
endfacet
facet normal 0.000000 4.443446 -84.785652
  outer loop
    vertex 31.500000 5.383216 -51.217876
    vertex 47.250000 5.383216 -51.217876
    vertex 31.500000 -0.000000 -51.500000
  endloop
endfacet
facet normal 0.000000 4.443446 -84.785652
  outer loop
    vertex 47.250000 5.383216 -51.217876
    vertex 47.250000 -0.000000 -51.500000
    vertex 31.500000 -0.000000 -51.500000
  endloop
endfacet
facet normal 0.000000 4.443446 -84.785652
  outer loop
    vertex 47.250000 5.383216 -51.217876
    vertex 63.000000 5.383216 -51.217876
    vertex 47.250000 -0.000000 -51.500000
  endloop
endfacet
facet normal 0.000000 4.443446 -84.785652
  outer loop
    vertex 63.000000 5.383216 -51.217876
    vertex 63.000000 -0.000000 -51.500000
    vertex 47.250000 -0.000000 -51.500000
  endloop
endfacet
facet normal 0.000000 13.281552 -83.856712
  outer loop
    vertex 0.000000 10.707452 -50.374603
    vertex 15.750000 10.707452 -50.374603
    vertex 0.000000 5.383216 -51.217876
  endloop
endfacet
facet normal 0.000000 13.281552 -83.856712
  outer loop
    vertex 15.750000 10.707452 -50.374603
    vertex 15.750000 5.383216 -51.217876
    vertex 0.000000 5.383216 -51.217876
  endloop
endfacet
facet normal 0.000000 13.281552 -83.856712
  outer loop
    vertex 15.750000 10.707452 -50.374603
    vertex 31.500000 10.707452 -50.374603
    vertex 15.750000 5.383216 -51.217876
  endloop
endfacet
facet normal 0.000000 13.281552 -83.856712
  outer loop
    vertex 31.500000 10.707452 -50.374603
    vertex 31.500000 5.383216 -51.217876
    vertex 15.750000 5.383216 -51.217876
  endloop
endfacet
facet normal 0.000000 13.281552 -83.856712
  outer loop
    vertex 31.500000 10.707452 -50.374603
    vertex 47.250000 10.707452 -50.374603
    vertex 31.500000 5.383216 -51.217876
  endloop
endfacet
facet normal 0.000000 13.281552 -83.856712
  outer loop
    vertex 47.250000 10.707452 -50.374603
    vertex 47.250000 5.383216 -51.217876
    vertex 31.500000 5.383216 -51.217876
  endloop
endfacet
facet normal 0.000000 13.281552 -83.856712
  outer loop
    vertex 47.250000 10.707452 -50.374603
    vertex 63.000000 10.707452 -50.374603
    vertex 47.250000 5.383216 -51.217876
  endloop
endfacet
facet normal 0.000000 13.281552 -83.856712
  outer loop
    vertex 63.000000 10.707452 -50.374603
    vertex 63.000000 5.383216 -51.217876
    vertex 47.250000 5.383216 -51.217876
  endloop
endfacet
facet normal 0.000000 21.974262 -82.009048
  outer loop
    vertex 0.000000 15.914375 -48.979412
    vertex 15.750000 15.914375 -48.979412
    vertex 0.000000 10.707452 -50.374603
  endloop
endfacet
facet normal 0.000000 21.974262 -82.009048
  outer loop
    vertex 15.750000 15.914375 -48.979412
    vertex 15.750000 10.707452 -50.374603
    vertex 0.000000 10.707452 -50.374603
  endloop
endfacet
facet normal 0.000000 21.974262 -82.009048
  outer loop
    vertex 15.750000 15.914375 -48.979412
    vertex 31.500000 15.914375 -48.979412
    vertex 15.750000 10.707452 -50.374603
  endloop
endfacet
facet normal 0.000000 21.974262 -82.009048
  outer loop
    vertex 31.500000 15.914375 -48.979412
    vertex 31.500000 10.707452 -50.374603
    vertex 15.750000 10.707452 -50.374603
  endloop
endfacet
facet normal 0.000000 21.974262 -82.009048
  outer loop
    vertex 31.500000 15.914375 -48.979412
    vertex 47.250000 15.914375 -48.979412
    vertex 31.500000 10.707452 -50.374603
  endloop
endfacet
facet normal 0.000000 21.974262 -82.009048
  outer loop
    vertex 47.250000 15.914375 -48.979412
    vertex 47.250000 10.707452 -50.374603
    vertex 31.500000 10.707452 -50.374603
  endloop
endfacet
facet normal 0.000000 21.974262 -82.009048
  outer loop
    vertex 47.250000 15.914375 -48.979412
    vertex 63.000000 15.914375 -48.979412
    vertex 47.250000 10.707452 -50.374603
  endloop
endfacet
facet normal 0.000000 21.974262 -82.009048
  outer loop
    vertex 63.000000 15.914375 -48.979412
    vertex 63.000000 10.707452 -50.374603
    vertex 47.250000 10.707452 -50.374603
  endloop
endfacet
facet normal 0.000000 30.426163 -79.262856
  outer loop
    vertex 0.000000 20.946938 -47.047592
    vertex 15.750000 20.946938 -47.047592
    vertex 0.000000 15.914375 -48.979412
  endloop
endfacet
facet normal 0.000000 30.426163 -79.262856
  outer loop
    vertex 15.750000 20.946938 -47.047592
    vertex 15.750000 15.914375 -48.979412
    vertex 0.000000 15.914375 -48.979412
  endloop
endfacet
facet normal 0.000000 30.426163 -79.262856
  outer loop
    vertex 15.750000 20.946938 -47.047592
    vertex 31.500000 20.946938 -47.047592
    vertex 15.750000 15.914375 -48.979412
  endloop
endfacet
facet normal 0.000000 30.426163 -79.262856
  outer loop
    vertex 31.500000 20.946938 -47.047592
    vertex 31.500000 15.914375 -48.979412
    vertex 15.750000 15.914375 -48.979412
  endloop
endfacet
facet normal 0.000000 30.426163 -79.262856
  outer loop
    vertex 31.500000 20.946938 -47.047592
    vertex 47.250000 20.946938 -47.047592
    vertex 31.500000 15.914375 -48.979412
  endloop
endfacet
facet normal 0.000000 30.426163 -79.262856
  outer loop
    vertex 47.250000 20.946938 -47.047592
    vertex 47.250000 15.914375 -48.979412
    vertex 31.500000 15.914375 -48.979412
  endloop
endfacet
facet normal 0.000000 30.426163 -79.262856
  outer loop
    vertex 47.250000 20.946938 -47.047592
    vertex 63.000000 20.946938 -47.047592
    vertex 47.250000 15.914375 -48.979412
  endloop
endfacet
facet normal 0.000000 30.426163 -79.262856
  outer loop
    vertex 63.000000 20.946938 -47.047592
    vertex 63.000000 15.914375 -48.979412
    vertex 47.250000 15.914375 -48.979412
  endloop
endfacet
facet normal 0.000000 38.544735 -75.648232
  outer loop
    vertex 0.000000 25.750000 -44.600307
    vertex 15.750000 25.750000 -44.600307
    vertex 0.000000 20.946938 -47.047592
  endloop
endfacet
facet normal 0.000000 38.544735 -75.648232
  outer loop
    vertex 15.750000 25.750000 -44.600307
    vertex 15.750000 20.946938 -47.047592
    vertex 0.000000 20.946938 -47.047592
  endloop
endfacet
facet normal 0.000000 38.544735 -75.648232
  outer loop
    vertex 15.750000 25.750000 -44.600307
    vertex 31.500000 25.750000 -44.600307
    vertex 15.750000 20.946938 -47.047592
  endloop
endfacet
facet normal 0.000000 38.544735 -75.648232
  outer loop
    vertex 31.500000 25.750000 -44.600307
    vertex 31.500000 20.946938 -47.047592
    vertex 15.750000 20.946938 -47.047592
  endloop
endfacet
facet normal 0.000000 38.544735 -75.648232
  outer loop
    vertex 31.500000 25.750000 -44.600307
    vertex 47.250000 25.750000 -44.600307
    vertex 31.500000 20.946938 -47.047592
  endloop
endfacet
facet normal 0.000000 38.544735 -75.648232
  outer loop
    vertex 47.250000 25.750000 -44.600307
    vertex 47.250000 20.946938 -47.047592
    vertex 31.500000 20.946938 -47.047592
  endloop
endfacet
facet normal 0.000000 38.544735 -75.648232
  outer loop
    vertex 47.250000 25.750000 -44.600307
    vertex 63.000000 25.750000 -44.600307
    vertex 47.250000 20.946938 -47.047592
  endloop
endfacet
facet normal 0.000000 38.544735 -75.648232
  outer loop
    vertex 63.000000 25.750000 -44.600307
    vertex 63.000000 20.946938 -47.047592
    vertex 47.250000 20.946938 -47.047592
  endloop
endfacet
facet normal 0.000000 46.240932 -71.204819
  outer loop
    vertex 0.000000 30.270941 -41.664375
    vertex 15.750000 30.270941 -41.664375
    vertex 0.000000 25.750000 -44.600307
  endloop
endfacet
facet normal 0.000000 46.240932 -71.204819
  outer loop
    vertex 15.750000 30.270941 -41.664375
    vertex 15.750000 25.750000 -44.600307
    vertex 0.000000 25.750000 -44.600307
  endloop
endfacet
facet normal 0.000000 46.240932 -71.204819
  outer loop
    vertex 15.750000 30.270941 -41.664375
    vertex 31.500000 30.270941 -41.664375
    vertex 15.750000 25.750000 -44.600307
  endloop
endfacet
facet normal 0.000000 46.240932 -71.204819
  outer loop
    vertex 31.500000 30.270941 -41.664375
    vertex 31.500000 25.750000 -44.600307
    vertex 15.750000 25.750000 -44.600307
  endloop
endfacet
facet normal 0.000000 46.240932 -71.204819
  outer loop
    vertex 31.500000 30.270941 -41.664375
    vertex 47.250000 30.270941 -41.664375
    vertex 31.500000 25.750000 -44.600307
  endloop
endfacet
facet normal 0.000000 46.240932 -71.204819
  outer loop
    vertex 47.250000 30.270941 -41.664375
    vertex 47.250000 25.750000 -44.600307
    vertex 31.500000 25.750000 -44.600307
  endloop
endfacet
facet normal 0.000000 46.240932 -71.204819
  outer loop
    vertex 47.250000 30.270941 -41.664375
    vertex 63.000000 30.270941 -41.664375
    vertex 47.250000 25.750000 -44.600307
  endloop
endfacet
facet normal 0.000000 46.240932 -71.204819
  outer loop
    vertex 63.000000 30.270941 -41.664375
    vertex 63.000000 25.750000 -44.600307
    vertex 47.250000 25.750000 -44.600307
  endloop
endfacet
facet normal 0.000000 53.430580 -65.981270
  outer loop
    vertex 0.000000 34.460228 -38.271957
    vertex 15.750000 34.460228 -38.271957
    vertex 0.000000 30.270941 -41.664375
  endloop
endfacet
facet normal 0.000000 53.430580 -65.981270
  outer loop
    vertex 15.750000 34.460228 -38.271957
    vertex 15.750000 30.270941 -41.664375
    vertex 0.000000 30.270941 -41.664375
  endloop
endfacet
facet normal 0.000000 53.430580 -65.981270
  outer loop
    vertex 15.750000 34.460228 -38.271957
    vertex 31.500000 34.460228 -38.271957
    vertex 15.750000 30.270941 -41.664375
  endloop
endfacet
facet normal 0.000000 53.430580 -65.981270
  outer loop
    vertex 31.500000 34.460228 -38.271957
    vertex 31.500000 30.270941 -41.664375
    vertex 15.750000 30.270941 -41.664375
  endloop
endfacet
facet normal 0.000000 53.430580 -65.981270
  outer loop
    vertex 31.500000 34.460228 -38.271957
    vertex 47.250000 34.460228 -38.271957
    vertex 31.500000 30.270941 -41.664375
  endloop
endfacet
facet normal 0.000000 53.430580 -65.981270
  outer loop
    vertex 47.250000 34.460228 -38.271957
    vertex 47.250000 30.270941 -41.664375
    vertex 31.500000 30.270941 -41.664375
  endloop
endfacet
facet normal 0.000000 53.430580 -65.981270
  outer loop
    vertex 47.250000 34.460228 -38.271957
    vertex 63.000000 34.460228 -38.271957
    vertex 47.250000 30.270941 -41.664375
  endloop
endfacet
facet normal 0.000000 53.430580 -65.981270
  outer loop
    vertex 63.000000 34.460228 -38.271957
    vertex 63.000000 30.270941 -41.664375
    vertex 47.250000 30.270941 -41.664375
  endloop
endfacet
facet normal 0.000000 60.034737 -60.034737
  outer loop
    vertex 0.000000 38.271957 -34.460228
    vertex 15.750000 38.271957 -34.460228
    vertex 0.000000 34.460228 -38.271957
  endloop
endfacet
facet normal 0.000000 60.034737 -60.034737
  outer loop
    vertex 15.750000 38.271957 -34.460228
    vertex 15.750000 34.460228 -38.271957
    vertex 0.000000 34.460228 -38.271957
  endloop
endfacet
facet normal 0.000000 60.034737 -60.034737
  outer loop
    vertex 15.750000 38.271957 -34.460228
    vertex 31.500000 38.271957 -34.460228
    vertex 15.750000 34.460228 -38.271957
  endloop
endfacet
facet normal 0.000000 60.034737 -60.034737
  outer loop
    vertex 31.500000 38.271957 -34.460228
    vertex 31.500000 34.460228 -38.271957
    vertex 15.750000 34.460228 -38.271957
  endloop
endfacet
facet normal 0.000000 60.034737 -60.034737
  outer loop
    vertex 31.500000 38.271957 -34.460228
    vertex 47.250000 38.271957 -34.460228
    vertex 31.500000 34.460228 -38.271957
  endloop
endfacet
facet normal 0.000000 60.034737 -60.034737
  outer loop
    vertex 47.250000 38.271957 -34.460228
    vertex 47.250000 34.460228 -38.271957
    vertex 31.500000 34.460228 -38.271957
  endloop
endfacet
facet normal 0.000000 60.034737 -60.034737
  outer loop
    vertex 47.250000 38.271957 -34.460228
    vertex 63.000000 38.271957 -34.460228
    vertex 47.250000 34.460228 -38.271957
  endloop
endfacet
facet normal 0.000000 60.034737 -60.034737
  outer loop
    vertex 63.000000 38.271957 -34.460228
    vertex 63.000000 34.460228 -38.271957
    vertex 47.250000 34.460228 -38.271957
  endloop
endfacet
facet normal 0.000000 65.981270 -53.430580
  outer loop
    vertex 0.000000 41.664375 -30.270941
    vertex 15.750000 41.664375 -30.270941
    vertex 0.000000 38.271957 -34.460228
  endloop
endfacet
facet normal 0.000000 65.981270 -53.430580
  outer loop
    vertex 15.750000 41.664375 -30.270941
    vertex 15.750000 38.271957 -34.460228
    vertex 0.000000 38.271957 -34.460228
  endloop
endfacet
facet normal 0.000000 65.981270 -53.430580
  outer loop
    vertex 15.750000 41.664375 -30.270941
    vertex 31.500000 41.664375 -30.270941
    vertex 15.750000 38.271957 -34.460228
  endloop
endfacet
facet normal 0.000000 65.981270 -53.430580
  outer loop
    vertex 31.500000 41.664375 -30.270941
    vertex 31.500000 38.271957 -34.460228
    vertex 15.750000 38.271957 -34.460228
  endloop
endfacet
facet normal 0.000000 65.981270 -53.430580
  outer loop
    vertex 31.500000 41.664375 -30.270941
    vertex 47.250000 41.664375 -30.270941
    vertex 31.500000 38.271957 -34.460228
  endloop
endfacet
facet normal 0.000000 65.981270 -53.430580
  outer loop
    vertex 47.250000 41.664375 -30.270941
    vertex 47.250000 38.271957 -34.460228
    vertex 31.500000 38.271957 -34.460228
  endloop
endfacet
facet normal 0.000000 65.981270 -53.430580
  outer loop
    vertex 47.250000 41.664375 -30.270941
    vertex 63.000000 41.664375 -30.270941
    vertex 47.250000 38.271957 -34.460228
  endloop
endfacet
facet normal 0.000000 65.981270 -53.430580
  outer loop
    vertex 63.000000 41.664375 -30.270941
    vertex 63.000000 38.271957 -34.460228
    vertex 47.250000 38.271957 -34.460228
  endloop
endfacet
facet normal 0.000000 71.204819 -46.240932
  outer loop
    vertex 0.000000 44.600307 -25.750000
    vertex 15.750000 44.600307 -25.750000
    vertex 0.000000 41.664375 -30.270941
  endloop
endfacet
facet normal 0.000000 71.204819 -46.240932
  outer loop
    vertex 15.750000 44.600307 -25.750000
    vertex 15.750000 41.664375 -30.270941
    vertex 0.000000 41.664375 -30.270941
  endloop
endfacet
facet normal 0.000000 71.204819 -46.240932
  outer loop
    vertex 15.750000 44.600307 -25.750000
    vertex 31.500000 44.600307 -25.750000
    vertex 15.750000 41.664375 -30.270941
  endloop
endfacet
facet normal 0.000000 71.204819 -46.240932
  outer loop
    vertex 31.500000 44.600307 -25.750000
    vertex 31.500000 41.664375 -30.270941
    vertex 15.750000 41.664375 -30.270941
  endloop
endfacet
facet normal 0.000000 71.204819 -46.240932
  outer loop
    vertex 31.500000 44.600307 -25.750000
    vertex 47.250000 44.600307 -25.750000
    vertex 31.500000 41.664375 -30.270941
  endloop
endfacet
facet normal 0.000000 71.204819 -46.240932
  outer loop
    vertex 47.250000 44.600307 -25.750000
    vertex 47.250000 41.664375 -30.270941
    vertex 31.500000 41.664375 -30.270941
  endloop
endfacet
facet normal 0.000000 71.204819 -46.240932
  outer loop
    vertex 47.250000 44.600307 -25.750000
    vertex 63.000000 44.600307 -25.750000
    vertex 47.250000 41.664375 -30.270941
  endloop
endfacet
facet normal 0.000000 71.204819 -46.240932
  outer loop
    vertex 63.000000 44.600307 -25.750000
    vertex 63.000000 41.664375 -30.270941
    vertex 47.250000 41.664375 -30.270941
  endloop
endfacet
facet normal 0.000000 75.648232 -38.544735
  outer loop
    vertex 0.000000 47.047592 -20.946938
    vertex 15.750000 47.047592 -20.946938
    vertex 0.000000 44.600307 -25.750000
  endloop
endfacet
facet normal 0.000000 75.648232 -38.544735
  outer loop
    vertex 15.750000 47.047592 -20.946938
    vertex 15.750000 44.600307 -25.750000
    vertex 0.000000 44.600307 -25.750000
  endloop
endfacet
facet normal 0.000000 75.648232 -38.544735
  outer loop
    vertex 15.750000 47.047592 -20.946938
    vertex 31.500000 47.047592 -20.946938
    vertex 15.750000 44.600307 -25.750000
  endloop
endfacet
facet normal 0.000000 75.648232 -38.544735
  outer loop
    vertex 31.500000 47.047592 -20.946938
    vertex 31.500000 44.600307 -25.750000
    vertex 15.750000 44.600307 -25.750000
  endloop
endfacet
facet normal 0.000000 75.648232 -38.544735
  outer loop
    vertex 31.500000 47.047592 -20.946938
    vertex 47.250000 47.047592 -20.946938
    vertex 31.500000 44.600307 -25.750000
  endloop
endfacet
facet normal 0.000000 75.648232 -38.544735
  outer loop
    vertex 47.250000 47.047592 -20.946938
    vertex 47.250000 44.600307 -25.750000
    vertex 31.500000 44.600307 -25.750000
  endloop
endfacet
facet normal 0.000000 75.648232 -38.544735
  outer loop
    vertex 47.250000 47.047592 -20.946938
    vertex 63.000000 47.047592 -20.946938
    vertex 47.250000 44.600307 -25.750000
  endloop
endfacet
facet normal 0.000000 75.648232 -38.544735
  outer loop
    vertex 63.000000 47.047592 -20.946938
    vertex 63.000000 44.600307 -25.750000
    vertex 47.250000 44.600307 -25.750000
  endloop
endfacet
facet normal 0.000000 79.262856 -30.426163
  outer loop
    vertex 0.000000 48.979412 -15.914375
    vertex 15.750000 48.979412 -15.914375
    vertex 0.000000 47.047592 -20.946938
  endloop
endfacet
facet normal 0.000000 79.262856 -30.426163
  outer loop
    vertex 15.750000 48.979412 -15.914375
    vertex 15.750000 47.047592 -20.946938
    vertex 0.000000 47.047592 -20.946938
  endloop
endfacet
facet normal 0.000000 79.262856 -30.426163
  outer loop
    vertex 15.750000 48.979412 -15.914375
    vertex 31.500000 48.979412 -15.914375
    vertex 15.750000 47.047592 -20.946938
  endloop
endfacet
facet normal 0.000000 79.262856 -30.426163
  outer loop
    vertex 31.500000 48.979412 -15.914375
    vertex 31.500000 47.047592 -20.946938
    vertex 15.750000 47.047592 -20.946938
  endloop
endfacet
facet normal 0.000000 79.262856 -30.426163
  outer loop
    vertex 31.500000 48.979412 -15.914375
    vertex 47.250000 48.979412 -15.914375
    vertex 31.500000 47.047592 -20.946938
  endloop
endfacet
facet normal 0.000000 79.262856 -30.426163
  outer loop
    vertex 47.250000 48.979412 -15.914375
    vertex 47.250000 47.047592 -20.946938
    vertex 31.500000 47.047592 -20.946938
  endloop
endfacet
facet normal 0.000000 79.262856 -30.426163
  outer loop
    vertex 47.250000 48.979412 -15.914375
    vertex 63.000000 48.979412 -15.914375
    vertex 47.250000 47.047592 -20.946938
  endloop
endfacet
facet normal 0.000000 79.262856 -30.426163
  outer loop
    vertex 63.000000 48.979412 -15.914375
    vertex 63.000000 47.047592 -20.946938
    vertex 47.250000 47.047592 -20.946938
  endloop
endfacet
facet normal 0.000000 82.009048 -21.974262
  outer loop
    vertex 0.000000 50.374603 -10.707452
    vertex 15.750000 50.374603 -10.707452
    vertex 0.000000 48.979412 -15.914375
  endloop
endfacet
facet normal 0.000000 82.009048 -21.974262
  outer loop
    vertex 15.750000 50.374603 -10.707452
    vertex 15.750000 48.979412 -15.914375
    vertex 0.000000 48.979412 -15.914375
  endloop
endfacet
facet normal 0.000000 82.009048 -21.974262
  outer loop
    vertex 15.750000 50.374603 -10.707452
    vertex 31.500000 50.374603 -10.707452
    vertex 15.750000 48.979412 -15.914375
  endloop
endfacet
facet normal 0.000000 82.009048 -21.974262
  outer loop
    vertex 31.500000 50.374603 -10.707452
    vertex 31.500000 48.979412 -15.914375
    vertex 15.750000 48.979412 -15.914375
  endloop
endfacet
facet normal 0.000000 82.009048 -21.974262
  outer loop
    vertex 31.500000 50.374603 -10.707452
    vertex 47.250000 50.374603 -10.707452
    vertex 31.500000 48.979412 -15.914375
  endloop
endfacet
facet normal 0.000000 82.009048 -21.974262
  outer loop
    vertex 47.250000 50.374603 -10.707452
    vertex 47.250000 48.979412 -15.914375
    vertex 31.500000 48.979412 -15.914375
  endloop
endfacet
facet normal 0.000000 82.009048 -21.974262
  outer loop
    vertex 47.250000 50.374603 -10.707452
    vertex 63.000000 50.374603 -10.707452
    vertex 47.250000 48.979412 -15.914375
  endloop
endfacet
facet normal 0.000000 82.009048 -21.974262
  outer loop
    vertex 63.000000 50.374603 -10.707452
    vertex 63.000000 48.979412 -15.914375
    vertex 47.250000 48.979412 -15.914375
  endloop
endfacet
facet normal 0.000000 83.856712 -13.281552
  outer loop
    vertex 0.000000 51.217876 -5.383216
    vertex 15.750000 51.217876 -5.383216
    vertex 0.000000 50.374603 -10.707452
  endloop
endfacet
facet normal 0.000000 83.856712 -13.281552
  outer loop
    vertex 15.750000 51.217876 -5.383216
    vertex 15.750000 50.374603 -10.707452
    vertex 0.000000 50.374603 -10.707452
  endloop
endfacet
facet normal 0.000000 83.856712 -13.281552
  outer loop
    vertex 15.750000 51.217876 -5.383216
    vertex 31.500000 51.217876 -5.383216
    vertex 15.750000 50.374603 -10.707452
  endloop
endfacet
facet normal 0.000000 83.856712 -13.281552
  outer loop
    vertex 31.500000 51.217876 -5.383216
    vertex 31.500000 50.374603 -10.707452
    vertex 15.750000 50.374603 -10.707452
  endloop
endfacet
facet normal 0.000000 83.856712 -13.281552
  outer loop
    vertex 31.500000 51.217876 -5.383216
    vertex 47.250000 51.217876 -5.383216
    vertex 31.500000 50.374603 -10.707452
  endloop
endfacet
facet normal 0.000000 83.856712 -13.281552
  outer loop
    vertex 47.250000 51.217876 -5.383216
    vertex 47.250000 50.374603 -10.707452
    vertex 31.500000 50.374603 -10.707452
  endloop
endfacet
facet normal 0.000000 83.856712 -13.281552
  outer loop
    vertex 47.250000 51.217876 -5.383216
    vertex 63.000000 51.217876 -5.383216
    vertex 47.250000 50.374603 -10.707452
  endloop
endfacet
facet normal 0.000000 83.856712 -13.281552
  outer loop
    vertex 63.000000 51.217876 -5.383216
    vertex 63.000000 50.374603 -10.707452
    vertex 47.250000 50.374603 -10.707452
  endloop
endfacet
endsolid shell.stl
