solid shell.stl
facet normal -0.998630 0.000000 0.052336
  outer loop
    vertex 51.500000 0.000000 0.000000
    vertex 51.500000 15.750000 0.000000
    vertex 51.217876 0.000000 -5.383216
  endloop
endfacet
facet normal -0.998630 0.000000 0.052336
  outer loop
    vertex 51.500000 15.750000 0.000000
    vertex 51.217876 15.750000 -5.383216
    vertex 51.217876 0.000000 -5.383216
  endloop
endfacet
facet normal -0.998630 0.000000 0.052336
  outer loop
    vertex 51.500000 15.750000 0.000000
    vertex 51.500000 31.500000 0.000000
    vertex 51.217876 15.750000 -5.383216
  endloop
endfacet
facet normal -0.998630 0.000000 0.052336
  outer loop
    vertex 51.500000 31.500000 0.000000
    vertex 51.217876 31.500000 -5.383216
    vertex 51.217876 15.750000 -5.383216
  endloop
endfacet
facet normal -0.998630 0.000000 0.052336
  outer loop
    vertex 51.500000 31.500000 0.000000
    vertex 51.500000 47.250000 0.000000
    vertex 51.217876 31.500000 -5.383216
  endloop
endfacet
facet normal -0.998630 0.000000 0.052336
  outer loop
    vertex 51.500000 47.250000 0.000000
    vertex 51.217876 47.250000 -5.383216
    vertex 51.217876 31.500000 -5.383216
  endloop
endfacet
facet normal -0.998630 0.000000 0.052336
  outer loop
    vertex 51.500000 47.250000 0.000000
    vertex 51.500000 63.000000 0.000000
    vertex 51.217876 47.250000 -5.383216
  endloop
endfacet
facet normal -0.998630 0.000000 0.052336
  outer loop
    vertex 51.500000 63.000000 0.000000
    vertex 51.217876 63.000000 -5.383216
    vertex 51.217876 47.250000 -5.383216
  endloop
endfacet
facet normal -0.998630 0.000000 -0.052336
  outer loop
    vertex 51.217876 0.000000 5.383216
    vertex 51.217876 15.750000 5.383216
    vertex 51.500000 0.000000 0.000000
  endloop
endfacet
facet normal -0.998630 0.000000 -0.052336
  outer loop
    vertex 51.217876 15.750000 5.383216
    vertex 51.500000 15.750000 0.000000
    vertex 51.500000 0.000000 0.000000
  endloop
endfacet
facet normal -0.998630 0.000000 -0.052336
  outer loop
    vertex 51.217876 15.750000 5.383216
    vertex 51.217876 31.500000 5.383216
    vertex 51.500000 15.750000 0.000000
  endloop
endfacet
facet normal -0.998630 0.000000 -0.052336
  outer loop
    vertex 51.217876 31.500000 5.383216
    vertex 51.500000 31.500000 0.000000
    vertex 51.500000 15.750000 0.000000
  endloop
endfacet
facet normal -0.998630 0.000000 -0.052336
  outer loop
    vertex 51.217876 31.500000 5.383216
    vertex 51.217876 47.250000 5.383216
    vertex 51.500000 31.500000 0.000000
  endloop
endfacet
facet normal -0.998630 0.000000 -0.052336
  outer loop
    vertex 51.217876 47.250000 5.383216
    vertex 51.500000 47.250000 0.000000
    vertex 51.500000 31.500000 0.000000
  endloop
endfacet
facet normal -0.998630 0.000000 -0.052336
  outer loop
    vertex 51.217876 47.250000 5.383216
    vertex 51.217876 63.000000 5.383216
    vertex 51.500000 47.250000 0.000000
  endloop
endfacet
facet normal -0.998630 0.000000 -0.052336
  outer loop
    vertex 51.217876 63.000000 5.383216
    vertex 51.500000 63.000000 0.000000
    vertex 51.500000 47.250000 0.000000
  endloop
endfacet
facet normal -0.987688 0.000000 -0.156434
  outer loop
    vertex 50.374603 0.000000 10.707452
    vertex 50.374603 15.750000 10.707452
    vertex 51.217876 0.000000 5.383216
  endloop
endfacet
facet normal -0.987688 0.000000 -0.156434
  outer loop
    vertex 50.374603 15.750000 10.707452
    vertex 51.217876 15.750000 5.383216
    vertex 51.217876 0.000000 5.383216
  endloop
endfacet
facet normal -0.987688 0.000000 -0.156434
  outer loop
    vertex 50.374603 15.750000 10.707452
    vertex 50.374603 31.500000 10.707452
    vertex 51.217876 15.750000 5.383216
  endloop
endfacet
facet normal -0.987688 0.000000 -0.156434
  outer loop
    vertex 50.374603 31.500000 10.707452
    vertex 51.217876 31.500000 5.383216
    vertex 51.217876 15.750000 5.383216
  endloop
endfacet
facet normal -0.987688 0.000000 -0.156434
  outer loop
    vertex 50.374603 31.500000 10.707452
    vertex 50.374603 47.250000 10.707452
    vertex 51.217876 31.500000 5.383216
  endloop
endfacet
facet normal -0.987688 0.000000 -0.156434
  outer loop
    vertex 50.374603 47.250000 10.707452
    vertex 51.217876 47.250000 5.383216
    vertex 51.217876 31.500000 5.383216
  endloop
endfacet
facet normal -0.987688 0.000000 -0.156434
  outer loop
    vertex 50.374603 47.250000 10.707452
    vertex 50.374603 63.000000 10.707452
    vertex 51.217876 47.250000 5.383216
  endloop
endfacet
facet normal -0.987688 0.000000 -0.156434
  outer loop
    vertex 50.374603 63.000000 10.707452
    vertex 51.217876 63.000000 5.383216
    vertex 51.217876 47.250000 5.383216
  endloop
endfacet
facet normal -0.965926 0.000000 -0.258819
  outer loop
    vertex 48.979412 0.000000 15.914375
    vertex 48.979412 15.750000 15.914375
    vertex 50.374603 0.000000 10.707452
  endloop
endfacet
facet normal -0.965926 0.000000 -0.258819
  outer loop
    vertex 48.979412 15.750000 15.914375
    vertex 50.374603 15.750000 10.707452
    vertex 50.374603 0.000000 10.707452
  endloop
endfacet
facet normal -0.965926 0.000000 -0.258819
  outer loop
    vertex 48.979412 15.750000 15.914375
    vertex 48.979412 31.500000 15.914375
    vertex 50.374603 15.750000 10.707452
  endloop
endfacet
facet normal -0.965926 0.000000 -0.258819
  outer loop
    vertex 48.979412 31.500000 15.914375
    vertex 50.374603 31.500000 10.707452
    vertex 50.374603 15.750000 10.707452
  endloop
endfacet
facet normal -0.965926 0.000000 -0.258819
  outer loop
    vertex 48.979412 31.500000 15.914375
    vertex 48.979412 47.250000 15.914375
    vertex 50.374603 31.500000 10.707452
  endloop
endfacet
facet normal -0.965926 0.000000 -0.258819
  outer loop
    vertex 48.979412 47.250000 15.914375
    vertex 50.374603 47.250000 10.707452
    vertex 50.374603 31.500000 10.707452
  endloop
endfacet
facet normal -0.965926 0.000000 -0.258819
  outer loop
    vertex 48.979412 47.250000 15.914375
    vertex 48.979412 63.000000 15.914375
    vertex 50.374603 47.250000 10.707452
  endloop
endfacet
facet normal -0.965926 0.000000 -0.258819
  outer loop
    vertex 48.979412 63.000000 15.914375
    vertex 50.374603 63.000000 10.707452
    vertex 50.374603 47.250000 10.707452
  endloop
endfacet
facet normal -0.933580 0.000000 -0.358368
  outer loop
    vertex 47.047592 0.000000 20.946938
    vertex 47.047592 15.750000 20.946938
    vertex 48.979412 0.000000 15.914375
  endloop
endfacet
facet normal -0.933580 0.000000 -0.358368
  outer loop
    vertex 47.047592 15.750000 20.946938
    vertex 48.979412 15.750000 15.914375
    vertex 48.979412 0.000000 15.914375
  endloop
endfacet
facet normal -0.933580 0.000000 -0.358368
  outer loop
    vertex 47.047592 15.750000 20.946938
    vertex 47.047592 31.500000 20.946938
    vertex 48.979412 15.750000 15.914375
  endloop
endfacet
facet normal -0.933580 0.000000 -0.358368
  outer loop
    vertex 47.047592 31.500000 20.946938
    vertex 48.979412 31.500000 15.914375
    vertex 48.979412 15.750000 15.914375
  endloop
endfacet
facet normal -0.933580 0.000000 -0.358368
  outer loop
    vertex 47.047592 31.500000 20.946938
    vertex 47.047592 47.250000 20.946938
    vertex 48.979412 31.500000 15.914375
  endloop
endfacet
facet normal -0.933580 0.000000 -0.358368
  outer loop
    vertex 47.047592 47.250000 20.946938
    vertex 48.979412 47.250000 15.914375
    vertex 48.979412 31.500000 15.914375
  endloop
endfacet
facet normal -0.933580 0.000000 -0.358368
  outer loop
    vertex 47.047592 47.250000 20.946938
    vertex 47.047592 63.000000 20.946938
    vertex 48.979412 47.250000 15.914375
  endloop
endfacet
facet normal -0.933580 0.000000 -0.358368
  outer loop
    vertex 47.047592 63.000000 20.946938
    vertex 48.979412 63.000000 15.914375
    vertex 48.979412 47.250000 15.914375
  endloop
endfacet
facet normal -0.891006 0.000000 -0.453991
  outer loop
    vertex 44.600307 0.000000 25.750000
    vertex 44.600307 15.750000 25.750000
    vertex 47.047592 0.000000 20.946938
  endloop
endfacet
facet normal -0.891006 0.000000 -0.453991
  outer loop
    vertex 44.600307 15.750000 25.750000
    vertex 47.047592 15.750000 20.946938
    vertex 47.047592 0.000000 20.946938
  endloop
endfacet
facet normal -0.891006 0.000000 -0.453991
  outer loop
    vertex 44.600307 15.750000 25.750000
    vertex 44.600307 31.500000 25.750000
    vertex 47.047592 15.750000 20.946938
  endloop
endfacet
facet normal -0.891006 0.000000 -0.453991
  outer loop
    vertex 44.600307 31.500000 25.750000
    vertex 47.047592 31.500000 20.946938
    vertex 47.047592 15.750000 20.946938
  endloop
endfacet
facet normal -0.891006 0.000000 -0.453991
  outer loop
    vertex 44.600307 31.500000 25.750000
    vertex 44.600307 47.250000 25.750000
    vertex 47.047592 31.500000 20.946938
  endloop
endfacet
facet normal -0.891006 0.000000 -0.453991
  outer loop
    vertex 44.600307 47.250000 25.750000
    vertex 47.047592 47.250000 20.946938
    vertex 47.047592 31.500000 20.946938
  endloop
endfacet
facet normal -0.891006 0.000000 -0.453991
  outer loop
    vertex 44.600307 47.250000 25.750000
    vertex 44.600307 63.000000 25.750000
    vertex 47.047592 47.250000 20.946938
  endloop
endfacet
facet normal -0.891006 0.000000 -0.453991
  outer loop
    vertex 44.600307 63.000000 25.750000
    vertex 47.047592 63.000000 20.946938
    vertex 47.047592 47.250000 20.946938
  endloop
endfacet
facet normal -0.838671 0.000000 -0.544639
  outer loop
    vertex 41.664375 0.000000 30.270941
    vertex 41.664375 15.750000 30.270941
    vertex 44.600307 0.000000 25.750000
  endloop
endfacet
facet normal -0.838671 0.000000 -0.544639
  outer loop
    vertex 41.664375 15.750000 30.270941
    vertex 44.600307 15.750000 25.750000
    vertex 44.600307 0.000000 25.750000
  endloop
endfacet
facet normal -0.838671 0.000000 -0.544639
  outer loop
    vertex 41.664375 15.750000 30.270941
    vertex 41.664375 31.500000 30.270941
    vertex 44.600307 15.750000 25.750000
  endloop
endfacet
facet normal -0.838671 0.000000 -0.544639
  outer loop
    vertex 41.664375 31.500000 30.270941
    vertex 44.600307 31.500000 25.750000
    vertex 44.600307 15.750000 25.750000
  endloop
endfacet
facet normal -0.838671 0.000000 -0.544639
  outer loop
    vertex 41.664375 31.500000 30.270941
    vertex 41.664375 47.250000 30.270941
    vertex 44.600307 31.500000 25.750000
  endloop
endfacet
facet normal -0.838671 0.000000 -0.544639
  outer loop
    vertex 41.664375 47.250000 30.270941
    vertex 44.600307 47.250000 25.750000
    vertex 44.600307 31.500000 25.750000
  endloop
endfacet
facet normal -0.838671 0.000000 -0.544639
  outer loop
    vertex 41.664375 47.250000 30.270941
    vertex 41.664375 63.000000 30.270941
    vertex 44.600307 47.250000 25.750000
  endloop
endfacet
facet normal -0.838671 0.000000 -0.544639
  outer loop
    vertex 41.664375 63.000000 30.270941
    vertex 44.600307 63.000000 25.750000
    vertex 44.600307 47.250000 25.750000
  endloop
endfacet
facet normal -0.777146 0.000000 -0.629320
  outer loop
    vertex 38.271957 0.000000 34.460228
    vertex 38.271957 15.750000 34.460228
    vertex 41.664375 0.000000 30.270941
  endloop
endfacet
facet normal -0.777146 0.000000 -0.629320
  outer loop
    vertex 38.271957 15.750000 34.460228
    vertex 41.664375 15.750000 30.270941
    vertex 41.664375 0.000000 30.270941
  endloop
endfacet
facet normal -0.777146 0.000000 -0.629320
  outer loop
    vertex 38.271957 15.750000 34.460228
    vertex 38.271957 31.500000 34.460228
    vertex 41.664375 15.750000 30.270941
  endloop
endfacet
facet normal -0.777146 0.000000 -0.629320
  outer loop
    vertex 38.271957 31.500000 34.460228
    vertex 41.664375 31.500000 30.270941
    vertex 41.664375 15.750000 30.270941
  endloop
endfacet
facet normal -0.777146 0.000000 -0.629320
  outer loop
    vertex 38.271957 31.500000 34.460228
    vertex 38.271957 47.250000 34.460228
    vertex 41.664375 31.500000 30.270941
  endloop
endfacet
facet normal -0.777146 0.000000 -0.629320
  outer loop
    vertex 38.271957 47.250000 34.460228
    vertex 41.664375 47.250000 30.270941
    vertex 41.664375 31.500000 30.270941
  endloop
endfacet
facet normal -0.777146 0.000000 -0.629320
  outer loop
    vertex 38.271957 47.250000 34.460228
    vertex 38.271957 63.000000 34.460228
    vertex 41.664375 47.250000 30.270941
  endloop
endfacet
facet normal -0.777146 0.000000 -0.629320
  outer loop
    vertex 38.271957 63.000000 34.460228
    vertex 41.664375 63.000000 30.270941
    vertex 41.664375 47.250000 30.270941
  endloop
endfacet
facet normal -0.707107 0.000000 -0.707107
  outer loop
    vertex 34.460228 0.000000 38.271957
    vertex 34.460228 15.750000 38.271957
    vertex 38.271957 0.000000 34.460228
  endloop
endfacet
facet normal -0.707107 0.000000 -0.707107
  outer loop
    vertex 34.460228 15.750000 38.271957
    vertex 38.271957 15.750000 34.460228
    vertex 38.271957 0.000000 34.460228
  endloop
endfacet
facet normal -0.707107 0.000000 -0.707107
  outer loop
    vertex 34.460228 15.750000 38.271957
    vertex 34.460228 31.500000 38.271957
    vertex 38.271957 15.750000 34.460228
  endloop
endfacet
facet normal -0.707107 0.000000 -0.707107
  outer loop
    vertex 34.460228 31.500000 38.271957
    vertex 38.271957 31.500000 34.460228
    vertex 38.271957 15.750000 34.460228
  endloop
endfacet
facet normal -0.707107 0.000000 -0.707107
  outer loop
    vertex 34.460228 31.500000 38.271957
    vertex 34.460228 47.250000 38.271957
    vertex 38.271957 31.500000 34.460228
  endloop
endfacet
facet normal -0.707107 0.000000 -0.707107
  outer loop
    vertex 34.460228 47.250000 38.271957
    vertex 38.271957 47.250000 34.460228
    vertex 38.271957 31.500000 34.460228
  endloop
endfacet
facet normal -0.707107 0.000000 -0.707107
  outer loop
    vertex 34.460228 47.250000 38.271957
    vertex 34.460228 63.000000 38.271957
    vertex 38.271957 47.250000 34.460228
  endloop
endfacet
facet normal -0.707107 0.000000 -0.707107
  outer loop
    vertex 34.460228 63.000000 38.271957
    vertex 38.271957 63.000000 34.460228
    vertex 38.271957 47.250000 34.460228
  endloop
endfacet
facet normal -0.629320 0.000000 -0.777146
  outer loop
    vertex 30.270941 0.000000 41.664375
    vertex 30.270941 15.750000 41.664375
    vertex 34.460228 0.000000 38.271957
  endloop
endfacet
facet normal -0.629320 0.000000 -0.777146
  outer loop
    vertex 30.270941 15.750000 41.664375
    vertex 34.460228 15.750000 38.271957
    vertex 34.460228 0.000000 38.271957
  endloop
endfacet
facet normal -0.629320 0.000000 -0.777146
  outer loop
    vertex 30.270941 15.750000 41.664375
    vertex 30.270941 31.500000 41.664375
    vertex 34.460228 15.750000 38.271957
  endloop
endfacet
facet normal -0.629320 0.000000 -0.777146
  outer loop
    vertex 30.270941 31.500000 41.664375
    vertex 34.460228 31.500000 38.271957
    vertex 34.460228 15.750000 38.271957
  endloop
endfacet
facet normal -0.629320 0.000000 -0.777146
  outer loop
    vertex 30.270941 31.500000 41.664375
    vertex 30.270941 47.250000 41.664375
    vertex 34.460228 31.500000 38.271957
  endloop
endfacet
facet normal -0.629320 0.000000 -0.777146
  outer loop
    vertex 30.270941 47.250000 41.664375
    vertex 34.460228 47.250000 38.271957
    vertex 34.460228 31.500000 38.271957
  endloop
endfacet
facet normal -0.629320 0.000000 -0.777146
  outer loop
    vertex 30.270941 47.250000 41.664375
    vertex 30.270941 63.000000 41.664375
    vertex 34.460228 47.250000 38.271957
  endloop
endfacet
facet normal -0.629320 0.000000 -0.777146
  outer loop
    vertex 30.270941 63.000000 41.664375
    vertex 34.460228 63.000000 38.271957
    vertex 34.460228 47.250000 38.271957
  endloop
endfacet
facet normal -0.544639 0.000000 -0.838671
  outer loop
    vertex 25.750000 0.000000 44.600307
    vertex 25.750000 15.750000 44.600307
    vertex 30.270941 0.000000 41.664375
  endloop
endfacet
facet normal -0.544639 0.000000 -0.838671
  outer loop
    vertex 25.750000 15.750000 44.600307
    vertex 30.270941 15.750000 41.664375
    vertex 30.270941 0.000000 41.664375
  endloop
endfacet
facet normal -0.544639 0.000000 -0.838671
  outer loop
    vertex 25.750000 15.750000 44.600307
    vertex 25.750000 31.500000 44.600307
    vertex 30.270941 15.750000 41.664375
  endloop
endfacet
facet normal -0.544639 0.000000 -0.838671
  outer loop
    vertex 25.750000 31.500000 44.600307
    vertex 30.270941 31.500000 41.664375
    vertex 30.270941 15.750000 41.664375
  endloop
endfacet
facet normal -0.544639 0.000000 -0.838671
  outer loop
    vertex 25.750000 31.500000 44.600307
    vertex 25.750000 47.250000 44.600307
    vertex 30.270941 31.500000 41.664375
  endloop
endfacet
facet normal -0.544639 0.000000 -0.838671
  outer loop
    vertex 25.750000 47.250000 44.600307
    vertex 30.270941 47.250000 41.664375
    vertex 30.270941 31.500000 41.664375
  endloop
endfacet
facet normal -0.544639 0.000000 -0.838671
  outer loop
    vertex 25.750000 47.250000 44.600307
    vertex 25.750000 63.000000 44.600307
    vertex 30.270941 47.250000 41.664375
  endloop
endfacet
facet normal -0.544639 0.000000 -0.838671
  outer loop
    vertex 25.750000 63.000000 44.600307
    vertex 30.270941 63.000000 41.664375
    vertex 30.270941 47.250000 41.664375
  endloop
endfacet
facet normal -0.453991 0.000000 -0.891006
  outer loop
    vertex 20.946938 0.000000 47.047592
    vertex 20.946938 15.750000 47.047592
    vertex 25.750000 0.000000 44.600307
  endloop
endfacet
facet normal -0.453991 0.000000 -0.891006
  outer loop
    vertex 20.946938 15.750000 47.047592
    vertex 25.750000 15.750000 44.600307
    vertex 25.750000 0.000000 44.600307
  endloop
endfacet
facet normal -0.453991 0.000000 -0.891006
  outer loop
    vertex 20.946938 15.750000 47.047592
    vertex 20.946938 31.500000 47.047592
    vertex 25.750000 15.750000 44.600307
  endloop
endfacet
facet normal -0.453991 0.000000 -0.891006
  outer loop
    vertex 20.946938 31.500000 47.047592
    vertex 25.750000 31.500000 44.600307
    vertex 25.750000 15.750000 44.600307
  endloop
endfacet
facet normal -0.453991 0.000000 -0.891006
  outer loop
    vertex 20.946938 31.500000 47.047592
    vertex 20.946938 47.250000 47.047592
    vertex 25.750000 31.500000 44.600307
  endloop
endfacet
facet normal -0.453991 0.000000 -0.891006
  outer loop
    vertex 20.946938 47.250000 47.047592
    vertex 25.750000 47.250000 44.600307
    vertex 25.750000 31.500000 44.600307
  endloop
endfacet
facet normal -0.453991 0.000000 -0.891006
  outer loop
    vertex 20.946938 47.250000 47.047592
    vertex 20.946938 63.000000 47.047592
    vertex 25.750000 47.250000 44.600307
  endloop
endfacet
facet normal -0.453991 0.000000 -0.891006
  outer loop
    vertex 20.946938 63.000000 47.047592
    vertex 25.750000 63.000000 44.600307
    vertex 25.750000 47.250000 44.600307
  endloop
endfacet
facet normal -0.358368 0.000000 -0.933580
  outer loop
    vertex 15.914375 0.000000 48.979412
    vertex 15.914375 15.750000 48.979412
    vertex 20.946938 0.000000 47.047592
  endloop
endfacet
facet normal -0.358368 0.000000 -0.933580
  outer loop
    vertex 15.914375 15.750000 48.979412
    vertex 20.946938 15.750000 47.047592
    vertex 20.946938 0.000000 47.047592
  endloop
endfacet
facet normal -0.358368 0.000000 -0.933580
  outer loop
    vertex 15.914375 15.750000 48.979412
    vertex 15.914375 31.500000 48.979412
    vertex 20.946938 15.750000 47.047592
  endloop
endfacet
facet normal -0.358368 0.000000 -0.933580
  outer loop
    vertex 15.914375 31.500000 48.979412
    vertex 20.946938 31.500000 47.047592
    vertex 20.946938 15.750000 47.047592
  endloop
endfacet
facet normal -0.358368 0.000000 -0.933580
  outer loop
    vertex 15.914375 31.500000 48.979412
    vertex 15.914375 47.250000 48.979412
    vertex 20.946938 31.500000 47.047592
  endloop
endfacet
facet normal -0.358368 0.000000 -0.933580
  outer loop
    vertex 15.914375 47.250000 48.979412
    vertex 20.946938 47.250000 47.047592
    vertex 20.946938 31.500000 47.047592
  endloop
endfacet
facet normal -0.358368 0.000000 -0.933580
  outer loop
    vertex 15.914375 47.250000 48.979412
    vertex 15.914375 63.000000 48.979412
    vertex 20.946938 47.250000 47.047592
  endloop
endfacet
facet normal -0.358368 0.000000 -0.933580
  outer loop
    vertex 15.914375 63.000000 48.979412
    vertex 20.946938 63.000000 47.047592
    vertex 20.946938 47.250000 47.047592
  endloop
endfacet
facet normal -0.258819 0.000000 -0.965926
  outer loop
    vertex 10.707452 0.000000 50.374603
    vertex 10.707452 15.750000 50.374603
    vertex 15.914375 0.000000 48.979412
  endloop
endfacet
facet normal -0.258819 0.000000 -0.965926
  outer loop
    vertex 10.707452 15.750000 50.374603
    vertex 15.914375 15.750000 48.979412
    vertex 15.914375 0.000000 48.979412
  endloop
endfacet
facet normal -0.258819 0.000000 -0.965926
  outer loop
    vertex 10.707452 15.750000 50.374603
    vertex 10.707452 31.500000 50.374603
    vertex 15.914375 15.750000 48.979412
  endloop
endfacet
facet normal -0.258819 0.000000 -0.965926
  outer loop
    vertex 10.707452 31.500000 50.374603
    vertex 15.914375 31.500000 48.979412
    vertex 15.914375 15.750000 48.979412
  endloop
endfacet
facet normal -0.258819 0.000000 -0.965926
  outer loop
    vertex 10.707452 31.500000 50.374603
    vertex 10.707452 47.250000 50.374603
    vertex 15.914375 31.500000 48.979412
  endloop
endfacet
facet normal -0.258819 0.000000 -0.965926
  outer loop
    vertex 10.707452 47.250000 50.374603
    vertex 15.914375 47.250000 48.979412
    vertex 15.914375 31.500000 48.979412
  endloop
endfacet
facet normal -0.258819 0.000000 -0.965926
  outer loop
    vertex 10.707452 47.250000 50.374603
    vertex 10.707452 63.000000 50.374603
    vertex 15.914375 47.250000 48.979412
  endloop
endfacet
facet normal -0.258819 0.000000 -0.965926
  outer loop
    vertex 10.707452 63.000000 50.374603
    vertex 15.914375 63.000000 48.979412
    vertex 15.914375 47.250000 48.979412
  endloop
endfacet
facet normal -0.156434 0.000000 -0.987688
  outer loop
    vertex 5.383216 0.000000 51.217876
    vertex 5.383216 15.750000 51.217876
    vertex 10.707452 0.000000 50.374603
  endloop
endfacet
facet normal -0.156434 0.000000 -0.987688
  outer loop
    vertex 5.383216 15.750000 51.217876
    vertex 10.707452 15.750000 50.374603
    vertex 10.707452 0.000000 50.374603
  endloop
endfacet
facet normal -0.156434 0.000000 -0.987688
  outer loop
    vertex 5.383216 15.750000 51.217876
    vertex 5.383216 31.500000 51.217876
    vertex 10.707452 15.750000 50.374603
  endloop
endfacet
facet normal -0.156434 0.000000 -0.987688
  outer loop
    vertex 5.383216 31.500000 51.217876
    vertex 10.707452 31.500000 50.374603
    vertex 10.707452 15.750000 50.374603
  endloop
endfacet
facet normal -0.156434 0.000000 -0.987688
  outer loop
    vertex 5.383216 31.500000 51.217876
    vertex 5.383216 47.250000 51.217876
    vertex 10.707452 31.500000 50.374603
  endloop
endfacet
facet normal -0.156434 0.000000 -0.987688
  outer loop
    vertex 5.383216 47.250000 51.217876
    vertex 10.707452 47.250000 50.374603
    vertex 10.707452 31.500000 50.374603
  endloop
endfacet
facet normal -0.156434 0.000000 -0.987688
  outer loop
    vertex 5.383216 47.250000 51.217876
    vertex 5.383216 63.000000 51.217876
    vertex 10.707452 47.250000 50.374603
  endloop
endfacet
facet normal -0.156434 0.000000 -0.987688
  outer loop
    vertex 5.383216 63.000000 51.217876
    vertex 10.707452 63.000000 50.374603
    vertex 10.707452 47.250000 50.374603
  endloop
endfacet
facet normal -0.052336 0.000000 -0.998630
  outer loop
    vertex 0.000000 0.000000 51.500000
    vertex 0.000000 15.750000 51.500000
    vertex 5.383216 0.000000 51.217876
  endloop
endfacet
facet normal -0.052336 0.000000 -0.998630
  outer loop
    vertex 0.000000 15.750000 51.500000
    vertex 5.383216 15.750000 51.217876
    vertex 5.383216 0.000000 51.217876
  endloop
endfacet
facet normal -0.052336 0.000000 -0.998630
  outer loop
    vertex 0.000000 15.750000 51.500000
    vertex 0.000000 31.500000 51.500000
    vertex 5.383216 15.750000 51.217876
  endloop
endfacet
facet normal -0.052336 0.000000 -0.998630
  outer loop
    vertex 0.000000 31.500000 51.500000
    vertex 5.383216 31.500000 51.217876
    vertex 5.383216 15.750000 51.217876
  endloop
endfacet
facet normal -0.052336 0.000000 -0.998630
  outer loop
    vertex 0.000000 31.500000 51.500000
    vertex 0.000000 47.250000 51.500000
    vertex 5.383216 31.500000 51.217876
  endloop
endfacet
facet normal -0.052336 0.000000 -0.998630
  outer loop
    vertex 0.000000 47.250000 51.500000
    vertex 5.383216 47.250000 51.217876
    vertex 5.383216 31.500000 51.217876
  endloop
endfacet
facet normal -0.052336 0.000000 -0.998630
  outer loop
    vertex 0.000000 47.250000 51.500000
    vertex 0.000000 63.000000 51.500000
    vertex 5.383216 47.250000 51.217876
  endloop
endfacet
facet normal -0.052336 0.000000 -0.998630
  outer loop
    vertex 0.000000 63.000000 51.500000
    vertex 5.383216 63.000000 51.217876
    vertex 5.383216 47.250000 51.217876
  endloop
endfacet
facet normal 0.052336 0.000000 -0.998630
  outer loop
    vertex -5.383216 0.000000 51.217876
    vertex -5.383216 15.750000 51.217876
    vertex 0.000000 0.000000 51.500000
  endloop
endfacet
facet normal 0.052336 0.000000 -0.998630
  outer loop
    vertex -5.383216 15.750000 51.217876
    vertex 0.000000 15.750000 51.500000
    vertex 0.000000 0.000000 51.500000
  endloop
endfacet
facet normal 0.052336 0.000000 -0.998630
  outer loop
    vertex -5.383216 15.750000 51.217876
    vertex -5.383216 31.500000 51.217876
    vertex 0.000000 15.750000 51.500000
  endloop
endfacet
facet normal 0.052336 0.000000 -0.998630
  outer loop
    vertex -5.383216 31.500000 51.217876
    vertex 0.000000 31.500000 51.500000
    vertex 0.000000 15.750000 51.500000
  endloop
endfacet
facet normal 0.052336 0.000000 -0.998630
  outer loop
    vertex -5.383216 31.500000 51.217876
    vertex -5.383216 47.250000 51.217876
    vertex 0.000000 31.500000 51.500000
  endloop
endfacet
facet normal 0.052336 0.000000 -0.998630
  outer loop
    vertex -5.383216 47.250000 51.217876
    vertex 0.000000 47.250000 51.500000
    vertex 0.000000 31.500000 51.500000
  endloop
endfacet
facet normal 0.052336 0.000000 -0.998630
  outer loop
    vertex -5.383216 47.250000 51.217876
    vertex -5.383216 63.000000 51.217876
    vertex 0.000000 47.250000 51.500000
  endloop
endfacet
facet normal 0.052336 0.000000 -0.998630
  outer loop
    vertex -5.383216 63.000000 51.217876
    vertex 0.000000 63.000000 51.500000
    vertex 0.000000 47.250000 51.500000
  endloop
endfacet
facet normal 0.156434 0.000000 -0.987688
  outer loop
    vertex -10.707452 0.000000 50.374603
    vertex -10.707452 15.750000 50.374603
    vertex -5.383216 0.000000 51.217876
  endloop
endfacet
facet normal 0.156434 0.000000 -0.987688
  outer loop
    vertex -10.707452 15.750000 50.374603
    vertex -5.383216 15.750000 51.217876
    vertex -5.383216 0.000000 51.217876
  endloop
endfacet
facet normal 0.156434 0.000000 -0.987688
  outer loop
    vertex -10.707452 15.750000 50.374603
    vertex -10.707452 31.500000 50.374603
    vertex -5.383216 15.750000 51.217876
  endloop
endfacet
facet normal 0.156434 0.000000 -0.987688
  outer loop
    vertex -10.707452 31.500000 50.374603
    vertex -5.383216 31.500000 51.217876
    vertex -5.383216 15.750000 51.217876
  endloop
endfacet
facet normal 0.156434 0.000000 -0.987688
  outer loop
    vertex -10.707452 31.500000 50.374603
    vertex -10.707452 47.250000 50.374603
    vertex -5.383216 31.500000 51.217876
  endloop
endfacet
facet normal 0.156434 0.000000 -0.987688
  outer loop
    vertex -10.707452 47.250000 50.374603
    vertex -5.383216 47.250000 51.217876
    vertex -5.383216 31.500000 51.217876
  endloop
endfacet
facet normal 0.156434 0.000000 -0.987688
  outer loop
    vertex -10.707452 47.250000 50.374603
    vertex -10.707452 63.000000 50.374603
    vertex -5.383216 47.250000 51.217876
  endloop
endfacet
facet normal 0.156434 0.000000 -0.987688
  outer loop
    vertex -10.707452 63.000000 50.374603
    vertex -5.383216 63.000000 51.217876
    vertex -5.383216 47.250000 51.217876
  endloop
endfacet
facet normal 0.258819 0.000000 -0.965926
  outer loop
    vertex -15.914375 0.000000 48.979412
    vertex -15.914375 15.750000 48.979412
    vertex -10.707452 0.000000 50.374603
  endloop
endfacet
facet normal 0.258819 0.000000 -0.965926
  outer loop
    vertex -15.914375 15.750000 48.979412
    vertex -10.707452 15.750000 50.374603
    vertex -10.707452 0.000000 50.374603
  endloop
endfacet
facet normal 0.258819 0.000000 -0.965926
  outer loop
    vertex -15.914375 15.750000 48.979412
    vertex -15.914375 31.500000 48.979412
    vertex -10.707452 15.750000 50.374603
  endloop
endfacet
facet normal 0.258819 0.000000 -0.965926
  outer loop
    vertex -15.914375 31.500000 48.979412
    vertex -10.707452 31.500000 50.374603
    vertex -10.707452 15.750000 50.374603
  endloop
endfacet
facet normal 0.258819 0.000000 -0.965926
  outer loop
    vertex -15.914375 31.500000 48.979412
    vertex -15.914375 47.250000 48.979412
    vertex -10.707452 31.500000 50.374603
  endloop
endfacet
facet normal 0.258819 0.000000 -0.965926
  outer loop
    vertex -15.914375 47.250000 48.979412
    vertex -10.707452 47.250000 50.374603
    vertex -10.707452 31.500000 50.374603
  endloop
endfacet
facet normal 0.258819 0.000000 -0.965926
  outer loop
    vertex -15.914375 47.250000 48.979412
    vertex -15.914375 63.000000 48.979412
    vertex -10.707452 47.250000 50.374603
  endloop
endfacet
facet normal 0.258819 0.000000 -0.965926
  outer loop
    vertex -15.914375 63.000000 48.979412
    vertex -10.707452 63.000000 50.374603
    vertex -10.707452 47.250000 50.374603
  endloop
endfacet
facet normal 0.358368 0.000000 -0.933580
  outer loop
    vertex -20.946938 0.000000 47.047592
    vertex -20.946938 15.750000 47.047592
    vertex -15.914375 0.000000 48.979412
  endloop
endfacet
facet normal 0.358368 0.000000 -0.933580
  outer loop
    vertex -20.946938 15.750000 47.047592
    vertex -15.914375 15.750000 48.979412
    vertex -15.914375 0.000000 48.979412
  endloop
endfacet
facet normal 0.358368 0.000000 -0.933580
  outer loop
    vertex -20.946938 15.750000 47.047592
    vertex -20.946938 31.500000 47.047592
    vertex -15.914375 15.750000 48.979412
  endloop
endfacet
facet normal 0.358368 0.000000 -0.933580
  outer loop
    vertex -20.946938 31.500000 47.047592
    vertex -15.914375 31.500000 48.979412
    vertex -15.914375 15.750000 48.979412
  endloop
endfacet
facet normal 0.358368 0.000000 -0.933580
  outer loop
    vertex -20.946938 31.500000 47.047592
    vertex -20.946938 47.250000 47.047592
    vertex -15.914375 31.500000 48.979412
  endloop
endfacet
facet normal 0.358368 0.000000 -0.933580
  outer loop
    vertex -20.946938 47.250000 47.047592
    vertex -15.914375 47.250000 48.979412
    vertex -15.914375 31.500000 48.979412
  endloop
endfacet
facet normal 0.358368 0.000000 -0.933580
  outer loop
    vertex -20.946938 47.250000 47.047592
    vertex -20.946938 63.000000 47.047592
    vertex -15.914375 47.250000 48.979412
  endloop
endfacet
facet normal 0.358368 0.000000 -0.933580
  outer loop
    vertex -20.946938 63.000000 47.047592
    vertex -15.914375 63.000000 48.979412
    vertex -15.914375 47.250000 48.979412
  endloop
endfacet
facet normal 0.453991 0.000000 -0.891006
  outer loop
    vertex -25.750000 0.000000 44.600307
    vertex -25.750000 15.750000 44.600307
    vertex -20.946938 0.000000 47.047592
  endloop
endfacet
facet normal 0.453991 0.000000 -0.891006
  outer loop
    vertex -25.750000 15.750000 44.600307
    vertex -20.946938 15.750000 47.047592
    vertex -20.946938 0.000000 47.047592
  endloop
endfacet
facet normal 0.453991 0.000000 -0.891006
  outer loop
    vertex -25.750000 15.750000 44.600307
    vertex -25.750000 31.500000 44.600307
    vertex -20.946938 15.750000 47.047592
  endloop
endfacet
facet normal 0.453991 0.000000 -0.891006
  outer loop
    vertex -25.750000 31.500000 44.600307
    vertex -20.946938 31.500000 47.047592
    vertex -20.946938 15.750000 47.047592
  endloop
endfacet
facet normal 0.453991 0.000000 -0.891006
  outer loop
    vertex -25.750000 31.500000 44.600307
    vertex -25.750000 47.250000 44.600307
    vertex -20.946938 31.500000 47.047592
  endloop
endfacet
facet normal 0.453991 0.000000 -0.891006
  outer loop
    vertex -25.750000 47.250000 44.600307
    vertex -20.946938 47.250000 47.047592
    vertex -20.946938 31.500000 47.047592
  endloop
endfacet
facet normal 0.453991 0.000000 -0.891006
  outer loop
    vertex -25.750000 47.250000 44.600307
    vertex -25.750000 63.000000 44.600307
    vertex -20.946938 47.250000 47.047592
  endloop
endfacet
facet normal 0.453991 0.000000 -0.891006
  outer loop
    vertex -25.750000 63.000000 44.600307
    vertex -20.946938 63.000000 47.047592
    vertex -20.946938 47.250000 47.047592
  endloop
endfacet
facet normal 0.544639 0.000000 -0.838671
  outer loop
    vertex -30.270941 0.000000 41.664375
    vertex -30.270941 15.750000 41.664375
    vertex -25.750000 0.000000 44.600307
  endloop
endfacet
facet normal 0.544639 0.000000 -0.838671
  outer loop
    vertex -30.270941 15.750000 41.664375
    vertex -25.750000 15.750000 44.600307
    vertex -25.750000 0.000000 44.600307
  endloop
endfacet
facet normal 0.544639 0.000000 -0.838671
  outer loop
    vertex -30.270941 15.750000 41.664375
    vertex -30.270941 31.500000 41.664375
    vertex -25.750000 15.750000 44.600307
  endloop
endfacet
facet normal 0.544639 0.000000 -0.838671
  outer loop
    vertex -30.270941 31.500000 41.664375
    vertex -25.750000 31.500000 44.600307
    vertex -25.750000 15.750000 44.600307
  endloop
endfacet
facet normal 0.544639 0.000000 -0.838671
  outer loop
    vertex -30.270941 31.500000 41.664375
    vertex -30.270941 47.250000 41.664375
    vertex -25.750000 31.500000 44.600307
  endloop
endfacet
facet normal 0.544639 0.000000 -0.838671
  outer loop
    vertex -30.270941 47.250000 41.664375
    vertex -25.750000 47.250000 44.600307
    vertex -25.750000 31.500000 44.600307
  endloop
endfacet
facet normal 0.544639 0.000000 -0.838671
  outer loop
    vertex -30.270941 47.250000 41.664375
    vertex -30.270941 63.000000 41.664375
    vertex -25.750000 47.250000 44.600307
  endloop
endfacet
facet normal 0.544639 0.000000 -0.838671
  outer loop
    vertex -30.270941 63.000000 41.664375
    vertex -25.750000 63.000000 44.600307
    vertex -25.750000 47.250000 44.600307
  endloop
endfacet
facet normal 0.629320 0.000000 -0.777146
  outer loop
    vertex -34.460228 0.000000 38.271957
    vertex -34.460228 15.750000 38.271957
    vertex -30.270941 0.000000 41.664375
  endloop
endfacet
facet normal 0.629320 0.000000 -0.777146
  outer loop
    vertex -34.460228 15.750000 38.271957
    vertex -30.270941 15.750000 41.664375
    vertex -30.270941 0.000000 41.664375
  endloop
endfacet
facet normal 0.629320 0.000000 -0.777146
  outer loop
    vertex -34.460228 15.750000 38.271957
    vertex -34.460228 31.500000 38.271957
    vertex -30.270941 15.750000 41.664375
  endloop
endfacet
facet normal 0.629320 0.000000 -0.777146
  outer loop
    vertex -34.460228 31.500000 38.271957
    vertex -30.270941 31.500000 41.664375
    vertex -30.270941 15.750000 41.664375
  endloop
endfacet
facet normal 0.629320 0.000000 -0.777146
  outer loop
    vertex -34.460228 31.500000 38.271957
    vertex -34.460228 47.250000 38.271957
    vertex -30.270941 31.500000 41.664375
  endloop
endfacet
facet normal 0.629320 0.000000 -0.777146
  outer loop
    vertex -34.460228 47.250000 38.271957
    vertex -30.270941 47.250000 41.664375
    vertex -30.270941 31.500000 41.664375
  endloop
endfacet
facet normal 0.629320 0.000000 -0.777146
  outer loop
    vertex -34.460228 47.250000 38.271957
    vertex -34.460228 63.000000 38.271957
    vertex -30.270941 47.250000 41.664375
  endloop
endfacet
facet normal 0.629320 0.000000 -0.777146
  outer loop
    vertex -34.460228 63.000000 38.271957
    vertex -30.270941 63.000000 41.664375
    vertex -30.270941 47.250000 41.664375
  endloop
endfacet
facet normal 0.707107 0.000000 -0.707107
  outer loop
    vertex -38.271957 0.000000 34.460228
    vertex -38.271957 15.750000 34.460228
    vertex -34.460228 0.000000 38.271957
  endloop
endfacet
facet normal 0.707107 0.000000 -0.707107
  outer loop
    vertex -38.271957 15.750000 34.460228
    vertex -34.460228 15.750000 38.271957
    vertex -34.460228 0.000000 38.271957
  endloop
endfacet
facet normal 0.707107 0.000000 -0.707107
  outer loop
    vertex -38.271957 15.750000 34.460228
    vertex -38.271957 31.500000 34.460228
    vertex -34.460228 15.750000 38.271957
  endloop
endfacet
facet normal 0.707107 0.000000 -0.707107
  outer loop
    vertex -38.271957 31.500000 34.460228
    vertex -34.460228 31.500000 38.271957
    vertex -34.460228 15.750000 38.271957
  endloop
endfacet
facet normal 0.707107 0.000000 -0.707107
  outer loop
    vertex -38.271957 31.500000 34.460228
    vertex -38.271957 47.250000 34.460228
    vertex -34.460228 31.500000 38.271957
  endloop
endfacet
facet normal 0.707107 0.000000 -0.707107
  outer loop
    vertex -38.271957 47.250000 34.460228
    vertex -34.460228 47.250000 38.271957
    vertex -34.460228 31.500000 38.271957
  endloop
endfacet
facet normal 0.707107 0.000000 -0.707107
  outer loop
    vertex -38.271957 47.250000 34.460228
    vertex -38.271957 63.000000 34.460228
    vertex -34.460228 47.250000 38.271957
  endloop
endfacet
facet normal 0.707107 0.000000 -0.707107
  outer loop
    vertex -38.271957 63.000000 34.460228
    vertex -34.460228 63.000000 38.271957
    vertex -34.460228 47.250000 38.271957
  endloop
endfacet
facet normal 0.777146 0.000000 -0.629320
  outer loop
    vertex -41.664375 0.000000 30.270941
    vertex -41.664375 15.750000 30.270941
    vertex -38.271957 0.000000 34.460228
  endloop
endfacet
facet normal 0.777146 0.000000 -0.629320
  outer loop
    vertex -41.664375 15.750000 30.270941
    vertex -38.271957 15.750000 34.460228
    vertex -38.271957 0.000000 34.460228
  endloop
endfacet
facet normal 0.777146 0.000000 -0.629320
  outer loop
    vertex -41.664375 15.750000 30.270941
    vertex -41.664375 31.500000 30.270941
    vertex -38.271957 15.750000 34.460228
  endloop
endfacet
facet normal 0.777146 0.000000 -0.629320
  outer loop
    vertex -41.664375 31.500000 30.270941
    vertex -38.271957 31.500000 34.460228
    vertex -38.271957 15.750000 34.460228
  endloop
endfacet
facet normal 0.777146 0.000000 -0.629320
  outer loop
    vertex -41.664375 31.500000 30.270941
    vertex -41.664375 47.250000 30.270941
    vertex -38.271957 31.500000 34.460228
  endloop
endfacet
facet normal 0.777146 0.000000 -0.629320
  outer loop
    vertex -41.664375 47.250000 30.270941
    vertex -38.271957 47.250000 34.460228
    vertex -38.271957 31.500000 34.460228
  endloop
endfacet
facet normal 0.777146 0.000000 -0.629320
  outer loop
    vertex -41.664375 47.250000 30.270941
    vertex -41.664375 63.000000 30.270941
    vertex -38.271957 47.250000 34.460228
  endloop
endfacet
facet normal 0.777146 0.000000 -0.629320
  outer loop
    vertex -41.664375 63.000000 30.270941
    vertex -38.271957 63.000000 34.460228
    vertex -38.271957 47.250000 34.460228
  endloop
endfacet
facet normal 0.838671 0.000000 -0.544639
  outer loop
    vertex -44.600307 0.000000 25.750000
    vertex -44.600307 15.750000 25.750000
    vertex -41.664375 0.000000 30.270941
  endloop
endfacet
facet normal 0.838671 0.000000 -0.544639
  outer loop
    vertex -44.600307 15.750000 25.750000
    vertex -41.664375 15.750000 30.270941
    vertex -41.664375 0.000000 30.270941
  endloop
endfacet
facet normal 0.838671 0.000000 -0.544639
  outer loop
    vertex -44.600307 15.750000 25.750000
    vertex -44.600307 31.500000 25.750000
    vertex -41.664375 15.750000 30.270941
  endloop
endfacet
facet normal 0.838671 0.000000 -0.544639
  outer loop
    vertex -44.600307 31.500000 25.750000
    vertex -41.664375 31.500000 30.270941
    vertex -41.664375 15.750000 30.270941
  endloop
endfacet
facet normal 0.838671 0.000000 -0.544639
  outer loop
    vertex -44.600307 31.500000 25.750000
    vertex -44.600307 47.250000 25.750000
    vertex -41.664375 31.500000 30.270941
  endloop
endfacet
facet normal 0.838671 0.000000 -0.544639
  outer loop
    vertex -44.600307 47.250000 25.750000
    vertex -41.664375 47.250000 30.270941
    vertex -41.664375 31.500000 30.270941
  endloop
endfacet
facet normal 0.838671 0.000000 -0.544639
  outer loop
    vertex -44.600307 47.250000 25.750000
    vertex -44.600307 63.000000 25.750000
    vertex -41.664375 47.250000 30.270941
  endloop
endfacet
facet normal 0.838671 0.000000 -0.544639
  outer loop
    vertex -44.600307 63.000000 25.750000
    vertex -41.664375 63.000000 30.270941
    vertex -41.664375 47.250000 30.270941
  endloop
endfacet
facet normal 0.891006 0.000000 -0.453991
  outer loop
    vertex -47.047592 0.000000 20.946938
    vertex -47.047592 15.750000 20.946938
    vertex -44.600307 0.000000 25.750000
  endloop
endfacet
facet normal 0.891006 0.000000 -0.453991
  outer loop
    vertex -47.047592 15.750000 20.946938
    vertex -44.600307 15.750000 25.750000
    vertex -44.600307 0.000000 25.750000
  endloop
endfacet
facet normal 0.891006 0.000000 -0.453991
  outer loop
    vertex -47.047592 15.750000 20.946938
    vertex -47.047592 31.500000 20.946938
    vertex -44.600307 15.750000 25.750000
  endloop
endfacet
facet normal 0.891006 0.000000 -0.453991
  outer loop
    vertex -47.047592 31.500000 20.946938
    vertex -44.600307 31.500000 25.750000
    vertex -44.600307 15.750000 25.750000
  endloop
endfacet
facet normal 0.891006 0.000000 -0.453991
  outer loop
    vertex -47.047592 31.500000 20.946938
    vertex -47.047592 47.250000 20.946938
    vertex -44.600307 31.500000 25.750000
  endloop
endfacet
facet normal 0.891006 0.000000 -0.453991
  outer loop
    vertex -47.047592 47.250000 20.946938
    vertex -44.600307 47.250000 25.750000
    vertex -44.600307 31.500000 25.750000
  endloop
endfacet
facet normal 0.891006 0.000000 -0.453991
  outer loop
    vertex -47.047592 47.250000 20.946938
    vertex -47.047592 63.000000 20.946938
    vertex -44.600307 47.250000 25.750000
  endloop
endfacet
facet normal 0.891006 0.000000 -0.453991
  outer loop
    vertex -47.047592 63.000000 20.946938
    vertex -44.600307 63.000000 25.750000
    vertex -44.600307 47.250000 25.750000
  endloop
endfacet
facet normal 0.933580 0.000000 -0.358368
  outer loop
    vertex -48.979412 0.000000 15.914375
    vertex -48.979412 15.750000 15.914375
    vertex -47.047592 0.000000 20.946938
  endloop
endfacet
facet normal 0.933580 0.000000 -0.358368
  outer loop
    vertex -48.979412 15.750000 15.914375
    vertex -47.047592 15.750000 20.946938
    vertex -47.047592 0.000000 20.946938
  endloop
endfacet
facet normal 0.933580 0.000000 -0.358368
  outer loop
    vertex -48.979412 15.750000 15.914375
    vertex -48.979412 31.500000 15.914375
    vertex -47.047592 15.750000 20.946938
  endloop
endfacet
facet normal 0.933580 0.000000 -0.358368
  outer loop
    vertex -48.979412 31.500000 15.914375
    vertex -47.047592 31.500000 20.946938
    vertex -47.047592 15.750000 20.946938
  endloop
endfacet
facet normal 0.933580 0.000000 -0.358368
  outer loop
    vertex -48.979412 31.500000 15.914375
    vertex -48.979412 47.250000 15.914375
    vertex -47.047592 31.500000 20.946938
  endloop
endfacet
facet normal 0.933580 0.000000 -0.358368
  outer loop
    vertex -48.979412 47.250000 15.914375
    vertex -47.047592 47.250000 20.946938
    vertex -47.047592 31.500000 20.946938
  endloop
endfacet
facet normal 0.933580 0.000000 -0.358368
  outer loop
    vertex -48.979412 47.250000 15.914375
    vertex -48.979412 63.000000 15.914375
    vertex -47.047592 47.250000 20.946938
  endloop
endfacet
facet normal 0.933580 0.000000 -0.358368
  outer loop
    vertex -48.979412 63.000000 15.914375
    vertex -47.047592 63.000000 20.946938
    vertex -47.047592 47.250000 20.946938
  endloop
endfacet
facet normal 0.965926 0.000000 -0.258819
  outer loop
    vertex -50.374603 0.000000 10.707452
    vertex -50.374603 15.750000 10.707452
    vertex -48.979412 0.000000 15.914375
  endloop
endfacet
facet normal 0.965926 0.000000 -0.258819
  outer loop
    vertex -50.374603 15.750000 10.707452
    vertex -48.979412 15.750000 15.914375
    vertex -48.979412 0.000000 15.914375
  endloop
endfacet
facet normal 0.965926 0.000000 -0.258819
  outer loop
    vertex -50.374603 15.750000 10.707452
    vertex -50.374603 31.500000 10.707452
    vertex -48.979412 15.750000 15.914375
  endloop
endfacet
facet normal 0.965926 0.000000 -0.258819
  outer loop
    vertex -50.374603 31.500000 10.707452
    vertex -48.979412 31.500000 15.914375
    vertex -48.979412 15.750000 15.914375
  endloop
endfacet
facet normal 0.965926 0.000000 -0.258819
  outer loop
    vertex -50.374603 31.500000 10.707452
    vertex -50.374603 47.250000 10.707452
    vertex -48.979412 31.500000 15.914375
  endloop
endfacet
facet normal 0.965926 0.000000 -0.258819
  outer loop
    vertex -50.374603 47.250000 10.707452
    vertex -48.979412 47.250000 15.914375
    vertex -48.979412 31.500000 15.914375
  endloop
endfacet
facet normal 0.965926 0.000000 -0.258819
  outer loop
    vertex -50.374603 47.250000 10.707452
    vertex -50.374603 63.000000 10.707452
    vertex -48.979412 47.250000 15.914375
  endloop
endfacet
facet normal 0.965926 0.000000 -0.258819
  outer loop
    vertex -50.374603 63.000000 10.707452
    vertex -48.979412 63.000000 15.914375
    vertex -48.979412 47.250000 15.914375
  endloop
endfacet
facet normal 0.987688 0.000000 -0.156434
  outer loop
    vertex -51.217876 0.000000 5.383216
    vertex -51.217876 15.750000 5.383216
    vertex -50.374603 0.000000 10.707452
  endloop
endfacet
facet normal 0.987688 0.000000 -0.156434
  outer loop
    vertex -51.217876 15.750000 5.383216
    vertex -50.374603 15.750000 10.707452
    vertex -50.374603 0.000000 10.707452
  endloop
endfacet
facet normal 0.987688 0.000000 -0.156434
  outer loop
    vertex -51.217876 15.750000 5.383216
    vertex -51.217876 31.500000 5.383216
    vertex -50.374603 15.750000 10.707452
  endloop
endfacet
facet normal 0.987688 0.000000 -0.156434
  outer loop
    vertex -51.217876 31.500000 5.383216
    vertex -50.374603 31.500000 10.707452
    vertex -50.374603 15.750000 10.707452
  endloop
endfacet
facet normal 0.987688 0.000000 -0.156434
  outer loop
    vertex -51.217876 31.500000 5.383216
    vertex -51.217876 47.250000 5.383216
    vertex -50.374603 31.500000 10.707452
  endloop
endfacet
facet normal 0.987688 0.000000 -0.156434
  outer loop
    vertex -51.217876 47.250000 5.383216
    vertex -50.374603 47.250000 10.707452
    vertex -50.374603 31.500000 10.707452
  endloop
endfacet
facet normal 0.987688 0.000000 -0.156434
  outer loop
    vertex -51.217876 47.250000 5.383216
    vertex -51.217876 63.000000 5.383216
    vertex -50.374603 47.250000 10.707452
  endloop
endfacet
facet normal 0.987688 0.000000 -0.156434
  outer loop
    vertex -51.217876 63.000000 5.383216
    vertex -50.374603 63.000000 10.707452
    vertex -50.374603 47.250000 10.707452
  endloop
endfacet
facet normal 0.998630 0.000000 -0.052336
  outer loop
    vertex -51.500000 0.000000 0.000000
    vertex -51.500000 15.750000 0.000000
    vertex -51.217876 0.000000 5.383216
  endloop
endfacet
facet normal 0.998630 0.000000 -0.052336
  outer loop
    vertex -51.500000 15.750000 0.000000
    vertex -51.217876 15.750000 5.383216
    vertex -51.217876 0.000000 5.383216
  endloop
endfacet
facet normal 0.998630 0.000000 -0.052336
  outer loop
    vertex -51.500000 15.750000 0.000000
    vertex -51.500000 31.500000 0.000000
    vertex -51.217876 15.750000 5.383216
  endloop
endfacet
facet normal 0.998630 0.000000 -0.052336
  outer loop
    vertex -51.500000 31.500000 0.000000
    vertex -51.217876 31.500000 5.383216
    vertex -51.217876 15.750000 5.383216
  endloop
endfacet
facet normal 0.998630 0.000000 -0.052336
  outer loop
    vertex -51.500000 31.500000 0.000000
    vertex -51.500000 47.250000 0.000000
    vertex -51.217876 31.500000 5.383216
  endloop
endfacet
facet normal 0.998630 0.000000 -0.052336
  outer loop
    vertex -51.500000 47.250000 0.000000
    vertex -51.217876 47.250000 5.383216
    vertex -51.217876 31.500000 5.383216
  endloop
endfacet
facet normal 0.998630 0.000000 -0.052336
  outer loop
    vertex -51.500000 47.250000 0.000000
    vertex -51.500000 63.000000 0.000000
    vertex -51.217876 47.250000 5.383216
  endloop
endfacet
facet normal 0.998630 0.000000 -0.052336
  outer loop
    vertex -51.500000 63.000000 0.000000
    vertex -51.217876 63.000000 5.383216
    vertex -51.217876 47.250000 5.383216
  endloop
endfacet
facet normal 0.998630 -0.000000 0.052336
  outer loop
    vertex -51.217876 0.000000 -5.383216
    vertex -51.217876 15.750000 -5.383216
    vertex -51.500000 0.000000 0.000000
  endloop
endfacet
facet normal 0.998630 0.000000 0.052336
  outer loop
    vertex -51.217876 15.750000 -5.383216
    vertex -51.500000 15.750000 0.000000
    vertex -51.500000 0.000000 0.000000
  endloop
endfacet
facet normal 0.998630 -0.000000 0.052336
  outer loop
    vertex -51.217876 15.750000 -5.383216
    vertex -51.217876 31.500000 -5.383216
    vertex -51.500000 15.750000 0.000000
  endloop
endfacet
facet normal 0.998630 0.000000 0.052336
  outer loop
    vertex -51.217876 31.500000 -5.383216
    vertex -51.500000 31.500000 0.000000
    vertex -51.500000 15.750000 0.000000
  endloop
endfacet
facet normal 0.998630 -0.000000 0.052336
  outer loop
    vertex -51.217876 31.500000 -5.383216
    vertex -51.217876 47.250000 -5.383216
    vertex -51.500000 31.500000 0.000000
  endloop
endfacet
facet normal 0.998630 0.000000 0.052336
  outer loop
    vertex -51.217876 47.250000 -5.383216
    vertex -51.500000 47.250000 0.000000
    vertex -51.500000 31.500000 0.000000
  endloop
endfacet
facet normal 0.998630 -0.000000 0.052336
  outer loop
    vertex -51.217876 47.250000 -5.383216
    vertex -51.217876 63.000000 -5.383216
    vertex -51.500000 47.250000 0.000000
  endloop
endfacet
facet normal 0.998630 0.000000 0.052336
  outer loop
    vertex -51.217876 63.000000 -5.383216
    vertex -51.500000 63.000000 0.000000
    vertex -51.500000 47.250000 0.000000
  endloop
endfacet
facet normal 0.987688 -0.000000 0.156434
  outer loop
    vertex -50.374603 0.000000 -10.707452
    vertex -50.374603 15.750000 -10.707452
    vertex -51.217876 0.000000 -5.383216
  endloop
endfacet
facet normal 0.987688 0.000000 0.156434
  outer loop
    vertex -50.374603 15.750000 -10.707452
    vertex -51.217876 15.750000 -5.383216
    vertex -51.217876 0.000000 -5.383216
  endloop
endfacet
facet normal 0.987688 -0.000000 0.156434
  outer loop
    vertex -50.374603 15.750000 -10.707452
    vertex -50.374603 31.500000 -10.707452
    vertex -51.217876 15.750000 -5.383216
  endloop
endfacet
facet normal 0.987688 0.000000 0.156434
  outer loop
    vertex -50.374603 31.500000 -10.707452
    vertex -51.217876 31.500000 -5.383216
    vertex -51.217876 15.750000 -5.383216
  endloop
endfacet
facet normal 0.987688 -0.000000 0.156434
  outer loop
    vertex -50.374603 31.500000 -10.707452
    vertex -50.374603 47.250000 -10.707452
    vertex -51.217876 31.500000 -5.383216
  endloop
endfacet
facet normal 0.987688 0.000000 0.156434
  outer loop
    vertex -50.374603 47.250000 -10.707452
    vertex -51.217876 47.250000 -5.383216
    vertex -51.217876 31.500000 -5.383216
  endloop
endfacet
facet normal 0.987688 -0.000000 0.156434
  outer loop
    vertex -50.374603 47.250000 -10.707452
    vertex -50.374603 63.000000 -10.707452
    vertex -51.217876 47.250000 -5.383216
  endloop
endfacet
facet normal 0.987688 0.000000 0.156434
  outer loop
    vertex -50.374603 63.000000 -10.707452
    vertex -51.217876 63.000000 -5.383216
    vertex -51.217876 47.250000 -5.383216
  endloop
endfacet
facet normal 0.965926 -0.000000 0.258819
  outer loop
    vertex -48.979412 0.000000 -15.914375
    vertex -48.979412 15.750000 -15.914375
    vertex -50.374603 0.000000 -10.707452
  endloop
endfacet
facet normal 0.965926 0.000000 0.258819
  outer loop
    vertex -48.979412 15.750000 -15.914375
    vertex -50.374603 15.750000 -10.707452
    vertex -50.374603 0.000000 -10.707452
  endloop
endfacet
facet normal 0.965926 -0.000000 0.258819
  outer loop
    vertex -48.979412 15.750000 -15.914375
    vertex -48.979412 31.500000 -15.914375
    vertex -50.374603 15.750000 -10.707452
  endloop
endfacet
facet normal 0.965926 0.000000 0.258819
  outer loop
    vertex -48.979412 31.500000 -15.914375
    vertex -50.374603 31.500000 -10.707452
    vertex -50.374603 15.750000 -10.707452
  endloop
endfacet
facet normal 0.965926 -0.000000 0.258819
  outer loop
    vertex -48.979412 31.500000 -15.914375
    vertex -48.979412 47.250000 -15.914375
    vertex -50.374603 31.500000 -10.707452
  endloop
endfacet
facet normal 0.965926 0.000000 0.258819
  outer loop
    vertex -48.979412 47.250000 -15.914375
    vertex -50.374603 47.250000 -10.707452
    vertex -50.374603 31.500000 -10.707452
  endloop
endfacet
facet normal 0.965926 -0.000000 0.258819
  outer loop
    vertex -48.979412 47.250000 -15.914375
    vertex -48.979412 63.000000 -15.914375
    vertex -50.374603 47.250000 -10.707452
  endloop
endfacet
facet normal 0.965926 0.000000 0.258819
  outer loop
    vertex -48.979412 63.000000 -15.914375
    vertex -50.374603 63.000000 -10.707452
    vertex -50.374603 47.250000 -10.707452
  endloop
endfacet
facet normal 0.933580 -0.000000 0.358368
  outer loop
    vertex -47.047592 0.000000 -20.946938
    vertex -47.047592 15.750000 -20.946938
    vertex -48.979412 0.000000 -15.914375
  endloop
endfacet
facet normal 0.933580 0.000000 0.358368
  outer loop
    vertex -47.047592 15.750000 -20.946938
    vertex -48.979412 15.750000 -15.914375
    vertex -48.979412 0.000000 -15.914375
  endloop
endfacet
facet normal 0.933580 -0.000000 0.358368
  outer loop
    vertex -47.047592 15.750000 -20.946938
    vertex -47.047592 31.500000 -20.946938
    vertex -48.979412 15.750000 -15.914375
  endloop
endfacet
facet normal 0.933580 0.000000 0.358368
  outer loop
    vertex -47.047592 31.500000 -20.946938
    vertex -48.979412 31.500000 -15.914375
    vertex -48.979412 15.750000 -15.914375
  endloop
endfacet
facet normal 0.933580 -0.000000 0.358368
  outer loop
    vertex -47.047592 31.500000 -20.946938
    vertex -47.047592 47.250000 -20.946938
    vertex -48.979412 31.500000 -15.914375
  endloop
endfacet
facet normal 0.933580 0.000000 0.358368
  outer loop
    vertex -47.047592 47.250000 -20.946938
    vertex -48.979412 47.250000 -15.914375
    vertex -48.979412 31.500000 -15.914375
  endloop
endfacet
facet normal 0.933580 -0.000000 0.358368
  outer loop
    vertex -47.047592 47.250000 -20.946938
    vertex -47.047592 63.000000 -20.946938
    vertex -48.979412 47.250000 -15.914375
  endloop
endfacet
facet normal 0.933580 0.000000 0.358368
  outer loop
    vertex -47.047592 63.000000 -20.946938
    vertex -48.979412 63.000000 -15.914375
    vertex -48.979412 47.250000 -15.914375
  endloop
endfacet
facet normal 0.891006 -0.000000 0.453991
  outer loop
    vertex -44.600307 0.000000 -25.750000
    vertex -44.600307 15.750000 -25.750000
    vertex -47.047592 0.000000 -20.946938
  endloop
endfacet
facet normal 0.891006 0.000000 0.453991
  outer loop
    vertex -44.600307 15.750000 -25.750000
    vertex -47.047592 15.750000 -20.946938
    vertex -47.047592 0.000000 -20.946938
  endloop
endfacet
facet normal 0.891006 -0.000000 0.453991
  outer loop
    vertex -44.600307 15.750000 -25.750000
    vertex -44.600307 31.500000 -25.750000
    vertex -47.047592 15.750000 -20.946938
  endloop
endfacet
facet normal 0.891006 0.000000 0.453991
  outer loop
    vertex -44.600307 31.500000 -25.750000
    vertex -47.047592 31.500000 -20.946938
    vertex -47.047592 15.750000 -20.946938
  endloop
endfacet
facet normal 0.891006 -0.000000 0.453991
  outer loop
    vertex -44.600307 31.500000 -25.750000
    vertex -44.600307 47.250000 -25.750000
    vertex -47.047592 31.500000 -20.946938
  endloop
endfacet
facet normal 0.891006 0.000000 0.453991
  outer loop
    vertex -44.600307 47.250000 -25.750000
    vertex -47.047592 47.250000 -20.946938
    vertex -47.047592 31.500000 -20.946938
  endloop
endfacet
facet normal 0.891006 -0.000000 0.453991
  outer loop
    vertex -44.600307 47.250000 -25.750000
    vertex -44.600307 63.000000 -25.750000
    vertex -47.047592 47.250000 -20.946938
  endloop
endfacet
facet normal 0.891006 0.000000 0.453991
  outer loop
    vertex -44.600307 63.000000 -25.750000
    vertex -47.047592 63.000000 -20.946938
    vertex -47.047592 47.250000 -20.946938
  endloop
endfacet
facet normal 0.838671 -0.000000 0.544639
  outer loop
    vertex -41.664375 0.000000 -30.270941
    vertex -41.664375 15.750000 -30.270941
    vertex -44.600307 0.000000 -25.750000
  endloop
endfacet
facet normal 0.838671 0.000000 0.544639
  outer loop
    vertex -41.664375 15.750000 -30.270941
    vertex -44.600307 15.750000 -25.750000
    vertex -44.600307 0.000000 -25.750000
  endloop
endfacet
facet normal 0.838671 -0.000000 0.544639
  outer loop
    vertex -41.664375 15.750000 -30.270941
    vertex -41.664375 31.500000 -30.270941
    vertex -44.600307 15.750000 -25.750000
  endloop
endfacet
facet normal 0.838671 0.000000 0.544639
  outer loop
    vertex -41.664375 31.500000 -30.270941
    vertex -44.600307 31.500000 -25.750000
    vertex -44.600307 15.750000 -25.750000
  endloop
endfacet
facet normal 0.838671 -0.000000 0.544639
  outer loop
    vertex -41.664375 31.500000 -30.270941
    vertex -41.664375 47.250000 -30.270941
    vertex -44.600307 31.500000 -25.750000
  endloop
endfacet
facet normal 0.838671 0.000000 0.544639
  outer loop
    vertex -41.664375 47.250000 -30.270941
    vertex -44.600307 47.250000 -25.750000
    vertex -44.600307 31.500000 -25.750000
  endloop
endfacet
facet normal 0.838671 -0.000000 0.544639
  outer loop
    vertex -41.664375 47.250000 -30.270941
    vertex -41.664375 63.000000 -30.270941
    vertex -44.600307 47.250000 -25.750000
  endloop
endfacet
facet normal 0.838671 0.000000 0.544639
  outer loop
    vertex -41.664375 63.000000 -30.270941
    vertex -44.600307 63.000000 -25.750000
    vertex -44.600307 47.250000 -25.750000
  endloop
endfacet
facet normal 0.777146 -0.000000 0.629320
  outer loop
    vertex -38.271957 0.000000 -34.460228
    vertex -38.271957 15.750000 -34.460228
    vertex -41.664375 0.000000 -30.270941
  endloop
endfacet
facet normal 0.777146 0.000000 0.629320
  outer loop
    vertex -38.271957 15.750000 -34.460228
    vertex -41.664375 15.750000 -30.270941
    vertex -41.664375 0.000000 -30.270941
  endloop
endfacet
facet normal 0.777146 -0.000000 0.629320
  outer loop
    vertex -38.271957 15.750000 -34.460228
    vertex -38.271957 31.500000 -34.460228
    vertex -41.664375 15.750000 -30.270941
  endloop
endfacet
facet normal 0.777146 0.000000 0.629320
  outer loop
    vertex -38.271957 31.500000 -34.460228
    vertex -41.664375 31.500000 -30.270941
    vertex -41.664375 15.750000 -30.270941
  endloop
endfacet
facet normal 0.777146 -0.000000 0.629320
  outer loop
    vertex -38.271957 31.500000 -34.460228
    vertex -38.271957 47.250000 -34.460228
    vertex -41.664375 31.500000 -30.270941
  endloop
endfacet
facet normal 0.777146 0.000000 0.629320
  outer loop
    vertex -38.271957 47.250000 -34.460228
    vertex -41.664375 47.250000 -30.270941
    vertex -41.664375 31.500000 -30.270941
  endloop
endfacet
facet normal 0.777146 -0.000000 0.629320
  outer loop
    vertex -38.271957 47.250000 -34.460228
    vertex -38.271957 63.000000 -34.460228
    vertex -41.664375 47.250000 -30.270941
  endloop
endfacet
facet normal 0.777146 0.000000 0.629320
  outer loop
    vertex -38.271957 63.000000 -34.460228
    vertex -41.664375 63.000000 -30.270941
    vertex -41.664375 47.250000 -30.270941
  endloop
endfacet
facet normal 0.707107 -0.000000 0.707107
  outer loop
    vertex -34.460228 0.000000 -38.271957
    vertex -34.460228 15.750000 -38.271957
    vertex -38.271957 0.000000 -34.460228
  endloop
endfacet
facet normal 0.707107 0.000000 0.707107
  outer loop
    vertex -34.460228 15.750000 -38.271957
    vertex -38.271957 15.750000 -34.460228
    vertex -38.271957 0.000000 -34.460228
  endloop
endfacet
facet normal 0.707107 -0.000000 0.707107
  outer loop
    vertex -34.460228 15.750000 -38.271957
    vertex -34.460228 31.500000 -38.271957
    vertex -38.271957 15.750000 -34.460228
  endloop
endfacet
facet normal 0.707107 0.000000 0.707107
  outer loop
    vertex -34.460228 31.500000 -38.271957
    vertex -38.271957 31.500000 -34.460228
    vertex -38.271957 15.750000 -34.460228
  endloop
endfacet
facet normal 0.707107 -0.000000 0.707107
  outer loop
    vertex -34.460228 31.500000 -38.271957
    vertex -34.460228 47.250000 -38.271957
    vertex -38.271957 31.500000 -34.460228
  endloop
endfacet
facet normal 0.707107 0.000000 0.707107
  outer loop
    vertex -34.460228 47.250000 -38.271957
    vertex -38.271957 47.250000 -34.460228
    vertex -38.271957 31.500000 -34.460228
  endloop
endfacet
facet normal 0.707107 -0.000000 0.707107
  outer loop
    vertex -34.460228 47.250000 -38.271957
    vertex -34.460228 63.000000 -38.271957
    vertex -38.271957 47.250000 -34.460228
  endloop
endfacet
facet normal 0.707107 0.000000 0.707107
  outer loop
    vertex -34.460228 63.000000 -38.271957
    vertex -38.271957 63.000000 -34.460228
    vertex -38.271957 47.250000 -34.460228
  endloop
endfacet
facet normal 0.629320 -0.000000 0.777146
  outer loop
    vertex -30.270941 0.000000 -41.664375
    vertex -30.270941 15.750000 -41.664375
    vertex -34.460228 0.000000 -38.271957
  endloop
endfacet
facet normal 0.629320 0.000000 0.777146
  outer loop
    vertex -30.270941 15.750000 -41.664375
    vertex -34.460228 15.750000 -38.271957
    vertex -34.460228 0.000000 -38.271957
  endloop
endfacet
facet normal 0.629320 -0.000000 0.777146
  outer loop
    vertex -30.270941 15.750000 -41.664375
    vertex -30.270941 31.500000 -41.664375
    vertex -34.460228 15.750000 -38.271957
  endloop
endfacet
facet normal 0.629320 0.000000 0.777146
  outer loop
    vertex -30.270941 31.500000 -41.664375
    vertex -34.460228 31.500000 -38.271957
    vertex -34.460228 15.750000 -38.271957
  endloop
endfacet
facet normal 0.629320 -0.000000 0.777146
  outer loop
    vertex -30.270941 31.500000 -41.664375
    vertex -30.270941 47.250000 -41.664375
    vertex -34.460228 31.500000 -38.271957
  endloop
endfacet
facet normal 0.629320 0.000000 0.777146
  outer loop
    vertex -30.270941 47.250000 -41.664375
    vertex -34.460228 47.250000 -38.271957
    vertex -34.460228 31.500000 -38.271957
  endloop
endfacet
facet normal 0.629320 -0.000000 0.777146
  outer loop
    vertex -30.270941 47.250000 -41.664375
    vertex -30.270941 63.000000 -41.664375
    vertex -34.460228 47.250000 -38.271957
  endloop
endfacet
facet normal 0.629320 0.000000 0.777146
  outer loop
    vertex -30.270941 63.000000 -41.664375
    vertex -34.460228 63.000000 -38.271957
    vertex -34.460228 47.250000 -38.271957
  endloop
endfacet
facet normal 0.544639 -0.000000 0.838671
  outer loop
    vertex -25.750000 0.000000 -44.600307
    vertex -25.750000 15.750000 -44.600307
    vertex -30.270941 0.000000 -41.664375
  endloop
endfacet
facet normal 0.544639 0.000000 0.838671
  outer loop
    vertex -25.750000 15.750000 -44.600307
    vertex -30.270941 15.750000 -41.664375
    vertex -30.270941 0.000000 -41.664375
  endloop
endfacet
facet normal 0.544639 -0.000000 0.838671
  outer loop
    vertex -25.750000 15.750000 -44.600307
    vertex -25.750000 31.500000 -44.600307
    vertex -30.270941 15.750000 -41.664375
  endloop
endfacet
facet normal 0.544639 0.000000 0.838671
  outer loop
    vertex -25.750000 31.500000 -44.600307
    vertex -30.270941 31.500000 -41.664375
    vertex -30.270941 15.750000 -41.664375
  endloop
endfacet
facet normal 0.544639 -0.000000 0.838671
  outer loop
    vertex -25.750000 31.500000 -44.600307
    vertex -25.750000 47.250000 -44.600307
    vertex -30.270941 31.500000 -41.664375
  endloop
endfacet
facet normal 0.544639 0.000000 0.838671
  outer loop
    vertex -25.750000 47.250000 -44.600307
    vertex -30.270941 47.250000 -41.664375
    vertex -30.270941 31.500000 -41.664375
  endloop
endfacet
facet normal 0.544639 -0.000000 0.838671
  outer loop
    vertex -25.750000 47.250000 -44.600307
    vertex -25.750000 63.000000 -44.600307
    vertex -30.270941 47.250000 -41.664375
  endloop
endfacet
facet normal 0.544639 0.000000 0.838671
  outer loop
    vertex -25.750000 63.000000 -44.600307
    vertex -30.270941 63.000000 -41.664375
    vertex -30.270941 47.250000 -41.664375
  endloop
endfacet
facet normal 0.453991 -0.000000 0.891006
  outer loop
    vertex -20.946938 0.000000 -47.047592
    vertex -20.946938 15.750000 -47.047592
    vertex -25.750000 0.000000 -44.600307
  endloop
endfacet
facet normal 0.453991 0.000000 0.891006
  outer loop
    vertex -20.946938 15.750000 -47.047592
    vertex -25.750000 15.750000 -44.600307
    vertex -25.750000 0.000000 -44.600307
  endloop
endfacet
facet normal 0.453991 -0.000000 0.891006
  outer loop
    vertex -20.946938 15.750000 -47.047592
    vertex -20.946938 31.500000 -47.047592
    vertex -25.750000 15.750000 -44.600307
  endloop
endfacet
facet normal 0.453991 0.000000 0.891006
  outer loop
    vertex -20.946938 31.500000 -47.047592
    vertex -25.750000 31.500000 -44.600307
    vertex -25.750000 15.750000 -44.600307
  endloop
endfacet
facet normal 0.453991 -0.000000 0.891006
  outer loop
    vertex -20.946938 31.500000 -47.047592
    vertex -20.946938 47.250000 -47.047592
    vertex -25.750000 31.500000 -44.600307
  endloop
endfacet
facet normal 0.453991 0.000000 0.891006
  outer loop
    vertex -20.946938 47.250000 -47.047592
    vertex -25.750000 47.250000 -44.600307
    vertex -25.750000 31.500000 -44.600307
  endloop
endfacet
facet normal 0.453991 -0.000000 0.891006
  outer loop
    vertex -20.946938 47.250000 -47.047592
    vertex -20.946938 63.000000 -47.047592
    vertex -25.750000 47.250000 -44.600307
  endloop
endfacet
facet normal 0.453991 0.000000 0.891006
  outer loop
    vertex -20.946938 63.000000 -47.047592
    vertex -25.750000 63.000000 -44.600307
    vertex -25.750000 47.250000 -44.600307
  endloop
endfacet
facet normal 0.358368 -0.000000 0.933580
  outer loop
    vertex -15.914375 0.000000 -48.979412
    vertex -15.914375 15.750000 -48.979412
    vertex -20.946938 0.000000 -47.047592
  endloop
endfacet
facet normal 0.358368 0.000000 0.933580
  outer loop
    vertex -15.914375 15.750000 -48.979412
    vertex -20.946938 15.750000 -47.047592
    vertex -20.946938 0.000000 -47.047592
  endloop
endfacet
facet normal 0.358368 -0.000000 0.933580
  outer loop
    vertex -15.914375 15.750000 -48.979412
    vertex -15.914375 31.500000 -48.979412
    vertex -20.946938 15.750000 -47.047592
  endloop
endfacet
facet normal 0.358368 0.000000 0.933580
  outer loop
    vertex -15.914375 31.500000 -48.979412
    vertex -20.946938 31.500000 -47.047592
    vertex -20.946938 15.750000 -47.047592
  endloop
endfacet
facet normal 0.358368 -0.000000 0.933580
  outer loop
    vertex -15.914375 31.500000 -48.979412
    vertex -15.914375 47.250000 -48.979412
    vertex -20.946938 31.500000 -47.047592
  endloop
endfacet
facet normal 0.358368 0.000000 0.933580
  outer loop
    vertex -15.914375 47.250000 -48.979412
    vertex -20.946938 47.250000 -47.047592
    vertex -20.946938 31.500000 -47.047592
  endloop
endfacet
facet normal 0.358368 -0.000000 0.933580
  outer loop
    vertex -15.914375 47.250000 -48.979412
    vertex -15.914375 63.000000 -48.979412
    vertex -20.946938 47.250000 -47.047592
  endloop
endfacet
facet normal 0.358368 0.000000 0.933580
  outer loop
    vertex -15.914375 63.000000 -48.979412
    vertex -20.946938 63.000000 -47.047592
    vertex -20.946938 47.250000 -47.047592
  endloop
endfacet
facet normal 0.258819 -0.000000 0.965926
  outer loop
    vertex -10.707452 0.000000 -50.374603
    vertex -10.707452 15.750000 -50.374603
    vertex -15.914375 0.000000 -48.979412
  endloop
endfacet
facet normal 0.258819 0.000000 0.965926
  outer loop
    vertex -10.707452 15.750000 -50.374603
    vertex -15.914375 15.750000 -48.979412
    vertex -15.914375 0.000000 -48.979412
  endloop
endfacet
facet normal 0.258819 -0.000000 0.965926
  outer loop
    vertex -10.707452 15.750000 -50.374603
    vertex -10.707452 31.500000 -50.374603
    vertex -15.914375 15.750000 -48.979412
  endloop
endfacet
facet normal 0.258819 0.000000 0.965926
  outer loop
    vertex -10.707452 31.500000 -50.374603
    vertex -15.914375 31.500000 -48.979412
    vertex -15.914375 15.750000 -48.979412
  endloop
endfacet
facet normal 0.258819 -0.000000 0.965926
  outer loop
    vertex -10.707452 31.500000 -50.374603
    vertex -10.707452 47.250000 -50.374603
    vertex -15.914375 31.500000 -48.979412
  endloop
endfacet
facet normal 0.258819 0.000000 0.965926
  outer loop
    vertex -10.707452 47.250000 -50.374603
    vertex -15.914375 47.250000 -48.979412
    vertex -15.914375 31.500000 -48.979412
  endloop
endfacet
facet normal 0.258819 -0.000000 0.965926
  outer loop
    vertex -10.707452 47.250000 -50.374603
    vertex -10.707452 63.000000 -50.374603
    vertex -15.914375 47.250000 -48.979412
  endloop
endfacet
facet normal 0.258819 0.000000 0.965926
  outer loop
    vertex -10.707452 63.000000 -50.374603
    vertex -15.914375 63.000000 -48.979412
    vertex -15.914375 47.250000 -48.979412
  endloop
endfacet
facet normal 0.156434 -0.000000 0.987688
  outer loop
    vertex -5.383216 0.000000 -51.217876
    vertex -5.383216 15.750000 -51.217876
    vertex -10.707452 0.000000 -50.374603
  endloop
endfacet
facet normal 0.156434 0.000000 0.987688
  outer loop
    vertex -5.383216 15.750000 -51.217876
    vertex -10.707452 15.750000 -50.374603
    vertex -10.707452 0.000000 -50.374603
  endloop
endfacet
facet normal 0.156434 -0.000000 0.987688
  outer loop
    vertex -5.383216 15.750000 -51.217876
    vertex -5.383216 31.500000 -51.217876
    vertex -10.707452 15.750000 -50.374603
  endloop
endfacet
facet normal 0.156434 0.000000 0.987688
  outer loop
    vertex -5.383216 31.500000 -51.217876
    vertex -10.707452 31.500000 -50.374603
    vertex -10.707452 15.750000 -50.374603
  endloop
endfacet
facet normal 0.156434 -0.000000 0.987688
  outer loop
    vertex -5.383216 31.500000 -51.217876
    vertex -5.383216 47.250000 -51.217876
    vertex -10.707452 31.500000 -50.374603
  endloop
endfacet
facet normal 0.156434 0.000000 0.987688
  outer loop
    vertex -5.383216 47.250000 -51.217876
    vertex -10.707452 47.250000 -50.374603
    vertex -10.707452 31.500000 -50.374603
  endloop
endfacet
facet normal 0.156434 -0.000000 0.987688
  outer loop
    vertex -5.383216 47.250000 -51.217876
    vertex -5.383216 63.000000 -51.217876
    vertex -10.707452 47.250000 -50.374603
  endloop
endfacet
facet normal 0.156434 0.000000 0.987688
  outer loop
    vertex -5.383216 63.000000 -51.217876
    vertex -10.707452 63.000000 -50.374603
    vertex -10.707452 47.250000 -50.374603
  endloop
endfacet
facet normal 0.052336 -0.000000 0.998630
  outer loop
    vertex -0.000000 0.000000 -51.500000
    vertex -0.000000 15.750000 -51.500000
    vertex -5.383216 0.000000 -51.217876
  endloop
endfacet
facet normal 0.052336 0.000000 0.998630
  outer loop
    vertex -0.000000 15.750000 -51.500000
    vertex -5.383216 15.750000 -51.217876
    vertex -5.383216 0.000000 -51.217876
  endloop
endfacet
facet normal 0.052336 -0.000000 0.998630
  outer loop
    vertex -0.000000 15.750000 -51.500000
    vertex -0.000000 31.500000 -51.500000
    vertex -5.383216 15.750000 -51.217876
  endloop
endfacet
facet normal 0.052336 0.000000 0.998630
  outer loop
    vertex -0.000000 31.500000 -51.500000
    vertex -5.383216 31.500000 -51.217876
    vertex -5.383216 15.750000 -51.217876
  endloop
endfacet
facet normal 0.052336 -0.000000 0.998630
  outer loop
    vertex -0.000000 31.500000 -51.500000
    vertex -0.000000 47.250000 -51.500000
    vertex -5.383216 31.500000 -51.217876
  endloop
endfacet
facet normal 0.052336 0.000000 0.998630
  outer loop
    vertex -0.000000 47.250000 -51.500000
    vertex -5.383216 47.250000 -51.217876
    vertex -5.383216 31.500000 -51.217876
  endloop
endfacet
facet normal 0.052336 -0.000000 0.998630
  outer loop
    vertex -0.000000 47.250000 -51.500000
    vertex -0.000000 63.000000 -51.500000
    vertex -5.383216 47.250000 -51.217876
  endloop
endfacet
facet normal 0.052336 0.000000 0.998630
  outer loop
    vertex -0.000000 63.000000 -51.500000
    vertex -5.383216 63.000000 -51.217876
    vertex -5.383216 47.250000 -51.217876
  endloop
endfacet
facet normal -0.052336 0.000000 0.998630
  outer loop
    vertex 5.383216 0.000000 -51.217876
    vertex 5.383216 15.750000 -51.217876
    vertex -0.000000 0.000000 -51.500000
  endloop
endfacet
facet normal -0.052336 0.000000 0.998630
  outer loop
    vertex 5.383216 15.750000 -51.217876
    vertex -0.000000 15.750000 -51.500000
    vertex -0.000000 0.000000 -51.500000
  endloop
endfacet
facet normal -0.052336 0.000000 0.998630
  outer loop
    vertex 5.383216 15.750000 -51.217876
    vertex 5.383216 31.500000 -51.217876
    vertex -0.000000 15.750000 -51.500000
  endloop
endfacet
facet normal -0.052336 0.000000 0.998630
  outer loop
    vertex 5.383216 31.500000 -51.217876
    vertex -0.000000 31.500000 -51.500000
    vertex -0.000000 15.750000 -51.500000
  endloop
endfacet
facet normal -0.052336 0.000000 0.998630
  outer loop
    vertex 5.383216 31.500000 -51.217876
    vertex 5.383216 47.250000 -51.217876
    vertex -0.000000 31.500000 -51.500000
  endloop
endfacet
facet normal -0.052336 0.000000 0.998630
  outer loop
    vertex 5.383216 47.250000 -51.217876
    vertex -0.000000 47.250000 -51.500000
    vertex -0.000000 31.500000 -51.500000
  endloop
endfacet
facet normal -0.052336 0.000000 0.998630
  outer loop
    vertex 5.383216 47.250000 -51.217876
    vertex 5.383216 63.000000 -51.217876
    vertex -0.000000 47.250000 -51.500000
  endloop
endfacet
facet normal -0.052336 0.000000 0.998630
  outer loop
    vertex 5.383216 63.000000 -51.217876
    vertex -0.000000 63.000000 -51.500000
    vertex -0.000000 47.250000 -51.500000
  endloop
endfacet
facet normal -0.156434 0.000000 0.987688
  outer loop
    vertex 10.707452 0.000000 -50.374603
    vertex 10.707452 15.750000 -50.374603
    vertex 5.383216 0.000000 -51.217876
  endloop
endfacet
facet normal -0.156434 0.000000 0.987688
  outer loop
    vertex 10.707452 15.750000 -50.374603
    vertex 5.383216 15.750000 -51.217876
    vertex 5.383216 0.000000 -51.217876
  endloop
endfacet
facet normal -0.156434 0.000000 0.987688
  outer loop
    vertex 10.707452 15.750000 -50.374603
    vertex 10.707452 31.500000 -50.374603
    vertex 5.383216 15.750000 -51.217876
  endloop
endfacet
facet normal -0.156434 0.000000 0.987688
  outer loop
    vertex 10.707452 31.500000 -50.374603
    vertex 5.383216 31.500000 -51.217876
    vertex 5.383216 15.750000 -51.217876
  endloop
endfacet
facet normal -0.156434 0.000000 0.987688
  outer loop
    vertex 10.707452 31.500000 -50.374603
    vertex 10.707452 47.250000 -50.374603
    vertex 5.383216 31.500000 -51.217876
  endloop
endfacet
facet normal -0.156434 0.000000 0.987688
  outer loop
    vertex 10.707452 47.250000 -50.374603
    vertex 5.383216 47.250000 -51.217876
    vertex 5.383216 31.500000 -51.217876
  endloop
endfacet
facet normal -0.156434 0.000000 0.987688
  outer loop
    vertex 10.707452 47.250000 -50.374603
    vertex 10.707452 63.000000 -50.374603
    vertex 5.383216 47.250000 -51.217876
  endloop
endfacet
facet normal -0.156434 0.000000 0.987688
  outer loop
    vertex 10.707452 63.000000 -50.374603
    vertex 5.383216 63.000000 -51.217876
    vertex 5.383216 47.250000 -51.217876
  endloop
endfacet
facet normal -0.258819 0.000000 0.965926
  outer loop
    vertex 15.914375 0.000000 -48.979412
    vertex 15.914375 15.750000 -48.979412
    vertex 10.707452 0.000000 -50.374603
  endloop
endfacet
facet normal -0.258819 0.000000 0.965926
  outer loop
    vertex 15.914375 15.750000 -48.979412
    vertex 10.707452 15.750000 -50.374603
    vertex 10.707452 0.000000 -50.374603
  endloop
endfacet
facet normal -0.258819 0.000000 0.965926
  outer loop
    vertex 15.914375 15.750000 -48.979412
    vertex 15.914375 31.500000 -48.979412
    vertex 10.707452 15.750000 -50.374603
  endloop
endfacet
facet normal -0.258819 0.000000 0.965926
  outer loop
    vertex 15.914375 31.500000 -48.979412
    vertex 10.707452 31.500000 -50.374603
    vertex 10.707452 15.750000 -50.374603
  endloop
endfacet
facet normal -0.258819 0.000000 0.965926
  outer loop
    vertex 15.914375 31.500000 -48.979412
    vertex 15.914375 47.250000 -48.979412
    vertex 10.707452 31.500000 -50.374603
  endloop
endfacet
facet normal -0.258819 0.000000 0.965926
  outer loop
    vertex 15.914375 47.250000 -48.979412
    vertex 10.707452 47.250000 -50.374603
    vertex 10.707452 31.500000 -50.374603
  endloop
endfacet
facet normal -0.258819 0.000000 0.965926
  outer loop
    vertex 15.914375 47.250000 -48.979412
    vertex 15.914375 63.000000 -48.979412
    vertex 10.707452 47.250000 -50.374603
  endloop
endfacet
facet normal -0.258819 0.000000 0.965926
  outer loop
    vertex 15.914375 63.000000 -48.979412
    vertex 10.707452 63.000000 -50.374603
    vertex 10.707452 47.250000 -50.374603
  endloop
endfacet
facet normal -0.358368 0.000000 0.933580
  outer loop
    vertex 20.946938 0.000000 -47.047592
    vertex 20.946938 15.750000 -47.047592
    vertex 15.914375 0.000000 -48.979412
  endloop
endfacet
facet normal -0.358368 0.000000 0.933580
  outer loop
    vertex 20.946938 15.750000 -47.047592
    vertex 15.914375 15.750000 -48.979412
    vertex 15.914375 0.000000 -48.979412
  endloop
endfacet
facet normal -0.358368 0.000000 0.933580
  outer loop
    vertex 20.946938 15.750000 -47.047592
    vertex 20.946938 31.500000 -47.047592
    vertex 15.914375 15.750000 -48.979412
  endloop
endfacet
facet normal -0.358368 0.000000 0.933580
  outer loop
    vertex 20.946938 31.500000 -47.047592
    vertex 15.914375 31.500000 -48.979412
    vertex 15.914375 15.750000 -48.979412
  endloop
endfacet
facet normal -0.358368 0.000000 0.933580
  outer loop
    vertex 20.946938 31.500000 -47.047592
    vertex 20.946938 47.250000 -47.047592
    vertex 15.914375 31.500000 -48.979412
  endloop
endfacet
facet normal -0.358368 0.000000 0.933580
  outer loop
    vertex 20.946938 47.250000 -47.047592
    vertex 15.914375 47.250000 -48.979412
    vertex 15.914375 31.500000 -48.979412
  endloop
endfacet
facet normal -0.358368 0.000000 0.933580
  outer loop
    vertex 20.946938 47.250000 -47.047592
    vertex 20.946938 63.000000 -47.047592
    vertex 15.914375 47.250000 -48.979412
  endloop
endfacet
facet normal -0.358368 0.000000 0.933580
  outer loop
    vertex 20.946938 63.000000 -47.047592
    vertex 15.914375 63.000000 -48.979412
    vertex 15.914375 47.250000 -48.979412
  endloop
endfacet
facet normal -0.453991 0.000000 0.891006
  outer loop
    vertex 25.750000 0.000000 -44.600307
    vertex 25.750000 15.750000 -44.600307
    vertex 20.946938 0.000000 -47.047592
  endloop
endfacet
facet normal -0.453991 0.000000 0.891006
  outer loop
    vertex 25.750000 15.750000 -44.600307
    vertex 20.946938 15.750000 -47.047592
    vertex 20.946938 0.000000 -47.047592
  endloop
endfacet
facet normal -0.453991 0.000000 0.891006
  outer loop
    vertex 25.750000 15.750000 -44.600307
    vertex 25.750000 31.500000 -44.600307
    vertex 20.946938 15.750000 -47.047592
  endloop
endfacet
facet normal -0.453991 0.000000 0.891006
  outer loop
    vertex 25.750000 31.500000 -44.600307
    vertex 20.946938 31.500000 -47.047592
    vertex 20.946938 15.750000 -47.047592
  endloop
endfacet
facet normal -0.453991 0.000000 0.891006
  outer loop
    vertex 25.750000 31.500000 -44.600307
    vertex 25.750000 47.250000 -44.600307
    vertex 20.946938 31.500000 -47.047592
  endloop
endfacet
facet normal -0.453991 0.000000 0.891006
  outer loop
    vertex 25.750000 47.250000 -44.600307
    vertex 20.946938 47.250000 -47.047592
    vertex 20.946938 31.500000 -47.047592
  endloop
endfacet
facet normal -0.453991 0.000000 0.891006
  outer loop
    vertex 25.750000 47.250000 -44.600307
    vertex 25.750000 63.000000 -44.600307
    vertex 20.946938 47.250000 -47.047592
  endloop
endfacet
facet normal -0.453991 0.000000 0.891006
  outer loop
    vertex 25.750000 63.000000 -44.600307
    vertex 20.946938 63.000000 -47.047592
    vertex 20.946938 47.250000 -47.047592
  endloop
endfacet
facet normal -0.544639 0.000000 0.838671
  outer loop
    vertex 30.270941 0.000000 -41.664375
    vertex 30.270941 15.750000 -41.664375
    vertex 25.750000 0.000000 -44.600307
  endloop
endfacet
facet normal -0.544639 0.000000 0.838671
  outer loop
    vertex 30.270941 15.750000 -41.664375
    vertex 25.750000 15.750000 -44.600307
    vertex 25.750000 0.000000 -44.600307
  endloop
endfacet
facet normal -0.544639 0.000000 0.838671
  outer loop
    vertex 30.270941 15.750000 -41.664375
    vertex 30.270941 31.500000 -41.664375
    vertex 25.750000 15.750000 -44.600307
  endloop
endfacet
facet normal -0.544639 0.000000 0.838671
  outer loop
    vertex 30.270941 31.500000 -41.664375
    vertex 25.750000 31.500000 -44.600307
    vertex 25.750000 15.750000 -44.600307
  endloop
endfacet
facet normal -0.544639 0.000000 0.838671
  outer loop
    vertex 30.270941 31.500000 -41.664375
    vertex 30.270941 47.250000 -41.664375
    vertex 25.750000 31.500000 -44.600307
  endloop
endfacet
facet normal -0.544639 0.000000 0.838671
  outer loop
    vertex 30.270941 47.250000 -41.664375
    vertex 25.750000 47.250000 -44.600307
    vertex 25.750000 31.500000 -44.600307
  endloop
endfacet
facet normal -0.544639 0.000000 0.838671
  outer loop
    vertex 30.270941 47.250000 -41.664375
    vertex 30.270941 63.000000 -41.664375
    vertex 25.750000 47.250000 -44.600307
  endloop
endfacet
facet normal -0.544639 0.000000 0.838671
  outer loop
    vertex 30.270941 63.000000 -41.664375
    vertex 25.750000 63.000000 -44.600307
    vertex 25.750000 47.250000 -44.600307
  endloop
endfacet
facet normal -0.629320 0.000000 0.777146
  outer loop
    vertex 34.460228 0.000000 -38.271957
    vertex 34.460228 15.750000 -38.271957
    vertex 30.270941 0.000000 -41.664375
  endloop
endfacet
facet normal -0.629320 0.000000 0.777146
  outer loop
    vertex 34.460228 15.750000 -38.271957
    vertex 30.270941 15.750000 -41.664375
    vertex 30.270941 0.000000 -41.664375
  endloop
endfacet
facet normal -0.629320 0.000000 0.777146
  outer loop
    vertex 34.460228 15.750000 -38.271957
    vertex 34.460228 31.500000 -38.271957
    vertex 30.270941 15.750000 -41.664375
  endloop
endfacet
facet normal -0.629320 0.000000 0.777146
  outer loop
    vertex 34.460228 31.500000 -38.271957
    vertex 30.270941 31.500000 -41.664375
    vertex 30.270941 15.750000 -41.664375
  endloop
endfacet
facet normal -0.629320 0.000000 0.777146
  outer loop
    vertex 34.460228 31.500000 -38.271957
    vertex 34.460228 47.250000 -38.271957
    vertex 30.270941 31.500000 -41.664375
  endloop
endfacet
facet normal -0.629320 0.000000 0.777146
  outer loop
    vertex 34.460228 47.250000 -38.271957
    vertex 30.270941 47.250000 -41.664375
    vertex 30.270941 31.500000 -41.664375
  endloop
endfacet
facet normal -0.629320 0.000000 0.777146
  outer loop
    vertex 34.460228 47.250000 -38.271957
    vertex 34.460228 63.000000 -38.271957
    vertex 30.270941 47.250000 -41.664375
  endloop
endfacet
facet normal -0.629320 0.000000 0.777146
  outer loop
    vertex 34.460228 63.000000 -38.271957
    vertex 30.270941 63.000000 -41.664375
    vertex 30.270941 47.250000 -41.664375
  endloop
endfacet
facet normal -0.707107 0.000000 0.707107
  outer loop
    vertex 38.271957 0.000000 -34.460228
    vertex 38.271957 15.750000 -34.460228
    vertex 34.460228 0.000000 -38.271957
  endloop
endfacet
facet normal -0.707107 0.000000 0.707107
  outer loop
    vertex 38.271957 15.750000 -34.460228
    vertex 34.460228 15.750000 -38.271957
    vertex 34.460228 0.000000 -38.271957
  endloop
endfacet
facet normal -0.707107 0.000000 0.707107
  outer loop
    vertex 38.271957 15.750000 -34.460228
    vertex 38.271957 31.500000 -34.460228
    vertex 34.460228 15.750000 -38.271957
  endloop
endfacet
facet normal -0.707107 0.000000 0.707107
  outer loop
    vertex 38.271957 31.500000 -34.460228
    vertex 34.460228 31.500000 -38.271957
    vertex 34.460228 15.750000 -38.271957
  endloop
endfacet
facet normal -0.707107 0.000000 0.707107
  outer loop
    vertex 38.271957 31.500000 -34.460228
    vertex 38.271957 47.250000 -34.460228
    vertex 34.460228 31.500000 -38.271957
  endloop
endfacet
facet normal -0.707107 0.000000 0.707107
  outer loop
    vertex 38.271957 47.250000 -34.460228
    vertex 34.460228 47.250000 -38.271957
    vertex 34.460228 31.500000 -38.271957
  endloop
endfacet
facet normal -0.707107 0.000000 0.707107
  outer loop
    vertex 38.271957 47.250000 -34.460228
    vertex 38.271957 63.000000 -34.460228
    vertex 34.460228 47.250000 -38.271957
  endloop
endfacet
facet normal -0.707107 0.000000 0.707107
  outer loop
    vertex 38.271957 63.000000 -34.460228
    vertex 34.460228 63.000000 -38.271957
    vertex 34.460228 47.250000 -38.271957
  endloop
endfacet
facet normal -0.777146 0.000000 0.629320
  outer loop
    vertex 41.664375 0.000000 -30.270941
    vertex 41.664375 15.750000 -30.270941
    vertex 38.271957 0.000000 -34.460228
  endloop
endfacet
facet normal -0.777146 0.000000 0.629320
  outer loop
    vertex 41.664375 15.750000 -30.270941
    vertex 38.271957 15.750000 -34.460228
    vertex 38.271957 0.000000 -34.460228
  endloop
endfacet
facet normal -0.777146 0.000000 0.629320
  outer loop
    vertex 41.664375 15.750000 -30.270941
    vertex 41.664375 31.500000 -30.270941
    vertex 38.271957 15.750000 -34.460228
  endloop
endfacet
facet normal -0.777146 0.000000 0.629320
  outer loop
    vertex 41.664375 31.500000 -30.270941
    vertex 38.271957 31.500000 -34.460228
    vertex 38.271957 15.750000 -34.460228
  endloop
endfacet
facet normal -0.777146 0.000000 0.629320
  outer loop
    vertex 41.664375 31.500000 -30.270941
    vertex 41.664375 47.250000 -30.270941
    vertex 38.271957 31.500000 -34.460228
  endloop
endfacet
facet normal -0.777146 0.000000 0.629320
  outer loop
    vertex 41.664375 47.250000 -30.270941
    vertex 38.271957 47.250000 -34.460228
    vertex 38.271957 31.500000 -34.460228
  endloop
endfacet
facet normal -0.777146 0.000000 0.629320
  outer loop
    vertex 41.664375 47.250000 -30.270941
    vertex 41.664375 63.000000 -30.270941
    vertex 38.271957 47.250000 -34.460228
  endloop
endfacet
facet normal -0.777146 0.000000 0.629320
  outer loop
    vertex 41.664375 63.000000 -30.270941
    vertex 38.271957 63.000000 -34.460228
    vertex 38.271957 47.250000 -34.460228
  endloop
endfacet
facet normal -0.838671 0.000000 0.544639
  outer loop
    vertex 44.600307 0.000000 -25.750000
    vertex 44.600307 15.750000 -25.750000
    vertex 41.664375 0.000000 -30.270941
  endloop
endfacet
facet normal -0.838671 0.000000 0.544639
  outer loop
    vertex 44.600307 15.750000 -25.750000
    vertex 41.664375 15.750000 -30.270941
    vertex 41.664375 0.000000 -30.270941
  endloop
endfacet
facet normal -0.838671 0.000000 0.544639
  outer loop
    vertex 44.600307 15.750000 -25.750000
    vertex 44.600307 31.500000 -25.750000
    vertex 41.664375 15.750000 -30.270941
  endloop
endfacet
facet normal -0.838671 0.000000 0.544639
  outer loop
    vertex 44.600307 31.500000 -25.750000
    vertex 41.664375 31.500000 -30.270941
    vertex 41.664375 15.750000 -30.270941
  endloop
endfacet
facet normal -0.838671 0.000000 0.544639
  outer loop
    vertex 44.600307 31.500000 -25.750000
    vertex 44.600307 47.250000 -25.750000
    vertex 41.664375 31.500000 -30.270941
  endloop
endfacet
facet normal -0.838671 0.000000 0.544639
  outer loop
    vertex 44.600307 47.250000 -25.750000
    vertex 41.664375 47.250000 -30.270941
    vertex 41.664375 31.500000 -30.270941
  endloop
endfacet
facet normal -0.838671 0.000000 0.544639
  outer loop
    vertex 44.600307 47.250000 -25.750000
    vertex 44.600307 63.000000 -25.750000
    vertex 41.664375 47.250000 -30.270941
  endloop
endfacet
facet normal -0.838671 0.000000 0.544639
  outer loop
    vertex 44.600307 63.000000 -25.750000
    vertex 41.664375 63.000000 -30.270941
    vertex 41.664375 47.250000 -30.270941
  endloop
endfacet
facet normal -0.891006 0.000000 0.453991
  outer loop
    vertex 47.047592 0.000000 -20.946938
    vertex 47.047592 15.750000 -20.946938
    vertex 44.600307 0.000000 -25.750000
  endloop
endfacet
facet normal -0.891006 0.000000 0.453991
  outer loop
    vertex 47.047592 15.750000 -20.946938
    vertex 44.600307 15.750000 -25.750000
    vertex 44.600307 0.000000 -25.750000
  endloop
endfacet
facet normal -0.891006 0.000000 0.453991
  outer loop
    vertex 47.047592 15.750000 -20.946938
    vertex 47.047592 31.500000 -20.946938
    vertex 44.600307 15.750000 -25.750000
  endloop
endfacet
facet normal -0.891006 0.000000 0.453991
  outer loop
    vertex 47.047592 31.500000 -20.946938
    vertex 44.600307 31.500000 -25.750000
    vertex 44.600307 15.750000 -25.750000
  endloop
endfacet
facet normal -0.891006 0.000000 0.453991
  outer loop
    vertex 47.047592 31.500000 -20.946938
    vertex 47.047592 47.250000 -20.946938
    vertex 44.600307 31.500000 -25.750000
  endloop
endfacet
facet normal -0.891006 0.000000 0.453991
  outer loop
    vertex 47.047592 47.250000 -20.946938
    vertex 44.600307 47.250000 -25.750000
    vertex 44.600307 31.500000 -25.750000
  endloop
endfacet
facet normal -0.891006 0.000000 0.453991
  outer loop
    vertex 47.047592 47.250000 -20.946938
    vertex 47.047592 63.000000 -20.946938
    vertex 44.600307 47.250000 -25.750000
  endloop
endfacet
facet normal -0.891006 0.000000 0.453991
  outer loop
    vertex 47.047592 63.000000 -20.946938
    vertex 44.600307 63.000000 -25.750000
    vertex 44.600307 47.250000 -25.750000
  endloop
endfacet
facet normal -0.933580 0.000000 0.358368
  outer loop
    vertex 48.979412 0.000000 -15.914375
    vertex 48.979412 15.750000 -15.914375
    vertex 47.047592 0.000000 -20.946938
  endloop
endfacet
facet normal -0.933580 0.000000 0.358368
  outer loop
    vertex 48.979412 15.750000 -15.914375
    vertex 47.047592 15.750000 -20.946938
    vertex 47.047592 0.000000 -20.946938
  endloop
endfacet
facet normal -0.933580 0.000000 0.358368
  outer loop
    vertex 48.979412 15.750000 -15.914375
    vertex 48.979412 31.500000 -15.914375
    vertex 47.047592 15.750000 -20.946938
  endloop
endfacet
facet normal -0.933580 0.000000 0.358368
  outer loop
    vertex 48.979412 31.500000 -15.914375
    vertex 47.047592 31.500000 -20.946938
    vertex 47.047592 15.750000 -20.946938
  endloop
endfacet
facet normal -0.933580 0.000000 0.358368
  outer loop
    vertex 48.979412 31.500000 -15.914375
    vertex 48.979412 47.250000 -15.914375
    vertex 47.047592 31.500000 -20.946938
  endloop
endfacet
facet normal -0.933580 0.000000 0.358368
  outer loop
    vertex 48.979412 47.250000 -15.914375
    vertex 47.047592 47.250000 -20.946938
    vertex 47.047592 31.500000 -20.946938
  endloop
endfacet
facet normal -0.933580 0.000000 0.358368
  outer loop
    vertex 48.979412 47.250000 -15.914375
    vertex 48.979412 63.000000 -15.914375
    vertex 47.047592 47.250000 -20.946938
  endloop
endfacet
facet normal -0.933580 0.000000 0.358368
  outer loop
    vertex 48.979412 63.000000 -15.914375
    vertex 47.047592 63.000000 -20.946938
    vertex 47.047592 47.250000 -20.946938
  endloop
endfacet
facet normal -0.965926 0.000000 0.258819
  outer loop
    vertex 50.374603 0.000000 -10.707452
    vertex 50.374603 15.750000 -10.707452
    vertex 48.979412 0.000000 -15.914375
  endloop
endfacet
facet normal -0.965926 0.000000 0.258819
  outer loop
    vertex 50.374603 15.750000 -10.707452
    vertex 48.979412 15.750000 -15.914375
    vertex 48.979412 0.000000 -15.914375
  endloop
endfacet
facet normal -0.965926 0.000000 0.258819
  outer loop
    vertex 50.374603 15.750000 -10.707452
    vertex 50.374603 31.500000 -10.707452
    vertex 48.979412 15.750000 -15.914375
  endloop
endfacet
facet normal -0.965926 0.000000 0.258819
  outer loop
    vertex 50.374603 31.500000 -10.707452
    vertex 48.979412 31.500000 -15.914375
    vertex 48.979412 15.750000 -15.914375
  endloop
endfacet
facet normal -0.965926 0.000000 0.258819
  outer loop
    vertex 50.374603 31.500000 -10.707452
    vertex 50.374603 47.250000 -10.707452
    vertex 48.979412 31.500000 -15.914375
  endloop
endfacet
facet normal -0.965926 0.000000 0.258819
  outer loop
    vertex 50.374603 47.250000 -10.707452
    vertex 48.979412 47.250000 -15.914375
    vertex 48.979412 31.500000 -15.914375
  endloop
endfacet
facet normal -0.965926 0.000000 0.258819
  outer loop
    vertex 50.374603 47.250000 -10.707452
    vertex 50.374603 63.000000 -10.707452
    vertex 48.979412 47.250000 -15.914375
  endloop
endfacet
facet normal -0.965926 0.000000 0.258819
  outer loop
    vertex 50.374603 63.000000 -10.707452
    vertex 48.979412 63.000000 -15.914375
    vertex 48.979412 47.250000 -15.914375
  endloop
endfacet
facet normal -0.987688 0.000000 0.156434
  outer loop
    vertex 51.217876 0.000000 -5.383216
    vertex 51.217876 15.750000 -5.383216
    vertex 50.374603 0.000000 -10.707452
  endloop
endfacet
facet normal -0.987688 0.000000 0.156434
  outer loop
    vertex 51.217876 15.750000 -5.383216
    vertex 50.374603 15.750000 -10.707452
    vertex 50.374603 0.000000 -10.707452
  endloop
endfacet
facet normal -0.987688 0.000000 0.156434
  outer loop
    vertex 51.217876 15.750000 -5.383216
    vertex 51.217876 31.500000 -5.383216
    vertex 50.374603 15.750000 -10.707452
  endloop
endfacet
facet normal -0.987688 0.000000 0.156434
  outer loop
    vertex 51.217876 31.500000 -5.383216
    vertex 50.374603 31.500000 -10.707452
    vertex 50.374603 15.750000 -10.707452
  endloop
endfacet
facet normal -0.987688 0.000000 0.156434
  outer loop
    vertex 51.217876 31.500000 -5.383216
    vertex 51.217876 47.250000 -5.383216
    vertex 50.374603 31.500000 -10.707452
  endloop
endfacet
facet normal -0.987688 0.000000 0.156434
  outer loop
    vertex 51.217876 47.250000 -5.383216
    vertex 50.374603 47.250000 -10.707452
    vertex 50.374603 31.500000 -10.707452
  endloop
endfacet
facet normal -0.987688 0.000000 0.156434
  outer loop
    vertex 51.217876 47.250000 -5.383216
    vertex 51.217876 63.000000 -5.383216
    vertex 50.374603 47.250000 -10.707452
  endloop
endfacet
facet normal -0.987688 0.000000 0.156434
  outer loop
    vertex 51.217876 63.000000 -5.383216
    vertex 50.374603 63.000000 -10.707452
    vertex 50.374603 47.250000 -10.707452
  endloop
endfacet
endsolid shell.stl
