solid cov1.stl
facet normal 41.079567 0.000000 -0.000000
  outer loop
    vertex 0.000000 -38.271957 -34.460228
    vertex 0.000000 -34.045860 -27.569794
    vertex 0.000000 -41.664375 -30.270941
  endloop
endfacet
facet normal 79.679535 0.000000 -0.000000
  outer loop
    vertex 0.000000 39.890118 15.312382
    vertex 0.000000 47.047592 20.946938
    vertex 0.000000 35.973469 23.361444
  endloop
endfacet
facet normal 46.905350 -0.000000 0.000000
  outer loop
    vertex 0.000000 42.202049 -6.684148
    vertex 0.000000 50.374603 -10.707452
    vertex 0.000000 51.217876 -5.383216
  endloop
endfacet
facet normal 71.991379 -0.000000 0.000000
  outer loop
    vertex 0.000000 -44.600307 -25.750000
    vertex 0.000000 -34.045860 -27.569794
    vertex 0.000000 -39.033958 -19.888796
  endloop
endfacet
facet normal 42.373249 0.000000 0.000000
  outer loop
    vertex 0.000000 -39.033958 -19.888796
    vertex 0.000000 -48.979412 -15.914375
    vertex 0.000000 -47.047592 -20.946938
  endloop
endfacet
facet normal 87.278412 0.000000 -0.000000
  outer loop
    vertex 0.000000 13.039662 29.287561
    vertex 0.000000 15.080689 39.286541
    vertex 0.000000 5.773667 36.453499
  endloop
endfacet
facet normal 42.373238 0.000000 0.000000
  outer loop
    vertex 0.000000 -44.600307 -25.750000
    vertex 0.000000 -41.664375 -30.270941
    vertex 0.000000 -34.045860 -27.569794
  endloop
endfacet
facet normal 66.189842 0.000000 0.000000
  outer loop
    vertex 0.000000 -5.579571 29.724562
    vertex 0.000000 -16.029613 27.764105
    vertex 0.000000 -7.856699 22.963436
  endloop
endfacet
facet normal 42.354248 -0.000000 0.000000
  outer loop
    vertex 0.000000 37.261986 9.357872
    vertex 0.000000 43.269478 6.853212
    vertex 0.000000 39.890118 15.312382
  endloop
endfacet
facet normal 41.079556 -0.000000 0.000000
  outer loop
    vertex 0.000000 -47.047592 -20.946938
    vertex 0.000000 -44.600307 -25.750000
    vertex 0.000000 -39.033958 -19.888796
  endloop
endfacet
facet normal 61.004585 0.000000 -0.000000
  outer loop
    vertex 0.000000 -34.045860 -27.569794
    vertex 0.000000 -30.953566 -20.101480
    vertex 0.000000 -39.033958 -19.888796
  endloop
endfacet
facet normal 52.065842 0.000000 0.000000
  outer loop
    vertex 0.000000 31.533005 16.223282
    vertex 0.000000 30.927917 7.860247
    vertex 0.000000 37.261986 9.357872
  endloop
endfacet
facet normal 56.807808 0.000000 0.000000
  outer loop
    vertex 0.000000 -6.684148 -42.202049
    vertex 0.000000 -5.383216 -51.217876
    vertex 0.000000 -0.053551 -44.486958
  endloop
endfacet
facet normal 54.829025 0.000000 0.000000
  outer loop
    vertex 0.000000 9.355786 43.435036
    vertex 0.000000 5.773667 36.453499
    vertex 0.000000 15.080689 39.286541
  endloop
endfacet
facet normal 55.125004 0.000000 -0.000000
  outer loop
    vertex 0.000000 -22.289856 -38.500061
    vertex 0.000000 -16.755835 -32.885178
    vertex 0.000000 -26.889666 -33.205971
  endloop
endfacet
facet normal 71.991394 0.000000 0.000000
  outer loop
    vertex 0.000000 34.460228 38.271957
    vertex 0.000000 23.860003 36.741180
    vertex 0.000000 30.977524 30.977524
  endloop
endfacet
facet normal 57.445644 0.000000 0.000000
  outer loop
    vertex 0.000000 2.292777 43.748798
    vertex 0.000000 -6.853212 43.269478
    vertex 0.000000 -1.951947 37.245377
  endloop
endfacet
facet normal 78.922218 0.000000 0.000000
  outer loop
    vertex 0.000000 -15.699682 -40.899071
    vertex 0.000000 -10.707452 -50.374603
    vertex 0.000000 -6.684148 -42.202049
  endloop
endfacet
facet normal 78.922218 0.000000 0.000000
  outer loop
    vertex 0.000000 -34.460228 -38.271957
    vertex 0.000000 -26.889666 -33.205971
    vertex 0.000000 -34.045860 -27.569794
  endloop
endfacet
facet normal 86.323021 0.000000 0.000000
  outer loop
    vertex 0.000000 33.205971 -26.889666
    vertex 0.000000 32.885178 -16.755835
    vertex 0.000000 24.535801 -22.092134
  endloop
endfacet
facet normal 41.079571 -0.000000 0.000000
  outer loop
    vertex 0.000000 -20.946938 -47.047592
    vertex 0.000000 -15.914375 -48.979412
    vertex 0.000000 -15.699682 -40.899071
  endloop
endfacet
facet normal 92.979301 0.000000 -0.000000
  outer loop
    vertex 0.000000 -16.029613 27.764105
    vertex 0.000000 -15.699682 40.899071
    vertex 0.000000 -22.919271 35.292583
  endloop
endfacet
facet normal 37.737602 0.000000 0.000000
  outer loop
    vertex 0.000000 38.500061 -22.289856
    vertex 0.000000 41.664375 -30.270941
    vertex 0.000000 44.600307 -25.750000
  endloop
endfacet
facet normal 53.108040 0.000000 0.000000
  outer loop
    vertex 0.000000 -22.289856 -38.500061
    vertex 0.000000 -20.946938 -47.047592
    vertex 0.000000 -15.699682 -40.899071
  endloop
endfacet
facet normal 38.019623 0.000000 0.000000
  outer loop
    vertex 0.000000 -40.540699 18.181992
    vertex 0.000000 -44.600307 25.750000
    vertex 0.000000 -47.047592 20.946938
  endloop
endfacet
facet normal 42.373260 -0.000000 0.000000
  outer loop
    vertex 0.000000 -25.750000 44.600307
    vertex 0.000000 -15.699682 40.899071
    vertex 0.000000 -20.946938 47.047592
  endloop
endfacet
facet normal 42.373257 0.000000 -0.000000
  outer loop
    vertex 0.000000 48.979412 -15.914375
    vertex 0.000000 50.374603 -10.707452
    vertex 0.000000 40.899071 -15.699682
  endloop
endfacet
facet normal 41.079563 0.000000 0.000000
  outer loop
    vertex 0.000000 -50.374603 -10.707452
    vertex 0.000000 -48.979412 -15.914375
    vertex 0.000000 -42.316086 -11.338561
  endloop
endfacet
facet normal 38.019608 0.000000 0.000000
  outer loop
    vertex 0.000000 -44.200272 -4.524283
    vertex 0.000000 -51.500000 0.000000
    vertex 0.000000 -51.217876 -5.383216
  endloop
endfacet
facet normal 50.390511 0.000000 0.000000
  outer loop
    vertex 0.000000 -42.023907 2.202380
    vertex 0.000000 -51.217876 5.383216
    vertex 0.000000 -51.500000 0.000000
  endloop
endfacet
facet normal 41.079533 0.000000 0.000000
  outer loop
    vertex 0.000000 34.460228 38.271957
    vertex 0.000000 30.977524 30.977524
    vertex 0.000000 38.271957 34.460228
  endloop
endfacet
facet normal 56.807827 0.000000 0.000000
  outer loop
    vertex 0.000000 -26.889666 -33.205971
    vertex 0.000000 -30.270941 -41.664375
    vertex 0.000000 -22.289856 -38.500061
  endloop
endfacet
facet normal 53.723854 0.000000 0.000000
  outer loop
    vertex 0.000000 -40.540699 18.181992
    vertex 0.000000 -48.979412 15.914375
    vertex 0.000000 -42.316086 11.338561
  endloop
endfacet
facet normal 83.068398 0.000000 0.000000
  outer loop
    vertex 0.000000 -42.023907 2.202380
    vertex 0.000000 -42.316086 11.338561
    vertex 0.000000 -51.217876 5.383216
  endloop
endfacet
facet normal 54.829044 -0.000000 0.000000
  outer loop
    vertex 0.000000 -44.200272 -4.524283
    vertex 0.000000 -36.453499 -5.773667
    vertex 0.000000 -42.023907 2.202380
  endloop
endfacet
facet normal 41.079567 0.000000 0.000000
  outer loop
    vertex 0.000000 -42.316086 11.338561
    vertex 0.000000 -48.979412 15.914375
    vertex 0.000000 -50.374603 10.707452
  endloop
endfacet
facet normal 58.949280 0.000000 -0.000000
  outer loop
    vertex 0.000000 -40.540699 18.181992
    vertex 0.000000 -35.292583 22.919271
    vertex 0.000000 -44.600307 25.750000
  endloop
endfacet
facet normal 53.604237 0.000000 0.000000
  outer loop
    vertex 0.000000 -30.953566 -20.101480
    vertex 0.000000 -34.819271 -13.365866
    vertex 0.000000 -39.033958 -19.888796
  endloop
endfacet
facet normal 53.723854 -0.000000 0.000000
  outer loop
    vertex 0.000000 -50.374603 -10.707452
    vertex 0.000000 -42.316086 -11.338561
    vertex 0.000000 -44.200272 -4.524283
  endloop
endfacet
facet normal 79.892166 0.000000 0.000000
  outer loop
    vertex 0.000000 -22.092134 -24.535801
    vertex 0.000000 -30.953566 -20.101480
    vertex 0.000000 -34.045860 -27.569794
  endloop
endfacet
facet normal 46.905388 0.000000 0.000000
  outer loop
    vertex 0.000000 -26.889666 -33.205971
    vertex 0.000000 -34.460228 -38.271957
    vertex 0.000000 -30.270941 -41.664375
  endloop
endfacet
facet normal 50.390495 -0.000000 0.000000
  outer loop
    vertex 0.000000 -44.600307 25.750000
    vertex 0.000000 -35.292583 22.919271
    vertex 0.000000 -41.664375 30.270941
  endloop
endfacet
facet normal 41.079540 0.000000 0.000000
  outer loop
    vertex 0.000000 5.383216 -51.217876
    vertex 0.000000 10.707452 -50.374603
    vertex 0.000000 6.853212 -43.269478
  endloop
endfacet
facet normal 92.113686 0.000000 -0.000000
  outer loop
    vertex 0.000000 -32.520905 29.789848
    vertex 0.000000 -22.919271 35.292583
    vertex 0.000000 -34.460228 38.271957
  endloop
endfacet
facet normal 58.949299 0.000000 0.000000
  outer loop
    vertex 0.000000 -42.023907 2.202380
    vertex 0.000000 -51.500000 0.000000
    vertex 0.000000 -44.200272 -4.524283
  endloop
endfacet
facet normal 53.108009 -0.000000 0.000000
  outer loop
    vertex 0.000000 -0.053551 -44.486958
    vertex 0.000000 5.383216 -51.217876
    vertex 0.000000 6.853212 -43.269478
  endloop
endfacet
facet normal 39.723682 0.000000 0.000000
  outer loop
    vertex 0.000000 -32.520905 29.789848
    vertex 0.000000 -34.460228 38.271957
    vertex 0.000000 -38.271957 34.460228
  endloop
endfacet
facet normal 51.633202 0.000000 0.000000
  outer loop
    vertex 0.000000 -22.919271 35.292583
    vertex 0.000000 -30.270941 41.664375
    vertex 0.000000 -34.460228 38.271957
  endloop
endfacet
facet normal 54.829033 -0.000000 0.000000
  outer loop
    vertex 0.000000 -40.540699 18.181992
    vertex 0.000000 -34.456490 13.226607
    vertex 0.000000 -35.292583 22.919271
  endloop
endfacet
facet normal 50.390495 0.000000 0.000000
  outer loop
    vertex 0.000000 -25.750000 44.600307
    vertex 0.000000 -30.270941 41.664375
    vertex 0.000000 -22.919271 35.292583
  endloop
endfacet
facet normal 64.154350 0.000000 0.000000
  outer loop
    vertex 0.000000 -32.520905 29.789848
    vertex 0.000000 -41.664375 30.270941
    vertex 0.000000 -35.292583 22.919271
  endloop
endfacet
facet normal 87.278381 0.000000 0.000000
  outer loop
    vertex 0.000000 -31.883604 3.351102
    vertex 0.000000 -42.023907 2.202380
    vertex 0.000000 -36.453499 -5.773667
  endloop
endfacet
facet normal 83.068390 0.000000 -0.000000
  outer loop
    vertex 0.000000 -22.919271 35.292583
    vertex 0.000000 -15.699682 40.899071
    vertex 0.000000 -25.750000 44.600307
  endloop
endfacet
facet normal 69.133232 0.000000 0.000000
  outer loop
    vertex 0.000000 -30.504116 -3.046516
    vertex 0.000000 -34.819271 -13.365866
    vertex 0.000000 -25.632021 -7.416319
  endloop
endfacet
facet normal 41.079571 -0.000000 0.000000
  outer loop
    vertex 0.000000 -20.946938 47.047592
    vertex 0.000000 -15.699682 40.899071
    vertex 0.000000 -15.914375 48.979412
  endloop
endfacet
facet normal 42.373207 -0.000000 0.000000
  outer loop
    vertex 0.000000 -38.271957 -34.460228
    vertex 0.000000 -34.460228 -38.271957
    vertex 0.000000 -34.045860 -27.569794
  endloop
endfacet
facet normal 89.085159 0.000000 0.000000
  outer loop
    vertex 0.000000 -22.092134 -24.535801
    vertex 0.000000 -34.045860 -27.569794
    vertex 0.000000 -26.889666 -33.205971
  endloop
endfacet
facet normal 61.004559 0.000000 0.000000
  outer loop
    vertex 0.000000 23.226892 28.682823
    vertex 0.000000 30.977524 30.977524
    vertex 0.000000 23.860003 36.741180
  endloop
endfacet
facet normal 56.807823 0.000000 0.000000
  outer loop
    vertex 0.000000 22.197102 -38.553612
    vertex 0.000000 15.312382 -39.890118
    vertex 0.000000 20.946938 -47.047592
  endloop
endfacet
facet normal 41.079540 0.000000 0.000000
  outer loop
    vertex 0.000000 51.217876 5.383216
    vertex 0.000000 50.374603 10.707452
    vertex 0.000000 43.269478 6.853212
  endloop
endfacet
facet normal 53.108009 0.000000 -0.000000
  outer loop
    vertex 0.000000 44.486958 -0.053551
    vertex 0.000000 51.217876 5.383216
    vertex 0.000000 43.269478 6.853212
  endloop
endfacet
facet normal 78.922241 0.000000 0.000000
  outer loop
    vertex 0.000000 15.914375 -48.979412
    vertex 0.000000 15.312382 -39.890118
    vertex 0.000000 6.853212 -43.269478
  endloop
endfacet
facet normal 55.125000 0.000000 0.000000
  outer loop
    vertex 0.000000 20.101480 -30.953566
    vertex 0.000000 15.312382 -39.890118
    vertex 0.000000 22.197102 -38.553612
  endloop
endfacet
facet normal 42.373207 0.000000 -0.000000
  outer loop
    vertex 0.000000 34.460228 -38.271957
    vertex 0.000000 38.271957 -34.460228
    vertex 0.000000 27.569794 -34.045860
  endloop
endfacet
facet normal 56.807831 0.000000 0.000000
  outer loop
    vertex 0.000000 41.664375 -30.270941
    vertex 0.000000 38.500061 -22.289856
    vertex 0.000000 33.205971 -26.889666
  endloop
endfacet
facet normal 37.737610 0.000000 0.000000
  outer loop
    vertex 0.000000 22.197102 -38.553612
    vertex 0.000000 20.946938 -47.047592
    vertex 0.000000 25.750000 -44.600307
  endloop
endfacet
facet normal 86.323013 0.000000 -0.000000
  outer loop
    vertex 0.000000 15.312382 -39.890118
    vertex 0.000000 20.101480 -30.953566
    vertex 0.000000 10.202559 -31.400249
  endloop
endfacet
facet normal 89.085190 -0.000000 0.000000
  outer loop
    vertex 0.000000 -15.699682 -40.899071
    vertex 0.000000 -6.684148 -42.202049
    vertex 0.000000 -6.864449 -32.294693
  endloop
endfacet
facet normal 46.905388 0.000000 0.000000
  outer loop
    vertex 0.000000 33.205971 -26.889666
    vertex 0.000000 38.271957 -34.460228
    vertex 0.000000 41.664375 -30.270941
  endloop
endfacet
facet normal 78.922218 -0.000000 0.000000
  outer loop
    vertex 0.000000 27.569794 -34.045860
    vertex 0.000000 38.271957 -34.460228
    vertex 0.000000 33.205971 -26.889666
  endloop
endfacet
facet normal 55.125004 0.000000 0.000000
  outer loop
    vertex 0.000000 32.885178 -16.755835
    vertex 0.000000 33.205971 -26.889666
    vertex 0.000000 38.500061 -22.289856
  endloop
endfacet
facet normal 87.278412 0.000000 0.000000
  outer loop
    vertex 0.000000 -16.029613 27.764105
    vertex 0.000000 -22.919271 35.292583
    vertex 0.000000 -26.097824 26.097824
  endloop
endfacet
facet normal 56.807808 0.000000 0.000000
  outer loop
    vertex 0.000000 44.486958 -0.053551
    vertex 0.000000 42.202049 -6.684148
    vertex 0.000000 51.217876 -5.383216
  endloop
endfacet
facet normal 54.181988 0.000000 0.000000
  outer loop
    vertex 0.000000 23.973814 12.545002
    vertex 0.000000 19.089041 3.954822
    vertex 0.000000 25.558594 4.239919
  endloop
endfacet
facet normal 53.723831 0.000000 0.000000
  outer loop
    vertex 0.000000 9.355786 43.435036
    vertex 0.000000 5.383216 51.217876
    vertex 0.000000 2.292777 43.748798
  endloop
endfacet
facet normal 78.922226 0.000000 0.000000
  outer loop
    vertex 0.000000 50.374603 -10.707452
    vertex 0.000000 42.202049 -6.684148
    vertex 0.000000 40.899071 -15.699682
  endloop
endfacet
facet normal 55.124992 0.000000 -0.000000
  outer loop
    vertex 0.000000 42.202049 -6.684148
    vertex 0.000000 44.486958 -0.053551
    vertex 0.000000 36.857315 1.931610
  endloop
endfacet
facet normal 53.108040 0.000000 0.000000
  outer loop
    vertex 0.000000 38.500061 -22.289856
    vertex 0.000000 47.047592 -20.946938
    vertex 0.000000 40.899071 -15.699682
  endloop
endfacet
facet normal 46.014061 0.000000 0.000000
  outer loop
    vertex 0.000000 35.973469 23.361444
    vertex 0.000000 44.600307 25.750000
    vertex 0.000000 41.664375 30.270941
  endloop
endfacet
facet normal 42.373249 0.000000 -0.000000
  outer loop
    vertex 0.000000 10.707452 -50.374603
    vertex 0.000000 15.914375 -48.979412
    vertex 0.000000 6.853212 -43.269478
  endloop
endfacet
facet normal 46.905384 0.000000 0.000000
  outer loop
    vertex 0.000000 15.312382 -39.890118
    vertex 0.000000 15.914375 -48.979412
    vertex 0.000000 20.946938 -47.047592
  endloop
endfacet
facet normal 89.085159 0.000000 0.000000
  outer loop
    vertex 0.000000 24.535801 -22.092134
    vertex 0.000000 27.569794 -34.045860
    vertex 0.000000 33.205971 -26.889666
  endloop
endfacet
facet normal 41.079571 0.000000 -0.000000
  outer loop
    vertex 0.000000 47.047592 -20.946938
    vertex 0.000000 48.979412 -15.914375
    vertex 0.000000 40.899071 -15.699682
  endloop
endfacet
facet normal 89.085159 0.000000 0.000000
  outer loop
    vertex 0.000000 15.312382 -39.890118
    vertex 0.000000 10.202559 -31.400249
    vertex 0.000000 6.853212 -43.269478
  endloop
endfacet
facet normal 61.004578 0.000000 -0.000000
  outer loop
    vertex 0.000000 -9.552466 35.650291
    vertex 0.000000 -6.853212 43.269478
    vertex 0.000000 -15.699682 40.899071
  endloop
endfacet
facet normal 78.922241 0.000000 0.000000
  outer loop
    vertex 0.000000 48.979412 15.914375
    vertex 0.000000 39.890118 15.312382
    vertex 0.000000 43.269478 6.853212
  endloop
endfacet
facet normal 38.019630 0.000000 0.000000
  outer loop
    vertex 0.000000 15.914375 48.979412
    vertex 0.000000 10.707452 50.374603
    vertex 0.000000 9.355786 43.435036
  endloop
endfacet
facet normal 58.949287 0.000000 0.000000
  outer loop
    vertex 0.000000 15.914375 48.979412
    vertex 0.000000 9.355786 43.435036
    vertex 0.000000 15.080689 39.286541
  endloop
endfacet
facet normal 53.108032 -0.000000 0.000000
  outer loop
    vertex 0.000000 22.197102 -38.553612
    vertex 0.000000 30.270941 -41.664375
    vertex 0.000000 27.569794 -34.045860
  endloop
endfacet
facet normal 46.905350 0.000000 0.000000
  outer loop
    vertex 0.000000 -6.684148 -42.202049
    vertex 0.000000 -10.707452 -50.374603
    vertex 0.000000 -5.383216 -51.217876
  endloop
endfacet
facet normal 57.445656 0.000000 0.000000
  outer loop
    vertex 0.000000 -34.819271 -13.365866
    vertex 0.000000 -42.316086 -11.338561
    vertex 0.000000 -39.033958 -19.888796
  endloop
endfacet
facet normal 41.079544 0.000000 0.000000
  outer loop
    vertex 0.000000 0.000000 51.500000
    vertex 0.000000 2.292777 43.748798
    vertex 0.000000 5.383216 51.217876
  endloop
endfacet
facet normal 86.323021 0.000000 0.000000
  outer loop
    vertex 0.000000 -26.889666 -33.205971
    vertex 0.000000 -16.755835 -32.885178
    vertex 0.000000 -22.092134 -24.535801
  endloop
endfacet
facet normal 71.991364 0.000000 0.000000
  outer loop
    vertex 0.000000 -5.383216 51.217876
    vertex 0.000000 -6.853212 43.269478
    vertex 0.000000 2.292777 43.748798
  endloop
endfacet
facet normal 50.390507 0.000000 0.000000
  outer loop
    vertex 0.000000 15.914375 48.979412
    vertex 0.000000 15.080689 39.286541
    vertex 0.000000 20.946938 47.047592
  endloop
endfacet
facet normal 37.737602 0.000000 0.000000
  outer loop
    vertex 0.000000 -22.289856 -38.500061
    vertex 0.000000 -30.270941 -41.664375
    vertex 0.000000 -25.750000 -44.600307
  endloop
endfacet
facet normal 42.373257 -0.000000 0.000000
  outer loop
    vertex 0.000000 -15.914375 -48.979412
    vertex 0.000000 -10.707452 -50.374603
    vertex 0.000000 -15.699682 -40.899071
  endloop
endfacet
facet normal 42.373257 -0.000000 0.000000
  outer loop
    vertex 0.000000 -15.914375 48.979412
    vertex 0.000000 -15.699682 40.899071
    vertex 0.000000 -10.707452 50.374603
  endloop
endfacet
facet normal 42.373249 0.000000 0.000000
  outer loop
    vertex 0.000000 -51.217876 5.383216
    vertex 0.000000 -42.316086 11.338561
    vertex 0.000000 -50.374603 10.707452
  endloop
endfacet
facet normal 69.133247 0.000000 -0.000000
  outer loop
    vertex 0.000000 0.867391 26.669270
    vertex 0.000000 6.528882 29.952564
    vertex 0.000000 -1.951947 37.245377
  endloop
endfacet
facet normal 37.737614 0.000000 0.000000
  outer loop
    vertex 0.000000 -0.053551 -44.486958
    vertex 0.000000 -5.383216 -51.217876
    vertex 0.000000 -0.000000 -51.500000
  endloop
endfacet
facet normal 42.373260 0.000000 0.000000
  outer loop
    vertex 0.000000 34.460228 38.271957
    vertex 0.000000 30.270941 41.664375
    vertex 0.000000 23.860003 36.741180
  endloop
endfacet
facet normal 79.892174 -0.000000 0.000000
  outer loop
    vertex 0.000000 20.101480 -30.953566
    vertex 0.000000 27.569794 -34.045860
    vertex 0.000000 24.535801 -22.092134
  endloop
endfacet
facet normal 92.979279 0.000000 0.000000
  outer loop
    vertex 0.000000 -31.883604 3.351102
    vertex 0.000000 -42.316086 11.338561
    vertex 0.000000 -42.023907 2.202380
  endloop
endfacet
facet normal 82.475212 0.000000 0.000000
  outer loop
    vertex 0.000000 -31.883604 3.351102
    vertex 0.000000 -34.456490 13.226607
    vertex 0.000000 -42.316086 11.338561
  endloop
endfacet
facet normal 41.079552 0.000000 0.000000
  outer loop
    vertex 0.000000 25.750000 44.600307
    vertex 0.000000 23.860003 36.741180
    vertex 0.000000 30.270941 41.664375
  endloop
endfacet
facet normal 92.134308 0.000000 0.000000
  outer loop
    vertex 0.000000 -25.375765 18.151758
    vertex 0.000000 -35.292583 22.919271
    vertex 0.000000 -34.456490 13.226607
  endloop
endfacet
facet normal 73.805626 0.000000 0.000000
  outer loop
    vertex 0.000000 34.156410 -5.709544
    vertex 0.000000 40.899071 -15.699682
    vertex 0.000000 42.202049 -6.684148
  endloop
endfacet
facet normal 69.837921 0.000000 0.000000
  outer loop
    vertex 0.000000 -25.375765 18.151758
    vertex 0.000000 -34.456490 13.226607
    vertex 0.000000 -25.877663 10.188754
  endloop
endfacet
facet normal 71.991402 0.000000 0.000000
  outer loop
    vertex 0.000000 -10.707452 50.374603
    vertex 0.000000 -15.699682 40.899071
    vertex 0.000000 -6.853212 43.269478
  endloop
endfacet
facet normal 54.363373 0.000000 0.000000
  outer loop
    vertex 0.000000 -32.520905 29.789848
    vertex 0.000000 -35.292583 22.919271
    vertex 0.000000 -26.097824 26.097824
  endloop
endfacet
facet normal 83.068413 0.000000 0.000000
  outer loop
    vertex 0.000000 20.946938 47.047592
    vertex 0.000000 15.080689 39.286541
    vertex 0.000000 23.860003 36.741180
  endloop
endfacet
facet normal 41.079540 -0.000000 0.000000
  outer loop
    vertex 0.000000 -10.707452 50.374603
    vertex 0.000000 -6.853212 43.269478
    vertex 0.000000 -5.383216 51.217876
  endloop
endfacet
facet normal 41.079567 0.000000 -0.000000
  outer loop
    vertex 0.000000 30.270941 -41.664375
    vertex 0.000000 34.460228 -38.271957
    vertex 0.000000 27.569794 -34.045860
  endloop
endfacet
facet normal 86.323044 0.000000 -0.000000
  outer loop
    vertex 0.000000 -6.684148 -42.202049
    vertex 0.000000 1.931610 -36.857315
    vertex 0.000000 -6.864449 -32.294693
  endloop
endfacet
facet normal 55.124992 -0.000000 0.000000
  outer loop
    vertex 0.000000 -6.684148 -42.202049
    vertex 0.000000 -0.053551 -44.486958
    vertex 0.000000 1.931610 -36.857315
  endloop
endfacet
facet normal 83.006363 0.000000 -0.000000
  outer loop
    vertex 0.000000 -21.332199 2.278714
    vertex 0.000000 -18.090311 14.898528
    vertex 0.000000 -25.877663 10.188754
  endloop
endfacet
facet normal 71.991409 -0.000000 0.000000
  outer loop
    vertex 0.000000 -48.979412 -15.914375
    vertex 0.000000 -39.033958 -19.888796
    vertex 0.000000 -42.316086 -11.338561
  endloop
endfacet
facet normal 42.373238 -0.000000 0.000000
  outer loop
    vertex 0.000000 -5.383216 51.217876
    vertex 0.000000 2.292777 43.748798
    vertex 0.000000 0.000000 51.500000
  endloop
endfacet
facet normal 53.604229 0.000000 0.000000
  outer loop
    vertex 0.000000 -1.951947 37.245377
    vertex 0.000000 -6.853212 43.269478
    vertex 0.000000 -9.552466 35.650291
  endloop
endfacet
facet normal 37.737614 -0.000000 0.000000
  outer loop
    vertex 0.000000 44.486958 -0.053551
    vertex 0.000000 51.217876 -5.383216
    vertex 0.000000 51.500000 0.000000
  endloop
endfacet
facet normal 65.189583 0.000000 0.000000
  outer loop
    vertex 0.000000 36.857315 1.931610
    vertex 0.000000 26.902697 -2.094889
    vertex 0.000000 34.156410 -5.709544
  endloop
endfacet
facet normal 42.373249 0.000000 0.000000
  outer loop
    vertex 0.000000 50.374603 10.707452
    vertex 0.000000 48.979412 15.914375
    vertex 0.000000 43.269478 6.853212
  endloop
endfacet
facet normal 46.905384 0.000000 0.000000
  outer loop
    vertex 0.000000 39.890118 15.312382
    vertex 0.000000 48.979412 15.914375
    vertex 0.000000 47.047592 20.946938
  endloop
endfacet
facet normal 63.699249 0.000000 0.000000
  outer loop
    vertex 0.000000 35.973469 23.361444
    vertex 0.000000 31.533005 16.223282
    vertex 0.000000 39.890118 15.312382
  endloop
endfacet
facet normal 42.373264 0.000000 0.000000
  outer loop
    vertex 0.000000 41.664375 30.270941
    vertex 0.000000 38.271957 34.460228
    vertex 0.000000 30.977524 30.977524
  endloop
endfacet
facet normal 42.373238 0.000000 0.000000
  outer loop
    vertex 0.000000 20.946938 47.047592
    vertex 0.000000 23.860003 36.741180
    vertex 0.000000 25.750000 44.600307
  endloop
endfacet
facet normal 92.979324 0.000000 0.000000
  outer loop
    vertex 0.000000 13.039662 29.287561
    vertex 0.000000 23.860003 36.741180
    vertex 0.000000 15.080689 39.286541
  endloop
endfacet
facet normal 47.280720 -0.000000 0.000000
  outer loop
    vertex 0.000000 35.973469 23.361444
    vertex 0.000000 47.047592 20.946938
    vertex 0.000000 44.600307 25.750000
  endloop
endfacet
facet normal 63.745262 0.000000 0.000000
  outer loop
    vertex 0.000000 23.973814 12.545002
    vertex 0.000000 31.533005 16.223282
    vertex 0.000000 28.391779 23.127586
  endloop
endfacet
facet normal 77.861855 0.000000 0.000000
  outer loop
    vertex 0.000000 41.664375 30.270941
    vertex 0.000000 30.977524 30.977524
    vertex 0.000000 35.973469 23.361444
  endloop
endfacet
facet normal 54.908463 0.000000 -0.000000
  outer loop
    vertex 0.000000 28.391779 23.127586
    vertex 0.000000 30.977524 30.977524
    vertex 0.000000 23.226892 28.682823
  endloop
endfacet
facet normal 69.112297 0.000000 0.000000
  outer loop
    vertex 0.000000 -19.363590 -15.045883
    vertex 0.000000 -26.493313 -14.513800
    vertex 0.000000 -22.092134 -24.535801
  endloop
endfacet
facet normal 53.604233 -0.000000 0.000000
  outer loop
    vertex 0.000000 -42.316086 -11.338561
    vertex 0.000000 -34.819271 -13.365866
    vertex 0.000000 -36.453499 -5.773667
  endloop
endfacet
facet normal 79.892151 0.000000 0.000000
  outer loop
    vertex 0.000000 -6.864449 -32.294693
    vertex 0.000000 -16.755835 -32.885178
    vertex 0.000000 -15.699682 -40.899071
  endloop
endfacet
facet normal 79.892174 0.000000 0.000000
  outer loop
    vertex 0.000000 10.202559 -31.400249
    vertex 0.000000 1.931610 -36.857315
    vertex 0.000000 6.853212 -43.269478
  endloop
endfacet
facet normal 51.642872 0.000000 0.000000
  outer loop
    vertex 0.000000 -26.493313 -14.513800
    vertex 0.000000 -34.819271 -13.365866
    vertex 0.000000 -30.953566 -20.101480
  endloop
endfacet
facet normal 66.024506 0.000000 0.000000
  outer loop
    vertex 0.000000 -31.883604 3.351102
    vertex 0.000000 -30.504116 -3.046516
    vertex 0.000000 -21.332199 2.278714
  endloop
endfacet
facet normal 82.475204 0.000000 0.000000
  outer loop
    vertex 0.000000 -16.029613 27.764105
    vertex 0.000000 -9.552466 35.650291
    vertex 0.000000 -15.699682 40.899071
  endloop
endfacet
facet normal 53.604233 0.000000 0.000000
  outer loop
    vertex 0.000000 5.773667 36.453499
    vertex 0.000000 2.292777 43.748798
    vertex 0.000000 -1.951947 37.245377
  endloop
endfacet
facet normal 82.892029 0.000000 0.000000
  outer loop
    vertex 0.000000 30.927917 7.860247
    vertex 0.000000 26.902697 -2.094889
    vertex 0.000000 36.857315 1.931610
  endloop
endfacet
facet normal 82.475204 0.000000 -0.000000
  outer loop
    vertex 0.000000 23.226892 28.682823
    vertex 0.000000 23.860003 36.741180
    vertex 0.000000 13.039662 29.287561
  endloop
endfacet
facet normal 51.375729 0.000000 -0.000000
  outer loop
    vertex 0.000000 -5.579571 29.724562
    vertex 0.000000 -1.951947 37.245377
    vertex 0.000000 -9.552466 35.650291
  endloop
endfacet
facet normal 66.024506 0.000000 0.000000
  outer loop
    vertex 0.000000 13.039662 29.287561
    vertex 0.000000 6.528882 29.952564
    vertex 0.000000 8.759198 19.583965
  endloop
endfacet
facet normal 95.728340 0.000000 0.000000
  outer loop
    vertex 0.000000 13.039662 29.287561
    vertex 0.000000 8.759198 19.583965
    vertex 0.000000 18.984533 20.400274
  endloop
endfacet
facet normal 75.397972 0.000000 -0.000000
  outer loop
    vertex 0.000000 16.770605 -5.651273
    vertex 0.000000 19.089041 3.954822
    vertex 0.000000 11.536345 5.182401
  endloop
endfacet
facet normal 53.080894 -0.000000 0.000000
  outer loop
    vertex 0.000000 28.391779 23.127586
    vertex 0.000000 31.533005 16.223282
    vertex 0.000000 35.973469 23.361444
  endloop
endfacet
facet normal 60.992100 0.000000 -0.000000
  outer loop
    vertex 0.000000 30.927917 7.860247
    vertex 0.000000 31.533005 16.223282
    vertex 0.000000 23.973814 12.545002
  endloop
endfacet
facet normal 58.911095 0.000000 0.000000
  outer loop
    vertex 0.000000 30.977524 30.977524
    vertex 0.000000 28.391779 23.127586
    vertex 0.000000 35.973469 23.361444
  endloop
endfacet
facet normal 66.345734 0.000000 0.000000
  outer loop
    vertex 0.000000 28.391779 23.127586
    vertex 0.000000 23.226892 28.682823
    vertex 0.000000 18.984533 20.400274
  endloop
endfacet
facet normal 41.366577 0.000000 0.000000
  outer loop
    vertex 0.000000 26.902697 -2.094889
    vertex 0.000000 25.558594 4.239919
    vertex 0.000000 19.089041 3.954822
  endloop
endfacet
facet normal 45.626774 0.000000 0.000000
  outer loop
    vertex 0.000000 36.857315 1.931610
    vertex 0.000000 43.269478 6.853212
    vertex 0.000000 37.261986 9.357872
  endloop
endfacet
facet normal 89.084587 0.000000 0.000000
  outer loop
    vertex 0.000000 16.770605 -5.651273
    vertex 0.000000 26.902697 -2.094889
    vertex 0.000000 19.089041 3.954822
  endloop
endfacet
facet normal 90.880753 -0.000000 0.000000
  outer loop
    vertex 0.000000 -11.444012 -22.460138
    vertex 0.000000 0.015385 -29.791452
    vertex 0.000000 -5.098473 -18.589113
  endloop
endfacet
facet normal 52.156475 0.000000 0.000000
  outer loop
    vertex 0.000000 31.533005 16.223282
    vertex 0.000000 37.261986 9.357872
    vertex 0.000000 39.890118 15.312382
  endloop
endfacet
facet normal 46.432407 0.000000 -0.000000
  outer loop
    vertex 0.000000 36.857315 1.931610
    vertex 0.000000 37.261986 9.357872
    vertex 0.000000 30.927917 7.860247
  endloop
endfacet
facet normal 87.999733 0.000000 -0.000000
  outer loop
    vertex 0.000000 24.550800 -11.605658
    vertex 0.000000 26.902697 -2.094889
    vertex 0.000000 16.770605 -5.651273
  endloop
endfacet
facet normal 64.110275 0.000000 0.000000
  outer loop
    vertex 0.000000 36.857315 1.931610
    vertex 0.000000 34.156410 -5.709544
    vertex 0.000000 42.202049 -6.684148
  endloop
endfacet
facet normal 41.823952 0.000000 0.000000
  outer loop
    vertex 0.000000 -36.453499 -5.773667
    vertex 0.000000 -30.504116 -3.046516
    vertex 0.000000 -31.883604 3.351102
  endloop
endfacet
facet normal 61.156212 -0.000000 0.000000
  outer loop
    vertex 0.000000 -30.504116 -3.046516
    vertex 0.000000 -20.485855 -3.897665
    vertex 0.000000 -21.332199 2.278714
  endloop
endfacet
facet normal 38.087700 0.000000 -0.000000
  outer loop
    vertex 0.000000 -50.374603 -10.707452
    vertex 0.000000 -44.200272 -4.524283
    vertex 0.000000 -51.217876 -5.383216
  endloop
endfacet
facet normal 50.434593 0.000000 0.000000
  outer loop
    vertex 0.000000 -36.453499 -5.773667
    vertex 0.000000 -44.200272 -4.524283
    vertex 0.000000 -42.316086 -11.338561
  endloop
endfacet
facet normal 99.981537 0.000000 0.000000
  outer loop
    vertex 0.000000 -11.444012 -22.460138
    vertex 0.000000 -16.755835 -32.885178
    vertex 0.000000 -6.864449 -32.294693
  endloop
endfacet
facet normal 61.319431 0.000000 -0.000000
  outer loop
    vertex 0.000000 -19.363590 -15.045883
    vertex 0.000000 -14.741624 -6.320008
    vertex 0.000000 -20.485855 -3.897665
  endloop
endfacet
facet normal 37.767822 0.000000 0.000000
  outer loop
    vertex 0.000000 -20.946938 -47.047592
    vertex 0.000000 -22.289856 -38.500061
    vertex 0.000000 -25.750000 -44.600307
  endloop
endfacet
facet normal 50.279228 0.000000 0.000000
  outer loop
    vertex 0.000000 -16.755835 -32.885178
    vertex 0.000000 -22.289856 -38.500061
    vertex 0.000000 -15.699682 -40.899071
  endloop
endfacet
facet normal 70.793976 -0.000000 0.000000
  outer loop
    vertex 0.000000 -32.520905 29.789848
    vertex 0.000000 -26.097824 26.097824
    vertex 0.000000 -22.919271 35.292583
  endloop
endfacet
facet normal 39.936691 -0.000000 0.000000
  outer loop
    vertex 0.000000 -41.664375 30.270941
    vertex 0.000000 -32.520905 29.789848
    vertex 0.000000 -38.271957 34.460228
  endloop
endfacet
facet normal 38.087723 0.000000 0.000000
  outer loop
    vertex 0.000000 -48.979412 15.914375
    vertex 0.000000 -40.540699 18.181992
    vertex 0.000000 -47.047592 20.946938
  endloop
endfacet
facet normal 50.434586 0.000000 0.000000
  outer loop
    vertex 0.000000 -34.456490 13.226607
    vertex 0.000000 -40.540699 18.181992
    vertex 0.000000 -42.316086 11.338561
  endloop
endfacet
facet normal 63.989899 0.000000 0.000000
  outer loop
    vertex 0.000000 7.877563 -24.751659
    vertex 0.000000 0.015385 -29.791452
    vertex 0.000000 10.202559 -31.400249
  endloop
endfacet
facet normal 95.386276 0.000000 0.000000
  outer loop
    vertex 0.000000 -11.444012 -22.460138
    vertex 0.000000 -19.363590 -15.045883
    vertex 0.000000 -22.092134 -24.535801
  endloop
endfacet
facet normal 37.767830 0.000000 0.000000
  outer loop
    vertex 0.000000 5.383216 -51.217876
    vertex 0.000000 -0.053551 -44.486958
    vertex 0.000000 -0.000000 -51.500000
  endloop
endfacet
facet normal 50.279236 0.000000 0.000000
  outer loop
    vertex 0.000000 1.931610 -36.857315
    vertex 0.000000 -0.053551 -44.486958
    vertex 0.000000 6.853212 -43.269478
  endloop
endfacet
facet normal 76.904205 0.000000 -0.000000
  outer loop
    vertex 0.000000 -31.883604 3.351102
    vertex 0.000000 -25.877663 10.188754
    vertex 0.000000 -34.456490 13.226607
  endloop
endfacet
facet normal 58.692310 0.000000 0.000000
  outer loop
    vertex 0.000000 -7.856699 22.963436
    vertex 0.000000 -1.455273 15.973107
    vertex 0.000000 2.623578 20.687651
  endloop
endfacet
facet normal 71.762024 0.000000 0.000000
  outer loop
    vertex 0.000000 24.535801 -22.092134
    vertex 0.000000 19.493059 -16.841673
    vertex 0.000000 14.933063 -26.324596
  endloop
endfacet
facet normal 50.146507 0.000000 0.000000
  outer loop
    vertex 0.000000 -2.032937 -12.400737
    vertex 0.000000 -10.899776 -13.942009
    vertex 0.000000 -5.098473 -18.589113
  endloop
endfacet
facet normal 37.767822 0.000000 0.000000
  outer loop
    vertex 0.000000 30.270941 -41.664375
    vertex 0.000000 22.197102 -38.553612
    vertex 0.000000 25.750000 -44.600307
  endloop
endfacet
facet normal 50.279247 0.000000 0.000000
  outer loop
    vertex 0.000000 20.101480 -30.953566
    vertex 0.000000 22.197102 -38.553612
    vertex 0.000000 27.569794 -34.045860
  endloop
endfacet
facet normal 98.611031 -0.000000 0.000000
  outer loop
    vertex 0.000000 24.550800 -11.605658
    vertex 0.000000 32.885178 -16.755835
    vertex 0.000000 34.156410 -5.709544
  endloop
endfacet
facet normal 55.578724 -0.000000 0.000000
  outer loop
    vertex 0.000000 4.545721 -10.299598
    vertex 0.000000 12.168487 -11.947518
    vertex 0.000000 16.770605 -5.651273
  endloop
endfacet
facet normal 37.767822 0.000000 0.000000
  outer loop
    vertex 0.000000 47.047592 -20.946938
    vertex 0.000000 38.500061 -22.289856
    vertex 0.000000 44.600307 -25.750000
  endloop
endfacet
facet normal 50.279228 -0.000000 0.000000
  outer loop
    vertex 0.000000 32.885178 -16.755835
    vertex 0.000000 38.500061 -22.289856
    vertex 0.000000 40.899071 -15.699682
  endloop
endfacet
facet normal 41.823936 0.000000 0.000000
  outer loop
    vertex 0.000000 5.773667 36.453499
    vertex 0.000000 6.528882 29.952564
    vertex 0.000000 13.039662 29.287561
  endloop
endfacet
facet normal 61.156216 -0.000000 0.000000
  outer loop
    vertex 0.000000 2.623578 20.687651
    vertex 0.000000 8.759198 19.583965
    vertex 0.000000 6.528882 29.952564
  endloop
endfacet
facet normal 38.087719 0.000000 0.000000
  outer loop
    vertex 0.000000 5.383216 51.217876
    vertex 0.000000 9.355786 43.435036
    vertex 0.000000 10.707452 50.374603
  endloop
endfacet
facet normal 50.434593 0.000000 -0.000000
  outer loop
    vertex 0.000000 5.773667 36.453499
    vertex 0.000000 9.355786 43.435036
    vertex 0.000000 2.292777 43.748798
  endloop
endfacet
facet normal 37.767830 0.000000 0.000000
  outer loop
    vertex 0.000000 51.217876 5.383216
    vertex 0.000000 44.486958 -0.053551
    vertex 0.000000 51.500000 0.000000
  endloop
endfacet
facet normal 50.279236 -0.000000 0.000000
  outer loop
    vertex 0.000000 36.857315 1.931610
    vertex 0.000000 44.486958 -0.053551
    vertex 0.000000 43.269478 6.853212
  endloop
endfacet
facet normal 79.023727 -0.000000 0.000000
  outer loop
    vertex 0.000000 14.579941 12.202849
    vertex 0.000000 19.089041 3.954822
    vertex 0.000000 23.973814 12.545002
  endloop
endfacet
facet normal 76.917305 0.000000 0.000000
  outer loop
    vertex 0.000000 14.579941 12.202849
    vertex 0.000000 8.759198 19.583965
    vertex 0.000000 5.245790 10.824872
  endloop
endfacet
facet normal 68.640778 0.000000 0.000000
  outer loop
    vertex 0.000000 16.770605 -5.651273
    vertex 0.000000 12.168487 -11.947518
    vertex 0.000000 19.493059 -16.841673
  endloop
endfacet
facet normal 87.475502 0.000000 0.000000
  outer loop
    vertex 0.000000 24.535801 -22.092134
    vertex 0.000000 32.885178 -16.755835
    vertex 0.000000 24.550800 -11.605658
  endloop
endfacet
facet normal 77.489685 0.000000 0.000000
  outer loop
    vertex 0.000000 24.550800 -11.605658
    vertex 0.000000 34.156410 -5.709544
    vertex 0.000000 26.902697 -2.094889
  endloop
endfacet
facet normal 87.181183 0.000000 0.000000
  outer loop
    vertex 0.000000 40.899071 -15.699682
    vertex 0.000000 34.156410 -5.709544
    vertex 0.000000 32.885178 -16.755835
  endloop
endfacet
facet normal 49.625683 0.000000 -0.000000
  outer loop
    vertex 0.000000 -34.819271 -13.365866
    vertex 0.000000 -30.504116 -3.046516
    vertex 0.000000 -36.453499 -5.773667
  endloop
endfacet
facet normal 39.630955 0.000000 0.000000
  outer loop
    vertex 0.000000 -30.504116 -3.046516
    vertex 0.000000 -25.632021 -7.416319
    vertex 0.000000 -20.485855 -3.897665
  endloop
endfacet
facet normal 41.970558 0.000000 0.000000
  outer loop
    vertex 0.000000 -14.336384 0.815659
    vertex 0.000000 -21.332199 2.278714
    vertex 0.000000 -20.485855 -3.897665
  endloop
endfacet
facet normal 58.767220 -0.000000 0.000000
  outer loop
    vertex 0.000000 -14.548094 20.928988
    vertex 0.000000 -9.656384 13.633754
    vertex 0.000000 -7.856699 22.963436
  endloop
endfacet
facet normal 51.061344 -0.000000 0.000000
  outer loop
    vertex 0.000000 -26.493313 -14.513800
    vertex 0.000000 -19.363590 -15.045883
    vertex 0.000000 -25.632021 -7.416319
  endloop
endfacet
facet normal 99.981544 -0.000000 0.000000
  outer loop
    vertex 0.000000 -22.092134 -24.535801
    vertex 0.000000 -16.755835 -32.885178
    vertex 0.000000 -11.444012 -22.460138
  endloop
endfacet
facet normal 50.546013 0.000000 0.000000
  outer loop
    vertex 0.000000 -5.579571 29.724562
    vertex 0.000000 -7.856699 22.963436
    vertex 0.000000 0.867391 26.669270
  endloop
endfacet
facet normal 48.750546 0.000000 -0.000000
  outer loop
    vertex 0.000000 -14.548094 20.928988
    vertex 0.000000 -7.856699 22.963436
    vertex 0.000000 -16.029613 27.764105
  endloop
endfacet
facet normal 59.569862 0.000000 0.000000
  outer loop
    vertex 0.000000 -1.951947 37.245377
    vertex 0.000000 -5.579571 29.724562
    vertex 0.000000 0.867391 26.669270
  endloop
endfacet
facet normal 69.712822 0.000000 0.000000
  outer loop
    vertex 0.000000 -16.029613 27.764105
    vertex 0.000000 -5.579571 29.724562
    vertex 0.000000 -9.552466 35.650291
  endloop
endfacet
facet normal 88.042709 0.000000 0.000000
  outer loop
    vertex 0.000000 -14.548094 20.928988
    vertex 0.000000 -26.097824 26.097824
    vertex 0.000000 -25.375765 18.151758
  endloop
endfacet
facet normal 93.028954 -0.000000 0.000000
  outer loop
    vertex 0.000000 -21.332199 2.278714
    vertex 0.000000 -14.336384 0.815659
    vertex 0.000000 -18.090311 14.898528
  endloop
endfacet
facet normal 71.286026 -0.000000 0.000000
  outer loop
    vertex 0.000000 -26.097824 26.097824
    vertex 0.000000 -14.548094 20.928988
    vertex 0.000000 -16.029613 27.764105
  endloop
endfacet
facet normal 55.340561 0.000000 0.000000
  outer loop
    vertex 0.000000 -14.548094 20.928988
    vertex 0.000000 -18.090311 14.898528
    vertex 0.000000 -9.656384 13.633754
  endloop
endfacet
facet normal 49.625679 0.000000 0.000000
  outer loop
    vertex 0.000000 -1.951947 37.245377
    vertex 0.000000 6.528882 29.952564
    vertex 0.000000 5.773667 36.453499
  endloop
endfacet
facet normal 39.630959 0.000000 0.000000
  outer loop
    vertex 0.000000 6.528882 29.952564
    vertex 0.000000 0.867391 26.669270
    vertex 0.000000 2.623578 20.687651
  endloop
endfacet
facet normal 57.653732 0.000000 0.000000
  outer loop
    vertex 0.000000 11.536345 5.182401
    vertex 0.000000 5.245790 10.824872
    vertex 0.000000 4.401823 2.416764
  endloop
endfacet
facet normal 80.225906 0.000000 -0.000000
  outer loop
    vertex 0.000000 14.579941 12.202849
    vertex 0.000000 18.984533 20.400274
    vertex 0.000000 8.759198 19.583965
  endloop
endfacet
facet normal 38.879730 0.000000 -0.000000
  outer loop
    vertex 0.000000 26.902697 -2.094889
    vertex 0.000000 30.927917 7.860247
    vertex 0.000000 25.558594 4.239919
  endloop
endfacet
facet normal 50.330097 0.000000 0.000000
  outer loop
    vertex 0.000000 23.973814 12.545002
    vertex 0.000000 25.558594 4.239919
    vertex 0.000000 30.927917 7.860247
  endloop
endfacet
facet normal 58.077164 0.000000 0.000000
  outer loop
    vertex 0.000000 5.245790 10.824872
    vertex 0.000000 -1.898813 8.460539
    vertex 0.000000 4.401823 2.416764
  endloop
endfacet
facet normal 68.752121 0.000000 0.000000
  outer loop
    vertex 0.000000 -19.363590 -15.045883
    vertex 0.000000 -10.899776 -13.942009
    vertex 0.000000 -14.741624 -6.320008
  endloop
endfacet
facet normal 61.319443 0.000000 0.000000
  outer loop
    vertex 0.000000 -19.363590 -15.045883
    vertex 0.000000 -20.485855 -3.897665
    vertex 0.000000 -25.632021 -7.416319
  endloop
endfacet
facet normal 41.970551 0.000000 0.000000
  outer loop
    vertex 0.000000 -14.336384 0.815659
    vertex 0.000000 -20.485855 -3.897665
    vertex 0.000000 -14.741624 -6.320008
  endloop
endfacet
facet normal 78.377167 -0.000000 0.000000
  outer loop
    vertex 0.000000 -14.741624 -6.320008
    vertex 0.000000 -10.899776 -13.942009
    vertex 0.000000 -4.620942 -5.997944
  endloop
endfacet
facet normal 60.573814 0.000000 -0.000000
  outer loop
    vertex 0.000000 -8.663782 5.163480
    vertex 0.000000 -1.898813 8.460539
    vertex 0.000000 -9.656384 13.633754
  endloop
endfacet
facet normal 60.082031 -0.000000 0.000000
  outer loop
    vertex 0.000000 -34.819271 -13.365866
    vertex 0.000000 -26.493313 -14.513800
    vertex 0.000000 -25.632021 -7.416319
  endloop
endfacet
facet normal 69.293037 0.000000 0.000000
  outer loop
    vertex 0.000000 -22.092134 -24.535801
    vertex 0.000000 -26.493313 -14.513800
    vertex 0.000000 -30.953566 -20.101480
  endloop
endfacet
facet normal 53.408737 -0.000000 0.000000
  outer loop
    vertex 0.000000 -6.864449 -32.294693
    vertex 0.000000 1.931610 -36.857315
    vertex 0.000000 0.015385 -29.791452
  endloop
endfacet
facet normal 71.495102 -0.000000 0.000000
  outer loop
    vertex 0.000000 -19.363590 -15.045883
    vertex 0.000000 -11.444012 -22.460138
    vertex 0.000000 -10.899776 -13.942009
  endloop
endfacet
facet normal 78.587540 0.000000 0.000000
  outer loop
    vertex 0.000000 -21.332199 2.278714
    vertex 0.000000 -25.877663 10.188754
    vertex 0.000000 -31.883604 3.351102
  endloop
endfacet
facet normal 59.646889 0.000000 0.000000
  outer loop
    vertex 0.000000 -25.375765 18.151758
    vertex 0.000000 -25.877663 10.188754
    vertex 0.000000 -18.090311 14.898528
  endloop
endfacet
facet normal 55.458282 0.000000 0.000000
  outer loop
    vertex 0.000000 -14.548094 20.928988
    vertex 0.000000 -25.375765 18.151758
    vertex 0.000000 -18.090311 14.898528
  endloop
endfacet
facet normal 75.357269 0.000000 0.000000
  outer loop
    vertex 0.000000 -25.375765 18.151758
    vertex 0.000000 -26.097824 26.097824
    vertex 0.000000 -35.292583 22.919271
  endloop
endfacet
facet normal 58.692322 -0.000000 0.000000
  outer loop
    vertex 0.000000 -7.856699 22.963436
    vertex 0.000000 2.623578 20.687651
    vertex 0.000000 0.867391 26.669270
  endloop
endfacet
facet normal 52.591335 0.000000 0.000000
  outer loop
    vertex 0.000000 5.245790 10.824872
    vertex 0.000000 2.623578 20.687651
    vertex 0.000000 -1.455273 15.973107
  endloop
endfacet
facet normal 75.498528 0.000000 0.000000
  outer loop
    vertex 0.000000 18.984533 20.400274
    vertex 0.000000 14.579941 12.202849
    vertex 0.000000 23.973814 12.545002
  endloop
endfacet
facet normal 52.625633 0.000000 0.000000
  outer loop
    vertex 0.000000 -1.898813 8.460539
    vertex 0.000000 5.245790 10.824872
    vertex 0.000000 -1.455273 15.973107
  endloop
endfacet
facet normal 87.503799 0.000000 0.000000
  outer loop
    vertex 0.000000 28.391779 23.127586
    vertex 0.000000 18.984533 20.400274
    vertex 0.000000 23.973814 12.545002
  endloop
endfacet
facet normal 86.941750 0.000000 -0.000000
  outer loop
    vertex 0.000000 18.984533 20.400274
    vertex 0.000000 23.226892 28.682823
    vertex 0.000000 13.039662 29.287561
  endloop
endfacet
facet normal 91.769157 0.000000 0.000000
  outer loop
    vertex 0.000000 16.770605 -5.651273
    vertex 0.000000 11.536345 5.182401
    vertex 0.000000 4.401823 2.416764
  endloop
endfacet
facet normal 56.759563 0.000000 0.000000
  outer loop
    vertex 0.000000 19.089041 3.954822
    vertex 0.000000 14.579941 12.202849
    vertex 0.000000 11.536345 5.182401
  endloop
endfacet
facet normal 61.335918 0.000000 0.000000
  outer loop
    vertex 0.000000 14.579941 12.202849
    vertex 0.000000 5.245790 10.824872
    vertex 0.000000 11.536345 5.182401
  endloop
endfacet
facet normal 57.620167 0.000000 0.000000
  outer loop
    vertex 0.000000 2.623578 20.687651
    vertex 0.000000 5.245790 10.824872
    vertex 0.000000 8.759198 19.583965
  endloop
endfacet
facet normal 60.573811 -0.000000 0.000000
  outer loop
    vertex 0.000000 -9.656384 13.633754
    vertex 0.000000 -1.898813 8.460539
    vertex 0.000000 -1.455273 15.973107
  endloop
endfacet
facet normal 96.695633 0.000000 0.000000
  outer loop
    vertex 0.000000 -1.898813 8.460539
    vertex 0.000000 -8.663782 5.163480
    vertex 0.000000 1.923237 -3.970279
  endloop
endfacet
facet normal 72.087296 0.000000 0.000000
  outer loop
    vertex 0.000000 -4.620942 -5.997944
    vertex 0.000000 -14.336384 0.815659
    vertex 0.000000 -14.741624 -6.320008
  endloop
endfacet
facet normal 96.207916 0.000000 0.000000
  outer loop
    vertex 0.000000 -18.090311 14.898528
    vertex 0.000000 -14.336384 0.815659
    vertex 0.000000 -8.663782 5.163480
  endloop
endfacet
facet normal 48.130447 0.000000 0.000000
  outer loop
    vertex 0.000000 10.202559 -31.400249
    vertex 0.000000 20.101480 -30.953566
    vertex 0.000000 14.933063 -26.324596
  endloop
endfacet
facet normal 81.239883 0.000000 0.000000
  outer loop
    vertex 0.000000 1.923237 -3.970279
    vertex 0.000000 -8.663782 5.163480
    vertex 0.000000 -4.620942 -5.997944
  endloop
endfacet
facet normal 51.945370 0.000000 0.000000
  outer loop
    vertex 0.000000 -11.444012 -22.460138
    vertex 0.000000 -5.098473 -18.589113
    vertex 0.000000 -10.899776 -13.942009
  endloop
endfacet
facet normal 60.761345 0.000000 0.000000
  outer loop
    vertex 0.000000 -4.620942 -5.997944
    vertex 0.000000 -10.899776 -13.942009
    vertex 0.000000 -2.032937 -12.400737
  endloop
endfacet
facet normal 79.123856 0.000000 0.000000
  outer loop
    vertex 0.000000 0.015385 -29.791452
    vertex 0.000000 -11.444012 -22.460138
    vertex 0.000000 -6.864449 -32.294693
  endloop
endfacet
facet normal 66.436493 0.000000 0.000000
  outer loop
    vertex 0.000000 6.056293 -17.307165
    vertex 0.000000 -2.032937 -12.400737
    vertex 0.000000 1.182529 -22.563997
  endloop
endfacet
facet normal 45.856819 0.000000 0.000000
  outer loop
    vertex 0.000000 6.056293 -17.307165
    vertex 0.000000 7.877563 -24.751659
    vertex 0.000000 12.806473 -19.720238
  endloop
endfacet
facet normal 98.997261 0.000000 0.000000
  outer loop
    vertex 0.000000 4.401823 2.416764
    vertex 0.000000 1.923237 -3.970279
    vertex 0.000000 16.770605 -5.651273
  endloop
endfacet
facet normal 47.148624 -0.000000 0.000000
  outer loop
    vertex 0.000000 -4.620942 -5.997944
    vertex 0.000000 -2.032937 -12.400737
    vertex 0.000000 1.923237 -3.970279
  endloop
endfacet
facet normal 80.891861 -0.000000 0.000000
  outer loop
    vertex 0.000000 -14.336384 0.815659
    vertex 0.000000 -4.620942 -5.997944
    vertex 0.000000 -8.663782 5.163480
  endloop
endfacet
facet normal 68.898361 0.000000 0.000000
  outer loop
    vertex 0.000000 10.202559 -31.400249
    vertex 0.000000 0.015385 -29.791452
    vertex 0.000000 1.931610 -36.857315
  endloop
endfacet
facet normal 50.034920 0.000000 0.000000
  outer loop
    vertex 0.000000 -5.098473 -18.589113
    vertex 0.000000 0.015385 -29.791452
    vertex 0.000000 1.182529 -22.563997
  endloop
endfacet
facet normal 51.054359 0.000000 0.000000
  outer loop
    vertex 0.000000 1.182529 -22.563997
    vertex 0.000000 -2.032937 -12.400737
    vertex 0.000000 -5.098473 -18.589113
  endloop
endfacet
facet normal 47.148628 0.000000 0.000000
  outer loop
    vertex 0.000000 1.923237 -3.970279
    vertex 0.000000 -2.032937 -12.400737
    vertex 0.000000 4.545721 -10.299598
  endloop
endfacet
facet normal 89.565353 0.000000 0.000000
  outer loop
    vertex 0.000000 16.770605 -5.651273
    vertex 0.000000 1.923237 -3.970279
    vertex 0.000000 4.545721 -10.299598
  endloop
endfacet
facet normal 55.222435 0.000000 -0.000000
  outer loop
    vertex 0.000000 1.923237 -3.970279
    vertex 0.000000 4.401823 2.416764
    vertex 0.000000 -1.898813 8.460539
  endloop
endfacet
facet normal 72.303658 0.000000 0.000000
  outer loop
    vertex 0.000000 -9.656384 13.633754
    vertex 0.000000 -1.455273 15.973107
    vertex 0.000000 -7.856699 22.963436
  endloop
endfacet
facet normal 70.182259 0.000000 0.000000
  outer loop
    vertex 0.000000 -18.090311 14.898528
    vertex 0.000000 -8.663782 5.163480
    vertex 0.000000 -9.656384 13.633754
  endloop
endfacet
facet normal 52.959351 -0.000000 0.000000
  outer loop
    vertex 0.000000 19.493059 -16.841673
    vertex 0.000000 24.535801 -22.092134
    vertex 0.000000 24.550800 -11.605658
  endloop
endfacet
facet normal 50.927750 -0.000000 0.000000
  outer loop
    vertex 0.000000 6.056293 -17.307165
    vertex 0.000000 12.806473 -19.720238
    vertex 0.000000 12.168487 -11.947518
  endloop
endfacet
facet normal 66.325912 0.000000 0.000000
  outer loop
    vertex 0.000000 24.535801 -22.092134
    vertex 0.000000 14.933063 -26.324596
    vertex 0.000000 20.101480 -30.953566
  endloop
endfacet
facet normal 43.252060 -0.000000 0.000000
  outer loop
    vertex 0.000000 7.877563 -24.751659
    vertex 0.000000 14.933063 -26.324596
    vertex 0.000000 12.806473 -19.720238
  endloop
endfacet
facet normal 70.852951 0.000000 0.000000
  outer loop
    vertex 0.000000 16.770605 -5.651273
    vertex 0.000000 19.493059 -16.841673
    vertex 0.000000 24.550800 -11.605658
  endloop
endfacet
facet normal 50.282143 0.000000 -0.000000
  outer loop
    vertex 0.000000 14.933063 -26.324596
    vertex 0.000000 19.493059 -16.841673
    vertex 0.000000 12.806473 -19.720238
  endloop
endfacet
facet normal 50.941372 0.000000 0.000000
  outer loop
    vertex 0.000000 0.015385 -29.791452
    vertex 0.000000 7.877563 -24.751659
    vertex 0.000000 1.182529 -22.563997
  endloop
endfacet
facet normal 43.252052 0.000000 0.000000
  outer loop
    vertex 0.000000 14.933063 -26.324596
    vertex 0.000000 7.877563 -24.751659
    vertex 0.000000 10.202559 -31.400249
  endloop
endfacet
facet normal 50.927742 0.000000 -0.000000
  outer loop
    vertex 0.000000 6.056293 -17.307165
    vertex 0.000000 12.168487 -11.947518
    vertex 0.000000 4.545721 -10.299598
  endloop
endfacet
facet normal 53.809441 0.000000 0.000000
  outer loop
    vertex 0.000000 19.493059 -16.841673
    vertex 0.000000 12.168487 -11.947518
    vertex 0.000000 12.806473 -19.720238
  endloop
endfacet
facet normal 49.274307 -0.000000 0.000000
  outer loop
    vertex 0.000000 -2.032937 -12.400737
    vertex 0.000000 6.056293 -17.307165
    vertex 0.000000 4.545721 -10.299598
  endloop
endfacet
facet normal 45.856819 0.000000 0.000000
  outer loop
    vertex 0.000000 7.877563 -24.751659
    vertex 0.000000 6.056293 -17.307165
    vertex 0.000000 1.182529 -22.563997
  endloop
endfacet
endsolid cov1.stl
